<svg xmlns="http://www.w3.org/2000/svg" viewBox="0 0 105.39 110.46"><defs><style>.cls-1{opacity:0.5;}.cls-2{fill:#f9d28c;}.cls-3,.cls-8{fill:none;}.cls-3,.cls-4,.cls-5,.cls-6{stroke:#33475c;stroke-linecap:round;stroke-linejoin:round;}.cls-3{stroke-width:5px;}.cls-4,.cls-7{fill:#fff;}.cls-4,.cls-5,.cls-6{fill-rule:evenodd;}.cls-5{fill:#e4eaef;}.cls-6{fill:#cbd6e3;}.cls-8{stroke:#fff;stroke-width:8px;}.cls-9{fill:#506e91;}.cls-10{fill:#6976d4;}.cls-11{fill:#bdeee8;}.cls-12{fill:#01a4bf;}.cls-13{fill:#ff7a52;}.cls-14{fill:#d9dcf4;}.cls-15{fill:#40cebb;}.cls-16{fill:#bde8ef;}</style></defs><title>Asset 6</title><g id="Layer_2" data-name="Layer 2"><g id="Layer_1-2" data-name="Layer 1"><g class="cls-1"><path class="cls-2" d="M57.8,63.07a11.33,11.33,0,0,0-10.21,0L12.72,83.21c-2.81,1.62-2.81,4.27,0,5.89l34.87,20.14a11.33,11.33,0,0,0,10.21,0L92.68,89.1c2.81-1.62,2.81-4.27,0-5.89Z"/></g><polygon class="cls-3" points="89.94 73.49 52.7 94.99 15.45 73.49 52.7 51.99 89.94 73.49"/><polygon class="cls-3" points="2.5 58.68 39.74 37.18 52.7 51.99 15.45 73.49 2.5 58.68"/><polygon class="cls-3" points="102.89 58.68 65.65 37.18 52.7 51.99 89.94 73.49 102.89 58.68"/><polygon class="cls-3" points="40.1 80.16 2.86 58.66 15.45 73.49 52.7 94.99 40.1 80.16"/><polygon class="cls-3" points="65.65 80.25 102.89 58.75 89.94 73.49 52.7 94.99 65.65 80.25"/><polygon class="cls-4" points="89.94 73.49 52.7 94.99 15.45 73.49 52.7 51.99 89.94 73.49"/><polygon class="cls-5" points="2.5 58.68 39.74 37.18 52.7 51.99 15.45 73.49 2.5 58.68"/><polygon class="cls-5" points="102.89 58.68 65.65 37.18 52.7 51.99 89.94 73.49 102.89 58.68"/><polygon class="cls-6" points="40.1 80.16 2.86 58.66 15.45 73.49 52.7 94.99 40.1 80.16"/><polygon class="cls-6" points="65.65 80.25 102.89 58.75 89.94 73.49 52.7 94.99 65.65 80.25"/><path class="cls-7" d="M68.08,63.9c4.46-2.37,7.72-6.47,10.59-10.63a11.16,11.16,0,0,0,2-4,10.56,10.56,0,0,0-.91-5.78c-1.3-3.41-3-6.93-2.43-10.54.23-1.51.84-3.13.18-4.52a5.48,5.48,0,0,0-2.12-2,12.36,12.36,0,0,0-3.48-1.79c-1.82-.48-3.75-.11-5.63,0-5.85.44-11.71-1.39-17.54-.78A13.54,13.54,0,0,0,44.44,25a19.53,19.53,0,0,0-3.38,2.12c-3.71,2.72-7.51,5.85-8.88,10.24A11.84,11.84,0,0,0,36,49.83a51.29,51.29,0,0,0,5.09,3.07c4.52,2.76,6.7,6.78,9.44,11.1,2.55,4,5,3.53,9.33,2.57A31.87,31.87,0,0,0,68.08,63.9Z"/><circle class="cls-8" cx="49.64" cy="18.25" r="14.25"/><circle class="cls-8" cx="21.32" cy="33.76" r="11.84"/><circle class="cls-8" cx="75.76" cy="24.48" r="7.58"/><circle class="cls-8" cx="81.63" cy="45.6" r="8.94"/><circle class="cls-8" cx="58.24" cy="46.77" r="9.94"/><circle class="cls-8" cx="37.04" cy="50.9" r="7.21"/><circle class="cls-8" cx="51.21" cy="70.19" r="10.24"/><circle class="cls-8" cx="71.22" cy="63.12" r="5.99"/><circle class="cls-9" cx="49.64" cy="18.25" r="14.25"/><circle class="cls-10" cx="21.32" cy="33.76" r="11.84"/><circle class="cls-11" cx="75.76" cy="24.48" r="7.58"/><circle class="cls-12" cx="81.63" cy="45.6" r="8.94"/><circle class="cls-13" cx="58.24" cy="46.77" r="9.94"/><circle class="cls-14" cx="37.04" cy="50.9" r="7.21"/><circle class="cls-15" cx="51.21" cy="70.19" r="10.24"/><circle class="cls-16" cx="71.22" cy="63.12" r="5.99"/></g></g></svg>