<?xml version="1.0" encoding="UTF-8"?>
<svg width="104px" height="23px" viewBox="0 0 104 23" version="1.1" xmlns="http://www.w3.org/2000/svg" xmlns:xlink="http://www.w3.org/1999/xlink">
    <!-- Generator: Sketch 50.2 (55047) - http://www.bohemiancoding.com/sketch -->
    <title>growthhub (1)</title>
    <desc>Created with Sketch.</desc>
    <defs></defs>
    <g id="Page-1" stroke="none" stroke-width="1" fill="none" fill-rule="evenodd">
        <g id="growthhub-(1)" fill="#FFFFFF" fill-rule="nonzero">
            <g id="Group">
                <path d="M14.1016949,3.84858757 L13.4553672,6.61016949 L11.4576271,6.61016949 C11.8983051,7.08022599 12.2214689,7.55028249 12.4271186,8.07909605 C12.6327684,8.57853107 12.7502825,9.16610169 12.7502825,9.78305085 C12.7502825,10.6644068 12.5152542,11.4282486 12.0158192,12.0745763 C11.5163842,12.720904 10.840678,13.220339 9.98870056,13.5728814 C11.9864407,14.5129944 12.9853107,15.9231638 12.9853107,17.8327684 C12.9853107,18.919774 12.6915254,19.859887 12.0745763,20.6531073 C11.4576271,21.4169492 10.6644068,22.0045198 9.72429379,22.3864407 C8.78418079,22.7683616 7.81468927,22.9446328 6.84519774,22.9446328 C5.87570621,22.9446328 4.99435028,22.8564972 4.20112994,22.680226 C3.4079096,22.5039548 2.70282486,22.239548 2.05649718,21.8576271 C1.41016949,21.4757062 0.82259887,20.9762712 0.26440678,20.359322 L2.26214689,18.2734463 C2.79096045,18.8022599 3.23163842,19.2135593 3.58418079,19.4779661 C3.93672316,19.7423729 4.37740113,19.9480226 4.8180791,20.0655367 C5.28813559,20.1830508 5.84632768,20.2418079 6.49265537,20.2418079 C6.96271186,20.2418079 7.43276836,20.1536723 7.90282486,19.9480226 C8.37288136,19.7717514 8.78418079,19.4779661 9.10734463,19.0960452 C9.43050847,18.7141243 9.57740113,18.2440678 9.57740113,17.7152542 C9.57740113,17.0689266 9.43050847,16.540113 9.13672316,16.099435 C8.84293785,15.6587571 8.43163842,15.3355932 7.90282486,15.100565 C7.3740113,14.8655367 6.78644068,14.7774011 6.14011299,14.7774011 C5.17062147,14.7774011 4.11299435,15.100565 2.99661017,15.7175141 L3.52542373,13.8960452 C2.79096045,13.5728814 2.1740113,13.220339 1.73333333,12.8677966 C1.29265537,12.5152542 0.969491525,12.0451977 0.763841808,11.5457627 C0.55819209,11.0463277 0.470056497,10.4 0.470056497,9.66553672 C0.470056497,8.66666667 0.734463277,7.78531073 1.26327684,7.02146893 C1.7920904,6.25762712 2.49717514,5.64067797 3.4079096,5.2 C4.31864407,4.75932203 5.31751412,4.55367232 6.40451977,4.55367232 C6.9920904,4.55367232 7.63841808,4.58305085 8.34350282,4.64180791 C9.04858757,4.70056497 9.45988701,4.7299435 9.5480226,4.7299435 C10.1649718,4.7299435 10.8700565,4.64180791 11.6926554,4.49491525 C12.5152542,4.28926554 13.3084746,4.08361582 14.1016949,3.84858757 Z M9.51864407,9.66553672 C9.51864407,8.93107345 9.22485876,8.28474576 8.63728814,7.7559322 C8.04971751,7.22711864 7.3740113,6.96271186 6.61016949,6.96271186 C5.84632768,6.96271186 5.17062147,7.22711864 4.58305085,7.7559322 C3.99548023,8.28474576 3.70169492,8.90169492 3.70169492,9.66553672 C3.70169492,10.4293785 3.99548023,11.0757062 4.58305085,11.6045198 C5.17062147,12.1333333 5.84632768,12.3977401 6.61016949,12.3977401 C7.3740113,12.3977401 8.04971751,12.1333333 8.63728814,11.6045198 C9.22485876,11.0757062 9.51864407,10.4293785 9.51864407,9.66553672 Z" id="Shape"></path>
                <path d="M23.0915254,4.55367232 L21.9751412,7.99096045 C20.7706215,7.99096045 19.859887,8.31412429 19.2723164,8.96045198 C18.6847458,9.60677966 18.3909605,10.5175141 18.3909605,11.6926554 L18.3909605,17.920904 L15.159322,18.1265537 L15.159322,4.96497175 L18.2146893,4.64180791 L18.2146893,6.9920904 L18.2734463,6.9920904 C18.8022599,6.0519774 19.419209,5.40564972 20.1830508,5.08248588 C20.9175141,4.75932203 21.8870056,4.58305085 23.0915254,4.55367232 Z" id="Shape"></path>
                <path d="M37.5457627,11.4576271 C37.5457627,12.4271186 37.3694915,13.3084746 36.9875706,14.160452 C36.6056497,15.0124294 36.0768362,15.7468927 35.4011299,16.3638418 C34.7254237,17.0101695 33.9322034,17.480226 33.080226,17.8327684 C32.2282486,18.1853107 31.3175141,18.3615819 30.3480226,18.3615819 C29.0847458,18.3615819 27.9096045,18.0677966 26.7932203,17.4508475 C25.6768362,16.8338983 24.7954802,16.0112994 24.1491525,14.9536723 C23.4734463,13.8960452 23.1502825,12.720904 23.1502825,11.4576271 C23.1502825,10.1943503 23.4734463,9.01920904 24.1491525,7.96158192 C24.8248588,6.9039548 25.7062147,6.0519774 26.7932203,5.46440678 C27.9096045,4.84745763 29.0847458,4.55367232 30.3480226,4.55367232 C31.2881356,4.55367232 32.1988701,4.7299435 33.080226,5.08248588 C33.9615819,5.43502825 34.7254237,5.93446328 35.4011299,6.5220339 C36.0768362,7.13898305 36.5762712,7.87344633 36.9875706,8.72542373 C37.340113,9.60677966 37.5457627,10.5175141 37.5457627,11.4576271 Z M34.4610169,11.4576271 C34.4610169,10.9288136 34.3435028,10.4 34.1378531,9.9299435 C33.9028249,9.43050847 33.6090395,9.01920904 33.2564972,8.66666667 C32.8745763,8.31412429 32.4338983,8.02033898 31.9344633,7.8440678 C31.4350282,7.66779661 30.9062147,7.55028249 30.3480226,7.55028249 C29.6135593,7.55028249 28.9378531,7.72655367 28.2915254,8.07909605 C27.6451977,8.43163842 27.1457627,8.90169492 26.7638418,9.48926554 C26.3819209,10.0768362 26.1762712,10.7525424 26.1762712,11.4870056 C26.1762712,12.2214689 26.3819209,12.8971751 26.7638418,13.4847458 C27.1457627,14.0723164 27.6451977,14.5423729 28.2915254,14.8949153 C28.9378531,15.2474576 29.6135593,15.4237288 30.3480226,15.4237288 C31.0824859,15.4237288 31.7581921,15.2474576 32.4045198,14.8949153 C33.0508475,14.5423729 33.5502825,14.0723164 33.9322034,13.4847458 C34.2847458,12.8384181 34.4610169,12.1920904 34.4610169,11.4576271 Z" id="Shape"></path>
                <polygon id="Shape" points="56.9649718 4.96497175 50.9717514 18.3615819 50.9129944 18.3615819 47.4757062 10.2237288 43.7446328 18.3615819 43.6858757 18.3615819 37.7220339 4.96497175 41.100565 4.55367232 43.6858757 11.8101695 47.4463277 4.08361582 47.5050847 4.08361582 50.9129944 11.8101695 53.6451977 4.55367232"></polygon>
                <path d="M65.4259887,15.3355932 L64.6327684,18.2440678 C64.3683616,18.3028249 63.9276836,18.3322034 63.3694915,18.3322034 C62.4587571,18.3322034 61.6361582,18.1559322 60.9310734,17.8327684 C60.2259887,17.5096045 59.6677966,17.0101695 59.2564972,16.3638418 C58.8451977,15.6881356 58.639548,14.9242938 58.639548,13.9841808 L58.639548,7.78531073 L56.6418079,7.78531073 L57.3468927,4.96497175 L58.639548,4.96497175 L58.639548,2.70282486 L61.8711864,1.26327684 L61.8711864,4.96497175 L64.8090395,4.96497175 L64.8090395,7.78531073 L61.8711864,7.78531073 L61.8711864,13.3378531 C61.8711864,14.0135593 62.0474576,14.5129944 62.4,14.8655367 C62.7525424,15.2180791 63.3988701,15.3943503 64.280226,15.3943503 C64.5740113,15.3943503 64.9559322,15.3649718 65.4259887,15.3355932 Z" id="Shape"></path>
                <path d="M78,17.9502825 L74.7683616,18.1559322 L74.7683616,9.90056497 C74.7683616,9.16610169 74.5920904,8.54915254 74.239548,8.07909605 C73.8870056,7.60903955 73.3581921,7.3740113 72.6531073,7.3740113 C71.6836158,7.3740113 70.9491525,7.69717514 70.420339,8.31412429 C69.920904,8.93107345 69.6564972,9.69491525 69.6564972,10.5762712 L69.6564972,17.9502825 L66.3954802,18.1559322 L66.3954802,0.411299435 L69.6564972,0 L69.6564972,6.19887006 L69.7152542,6.19887006 C70.1853107,5.5819209 70.6847458,5.17062147 71.2723164,4.90621469 C71.8305085,4.67118644 72.5943503,4.55367232 73.5344633,4.55367232 C74.4158192,4.55367232 75.2090395,4.7299435 75.8847458,5.08248588 C76.560452,5.43502825 77.0892655,5.96384181 77.4418079,6.63954802 C77.8237288,7.31525424 78,8.10847458 78,9.01920904 L78,17.9502825 Z" id="Shape"></path>
            </g>
            <g id="Group" transform="translate(82.553672, 9.107345)">
                <polygon id="Shape" points="6.72768362 8.66666667 5.14124294 8.75480226 5.17062147 5.14124294 1.82146893 5.11186441 1.7920904 8.6079096 0.205649718 8.6960452 0.26440678 0.352542373 1.85084746 0.176271186 1.82146893 3.61355932 5.17062147 3.64293785 5.2 0.411299435 6.78644068 0.235028249"></polygon>
                <path d="M14.1016949,6.22824859 C14.1016949,6.72768362 13.9841808,7.16836158 13.719774,7.57966102 C13.4847458,7.99096045 13.1322034,8.31412429 12.6621469,8.54915254 C12.2214689,8.78418079 11.6926554,8.90169492 11.0757062,8.90169492 C10.5762712,8.90169492 10.1062147,8.78418079 9.66553672,8.57853107 C9.22485876,8.37288136 8.87231638,8.04971751 8.6079096,7.60903955 C8.34350282,7.16836158 8.19661017,6.61016949 8.2259887,5.96384181 L8.25536723,0.411299435 L9.84180791,0.235028249 L9.81242938,5.72881356 C9.81242938,6.19887006 9.90056497,6.58079096 10.0768362,6.9039548 C10.2531073,7.19774011 10.6350282,7.3740113 11.1638418,7.3740113 C11.6632768,7.3740113 12.0158192,7.22711864 12.2214689,6.93333333 C12.3977401,6.63954802 12.5152542,6.19887006 12.5152542,5.64067797 L12.5446328,0.470056497 L14.1310734,0.293785311 L14.1016949,6.22824859 Z" id="Shape"></path>
                <path d="M21.3288136,6.5220339 C21.3288136,6.93333333 21.2112994,7.31525424 21.0056497,7.66779661 C20.8,8.02033898 20.5062147,8.28474576 20.0949153,8.49039548 C19.7129944,8.6960452 19.2429379,8.78418079 18.7435028,8.78418079 L15.6293785,8.75480226 L15.6881356,0.499435028 L18.5378531,0.528813559 C19.1254237,0.528813559 19.6248588,0.675706215 19.9774011,0.910734463 C20.3299435,1.17514124 20.5943503,1.46892655 20.7412429,1.82146893 C20.8881356,2.1740113 20.9468927,2.49717514 20.9468927,2.82033898 C20.9468927,3.05536723 20.8881356,3.29039548 20.8,3.52542373 C20.7118644,3.76045198 20.5649718,3.93672316 20.4180791,4.11299435 C20.2418079,4.28926554 20.0655367,4.40677966 19.8305085,4.52429379 C20.300565,4.67118644 20.6531073,4.93559322 20.9468927,5.28813559 C21.1819209,5.61129944 21.3288136,6.02259887 21.3288136,6.5220339 Z M19.5367232,6.19887006 C19.5367232,5.81694915 19.419209,5.55254237 19.2135593,5.40564972 C18.9785311,5.22937853 18.6259887,5.17062147 18.0677966,5.17062147 L17.2451977,5.17062147 L17.2158192,7.22711864 L18.0384181,7.22711864 C18.5672316,7.22711864 18.9491525,7.13898305 19.1841808,6.9920904 C19.419209,6.81581921 19.5367232,6.58079096 19.5367232,6.19887006 Z M19.1841808,2.96723164 C19.1841808,2.79096045 19.1548023,2.6440678 19.0666667,2.49717514 C18.9785311,2.35028249 18.8610169,2.23276836 18.6847458,2.1740113 C18.5378531,2.08587571 18.3322034,2.05649718 18.1265537,2.05649718 L17.2451977,2.05649718 L17.2451977,3.90734463 L18.1265537,3.90734463 C18.3322034,3.90734463 18.5378531,3.8779661 18.6847458,3.78983051 C18.8316384,3.70169492 18.9785311,3.58418079 19.0666667,3.46666667 C19.1548023,3.29039548 19.1841808,3.14350282 19.1841808,2.96723164 Z" id="Shape"></path>
            </g>
        </g>
    </g>
</svg>