<?xml version="1.0" encoding="utf-8"?>
<!-- Generator: Adobe Illustrator 20.1.0, SVG Export Plug-In . SVG Version: 6.00 Build 0)  -->
<svg version="1.1" id="Layer_1" xmlns="http://www.w3.org/2000/svg" xmlns:xlink="http://www.w3.org/1999/xlink" x="0px" y="0px"
	 width="44px" height="33px" viewBox="0 0 44 33" enable-background="new 0 0 44 33" xml:space="preserve">
<g>
	<g>
		<path fill="#FFFFFF" d="M9.5,23.8c-0.1,0-0.2,0-0.3-0.1l-8.5-5.9c-0.7-0.5-0.9-1.5-0.4-2.2l5.8-8.9C6.6,6,7.5,5.8,8.2,6.3l3.2,2.1
			c0.4,0.3,1,0.4,1.5,0.2l0.1,0l7.2-1.2c0.3-0.1,0.6,0.2,0.7,0.5c0.1,0.3-0.2,0.6-0.5,0.7l-7.2,1.2c-0.8,0.2-1.7,0.1-2.4-0.4
			L7.6,7.3C7.4,7.2,7.2,7.2,7.1,7.4l-5.8,8.9c-0.1,0.2-0.1,0.4,0.1,0.6l8.5,5.9c0.3,0.2,0.3,0.5,0.1,0.8C9.9,23.7,9.7,23.8,9.5,23.8
			z"/>
		<path fill="#FFFFFF" d="M34.5,24.1c-0.2,0-0.4-0.1-0.5-0.3c-0.2-0.3,0-0.6,0.2-0.8l8.6-4.5c0,0,0.1-0.1,0-0.1l-3.7-10
			c0-0.1-0.1-0.1-0.1-0.1c0,0-0.1,0-0.2,0l-6,2.3c-0.8,0.3-1.7,0.3-2.5-0.1L23,7.3c-0.4-0.2-0.8-0.1-1.1,0.1l-5.9,4.8
			c-0.1,0.1-0.2,0.3-0.2,0.5c0,0.1,0,0.3,0.2,0.5c0.2,0.1,0.4,0.2,0.7,0.3c0.1,0,0.3,0,0.5-0.1l5.9-2.2c0.3-0.1,0.6-0.1,0.9,0.1
			c0.3,0.2,0.5,0.4,0.5,0.7c0.1,0.3-0.1,0.6-0.4,0.7c-0.3,0.1-0.6-0.1-0.7-0.4l-5.9,2.2c-0.4,0.1-0.8,0.2-1.1,0.1
			c-0.5-0.1-0.9-0.3-1.2-0.5c-0.4-0.3-0.7-0.8-0.7-1.4c0-0.6,0.2-1.1,0.6-1.4l5.9-4.8c0.7-0.6,1.6-0.7,2.4-0.3l7.2,3.2
			c0.5,0.2,1.1,0.2,1.6,0l6-2.3c0.4-0.1,0.8-0.1,1.1,0c0.4,0.2,0.6,0.4,0.8,0.8l3.7,10c0.2,0.6,0,1.3-0.6,1.6L34.8,24
			C34.7,24.1,34.6,24.1,34.5,24.1z"/>
		<path fill="#FFFFFF" d="M33.8,27.1c-0.8,0-1.8-0.5-2.9-1.4c-0.2-0.2-0.3-0.6-0.1-0.8c0.2-0.2,0.6-0.3,0.8-0.1
			c1.1,0.9,2,1.3,2.5,1.1c0.4-0.2,0.6-0.8,0.6-0.9c0-0.1,0-0.2-0.1-0.3l0-0.1c0,0,0-0.1-0.1-0.1l-6.7-6c-0.2-0.2-0.3-0.6,0-0.8
			c0.2-0.2,0.6-0.3,0.8,0l6.7,6c0.1,0.1,0.2,0.2,0.3,0.4l0,0.1c0.2,0.3,0.2,0.6,0.2,0.9c0,0.4-0.3,1.5-1.3,1.9
			C34.4,27,34.1,27.1,33.8,27.1z"/>
		<path fill="#FFFFFF" d="M28.8,18.7c-1.4,0-2.9-0.4-4-1.5c-1.6-1.6-1.7-4-1.4-5.2c0.1-0.3,0.4-0.5,0.7-0.4c0.3,0.1,0.5,0.4,0.4,0.7
			c-0.2,0.8-0.1,2.8,1.1,4.1c1.1,1.1,2.9,1.4,5.2,0.9c0.3-0.1,0.6,0.1,0.7,0.4c0.1,0.3-0.1,0.6-0.4,0.7
			C30.4,18.5,29.6,18.7,28.8,18.7z"/>
		<path fill="#FFFFFF" d="M28.5,31c-0.6,0-1.2-0.2-1.9-0.7c-0.3-0.2-0.3-0.5-0.2-0.8c0.2-0.3,0.5-0.3,0.8-0.2
			c0.6,0.4,1.1,0.6,1.5,0.5c0.3-0.1,0.5-0.4,0.5-0.4c0-0.1,0.2-0.8-0.4-1.2l-4.3-3.4c-0.3-0.2-0.3-0.6-0.1-0.8
			c0.2-0.3,0.6-0.3,0.8-0.1l4.3,3.4c1.1,0.9,1,2.2,0.7,2.7c-0.1,0.2-0.5,0.8-1.3,1C28.9,30.9,28.7,31,28.5,31z"/>
		<path fill="#FFFFFF" d="M26.3,33c-1.4,0-3.3-1.1-5.7-3.2c-0.2-0.2-0.3-0.6-0.1-0.8c0.2-0.2,0.6-0.3,0.8-0.1c3.3,2.9,4.7,3,5.2,2.9
			c0.3-0.1,0.4-0.2,0.5-0.3l0-0.1c0.2-0.3,0-0.7-0.5-1.1l-3.3-2.4c-0.3-0.2-0.3-0.6-0.1-0.8c0.2-0.3,0.6-0.3,0.8-0.1l3.3,2.4
			c1.5,1.2,1,2.3,0.8,2.7c-0.3,0.5-0.7,0.8-1.3,0.9C26.6,33,26.5,33,26.3,33z"/>
		<path fill="#FFFFFF" d="M31.4,29.2c-1.2,0-2.6-1.1-3.8-2c-0.3-0.2-0.3-0.6-0.1-0.8c0.2-0.3,0.6-0.3,0.8-0.1
			c2.7,2.1,3.2,1.9,3.6,1.4c0.3-0.3,0-1.1-0.6-1.7l-4.8-4.1c-0.2-0.2-0.3-0.6-0.1-0.8c0.2-0.2,0.6-0.3,0.8-0.1l4.8,4.1
			c1.1,1,1.5,2.4,0.8,3.3C32.5,29,32,29.2,31.4,29.2z"/>
		<path fill="#FFFFFF" d="M18.8,32.1c-0.7,0-1.4-0.2-2-0.8c-0.8,0.4-1.7,0.3-2.5-0.3c-1-0.7-1.3-1.9-0.7-2.8l0,0l2.3-3.9
			c0.4-0.7,0.9-1.3,1.4-1.7c0.4-0.3,1.4-0.5,2.1,0c0.5,0.4,0.7,1.1,0.6,2c0.3,0,0.6,0,1,0.2c0.9,0.4,1.1,1.6,0.8,2.5L21,30.4
			c-0.2,0.8-0.9,1.5-1.7,1.6C19.1,32,19,32.1,18.8,32.1z M17.7,30.3c0.4,0.6,1.2,0.6,1.4,0.5c0.4-0.1,0.7-0.4,0.8-0.7l0.9-3.2
			c0.1-0.4,0.1-1-0.2-1.1c-0.3-0.1-0.7-0.3-1.1,0.5C19.4,26.4,18.3,28.7,17.7,30.3z M14.6,28.7c-0.3,0.6,0,1.1,0.4,1.3
			c0.4,0.3,1,0.4,1.5,0c0.7-1.7,1.9-4.2,2-4.3l0,0c0-0.1,0.1-0.2,0.2-0.3c0.4-1.2,0.3-1.8,0.1-2c-0.2-0.1-0.6,0-0.7,0
			c-0.4,0.3-0.8,0.7-1.1,1.3L14.6,28.7z"/>
		<path fill="#FFFFFF" d="M10.3,26.8c-1,0-1.6-0.5-1.8-1.1c-0.3-0.7-0.2-1.6,0.3-2.3l1.3-1.8c0.7-1,1.4-1.4,2.2-1.3
			c1.3,0.2,2,1.8,2.1,2c0.1,0.3,0,0.6-0.3,0.8c-0.3,0.1-0.6,0-0.8-0.3c-0.2-0.4-0.7-1.2-1.1-1.3c-0.3,0-0.7,0.3-1.1,0.8l-1.3,1.8
			c-0.3,0.4-0.3,0.8-0.2,1.2c0.2,0.4,0.7,0.5,1.5,0.3c0.3-0.1,0.6,0.1,0.7,0.4c0.1,0.3-0.1,0.6-0.4,0.7
			C10.9,26.8,10.6,26.8,10.3,26.8z"/>
		<path fill="#FFFFFF" d="M12.9,29.2c-1.4,0-2-0.8-2.3-1.3c-0.4-0.8-0.3-1.9,0.3-2.7l2.3-3.1c0.3-0.4,0.8-0.8,1.1-1
			c0.8-0.5,1.9-0.5,2.7,0.2C17.8,22,18,23,17.5,24c-0.1,0.3-0.5,0.4-0.8,0.3c-0.3-0.1-0.4-0.5-0.3-0.8c0.3-0.6,0.2-1-0.1-1.3
			c-0.4-0.3-0.9-0.4-1.3-0.1c-0.3,0.2-0.7,0.5-0.8,0.8l-2.3,3c-0.3,0.4-0.4,1-0.2,1.5c0.3,0.6,1.1,0.8,2.3,0.5
			c0.3-0.1,0.6,0.1,0.7,0.4c0.1,0.3-0.1,0.6-0.4,0.7C13.8,29.1,13.3,29.2,12.9,29.2z"/>
	</g>
	<polygon fill="#FFFFFF" points="21.6,6.7 15.4,12 15,13 15.9,13.8 17.7,13.8 23.2,11.6 23.9,12.3 23.9,14.9 25.7,17 29.3,18.2 
		29.3,19.1 34.5,23.5 43.4,18.7 39.1,8.4 39.1,7.5 31.6,10.3 	"/>
	<polygon fill="#FFFFFF" points="8.9,23.8 11.3,20.9 12.7,20.9 13.2,22.1 15.4,21.4 16.7,21.7 17,22.8 18.6,22.7 19.2,23.4 
		19.2,24.3 19.9,25 20.9,25 21.3,25.7 20.4,30.9 18.9,31.7 17.7,31 15.7,31 14.3,30.3 13.6,28.6 12.2,28.6 11.3,27.6 11,26.3 
		9.2,26.3 8.9,25 	"/>
</g>
</svg>
