<?xml version="1.0" encoding="utf-8"?>
<!-- Generator: Adobe Illustrator 22.1.0, SVG Export Plug-In . SVG Version: 6.00 Build 0)  -->
<svg version="1.1" id="Layer_1" xmlns="http://www.w3.org/2000/svg" xmlns:xlink="http://www.w3.org/1999/xlink" x="0px" y="0px"
	 viewBox="0 0 103 119" enable-background="new 0 0 103 119" xml:space="preserve">
<g id="Page-1_1_">
	<g id="Homepage-V11" transform="translate(-999.000000, -1747.000000)">
		<g id="Group-7" transform="translate(240.000000, 1720.000000)">
			<g id="Service-Hub" transform="translate(660.000000, 0.000000)">
				<g id="Service-Hub-Illustration" transform="translate(99.000000, 30.000000)">
					<g id="Page-1">
						<g id="Group-3" transform="translate(0.000000, 56.693878)">
							<g id="Clip-2">
							</g>
							<defs>
								
									<filter id="Adobe_OpacityMaskFilter" filterUnits="userSpaceOnUse" x="0.00002" y="0.50399" width="103.00013" height="58.45727">
									<feColorMatrix  type="matrix" values="1 0 0 0 0  0 1 0 0 0  0 0 1 0 0  0 0 0 1 0"/>
								</filter>
							</defs>
							<mask maskUnits="userSpaceOnUse" x="0.00002" y="0.50399" width="103.00013" height="58.45727" id="mask-2_1_">
								<g filter="url(#Adobe_OpacityMaskFilter)">
									<polygon id="path-1_1_" fill="#FFFFFF" points="0,0.50399 103,0.50399 103,58.96126 0,58.96126 									"/>
								</g>
							</mask>
							<path id="Fill-1" mask="url(#mask-2_1_)" fill="#F9D28C" fill-opacity="0.25" d="M54.75718,1.27594
								c-1.79156-1.02926-4.72319-1.02926-6.51475,0L1.33752,28.236c-1.79156,1.0299-1.7819,2.69876,0.0206,3.7088
								l46.86436,26.25894c1.8025,1.01004,4.75216,1.01004,6.55531,0l46.86435-26.25894
								c1.80251-1.01003,1.81216-2.67889,0.01996-3.7088L54.75718,1.27594z"/>
						</g>
						
							<polygon id="Stroke-4" fill="none" stroke="#33475C" stroke-width="5" stroke-linecap="round" stroke-linejoin="round" points="
							93.05181,75.13416 89.65796,77.08501 93.05181,79.03587 96.44566,77.08501 						"/>
						
							<polygon id="Stroke-5" fill="none" stroke="#33475C" stroke-width="5" stroke-linecap="round" stroke-linejoin="round" points="
							96.44566,44.75972 93.05181,46.71057 93.05181,79.03548 96.44566,77.08463 						"/>
						
							<polygon id="Stroke-6" fill="none" stroke="#33475C" stroke-width="5" stroke-linecap="round" stroke-linejoin="round" points="
							93.05181,85.44464 89.65796,83.49379 89.65796,57.24446 93.05181,55.29361 						"/>
						
							<polygon id="Stroke-7" fill="none" stroke="#33475C" stroke-width="5" stroke-linecap="round" stroke-linejoin="round" points="
							51.50006,22.82765 6.55473,48.66168 51.50006,74.49507 96.4454,48.66168 						"/>
						
							<polygon id="Stroke-8" fill="none" stroke="#33475C" stroke-width="5" stroke-linecap="round" stroke-linejoin="round" points="
							51.50006,99.01709 48.10621,100.96794 51.50006,102.91879 54.89327,100.96794 						"/>
						
							<polygon id="Stroke-9" fill="none" stroke="#33475C" stroke-width="5" stroke-linecap="round" stroke-linejoin="round" points="
							9.94832,75.13416 6.55447,77.08501 9.94832,79.03587 13.34217,77.08501 						"/>
						
							<polygon id="Stroke-10" fill="none" stroke="#33475C" stroke-width="5" stroke-linecap="round" stroke-linejoin="round" points="
							6.55447,44.75972 9.94832,46.71057 9.94832,79.03548 6.55447,77.08463 						"/>
						
							<polygon id="Stroke-11" fill="none" stroke="#33475C" stroke-width="5" stroke-linecap="round" stroke-linejoin="round" points="
							54.89391,68.64329 54.89391,100.96819 51.50006,102.9184 51.50006,70.5935 						"/>
						
							<polygon id="Stroke-12" fill="none" stroke="#33475C" stroke-width="5" stroke-linecap="round" stroke-linejoin="round" points="
							48.10621,68.64329 51.50006,70.5935 51.50006,102.9184 48.10621,100.96819 						"/>
						
							<polygon id="Stroke-13" fill="none" stroke="#33475C" stroke-width="5" stroke-linecap="round" stroke-linejoin="round" points="
							6.55447,48.66136 51.49981,74.49539 51.49981,109.32744 48.10596,107.37659 48.10596,83.63504 9.94832,61.70271 
							9.94832,85.44489 6.55447,83.49404 						"/>
						
							<polygon id="Stroke-15" fill="none" stroke="#33475C" stroke-width="5" stroke-linecap="round" stroke-linejoin="round" points="
							13.34217,83.49379 9.94832,85.44464 9.94832,48.88477 13.34217,50.83562 						"/>
						
							<polygon id="Stroke-16" fill="none" stroke="#33475C" stroke-width="5" stroke-linecap="round" stroke-linejoin="round" points="
							51.50006,109.32757 51.50006,74.49488 96.4454,48.66149 96.4454,83.49353 93.05155,85.44438 93.05155,55.29335 
							54.89391,77.22633 54.89327,107.37672 						"/>
						
							<polygon id="Stroke-18" fill="none" stroke="#33475C" stroke-width="5" stroke-linecap="round" stroke-linejoin="round" points="
							6.55447,44.75972 51.49981,70.59376 51.49981,74.49481 6.55447,48.66142 						"/>
						
							<polygon id="Stroke-19" fill="none" stroke="#33475C" stroke-width="5" stroke-linecap="round" stroke-linejoin="round" points="
							96.44566,44.75972 96.44566,48.66142 51.50032,74.49481 51.50032,70.59376 						"/>
						
							<polygon id="Stroke-20" fill="none" stroke="#33475C" stroke-width="5" stroke-linecap="round" stroke-linejoin="round" points="
							51.50006,18.92601 6.55473,44.76068 51.50006,70.59344 96.4454,44.76068 						"/>
						<g id="Group-359" transform="translate(2.575000, 0.296088)">
							<path id="Stroke-21" fill="none" stroke="#33475C" stroke-width="5" stroke-linecap="round" stroke-linejoin="round" d="
								M95.48879,47.79636c-0.04893-1.04977-0.14034-2.20208-0.88194-2.94934c-0.48217-0.48451-1.72782-0.953-2.52157-1.40931
								L48.92506,18.62973L4.4001,44.22215c-1.42912,0.57359-1.957,2.64301-2.09154,4.27149
								c-0.63538,7.72201-1.27141,15.44402-1.90679,23.16475c4.12773,0.87929,7.75011,3.26018,11.24116,5.62247
								c11.5566,7.81686,22.94583,14.06035,35.4114,20.34293c0.75898,0.38261,1.55788,0.76586,2.40827,0.75753
								c0.82915-0.01025,1.60229-0.39222,2.33681-0.77483c15.66695-8.16614,28.95008-18.46579,44.78054-26.31405L95.48879,47.79636z
								"/>
							<path id="Stroke-23" fill="none" stroke="#33475C" stroke-width="5" stroke-linecap="round" stroke-linejoin="round" d="
								M46.14233,93.91437l1.96601-22.60974"/>
							<path id="Stroke-25" fill="none" stroke="#33475C" stroke-width="5" stroke-linecap="round" stroke-linejoin="round" d="
								M50.6218,69.3223l41.55149-23.88318"/>
							<path id="Stroke-27" fill="none" stroke="#33475C" stroke-width="5" stroke-linecap="round" stroke-linejoin="round" d="
								M5.67659,45.43938l41.55149,23.88318"/>
							<path id="Stroke-29" fill="none" stroke="#33475C" stroke-width="5" stroke-linecap="round" stroke-linejoin="round" d="
								M3.97947,48.36527l3.39385,22.40274"/>
							<path id="Stroke-31" fill="none" stroke="#33475C" stroke-width="5" stroke-linecap="round" stroke-linejoin="round" d="
								M93.87066,48.36527l-2.06902,22.22585"/>
							<path id="Stroke-33" fill="none" stroke="#33475C" stroke-width="5" stroke-linecap="round" stroke-linejoin="round" d="
								M49.84576,73.34032l2.78164,20.5743"/>
							<path id="Stroke-35" fill="none" stroke="#33475C" stroke-width="5" stroke-linecap="round" stroke-linejoin="round" d="
								M93.87066,44.46428L53.55195,21.28991l-4.62663-2.66031L4.40035,44.22202c-0.00129,0.00064-0.00257,0.00192-0.00386,0.00192
								l-0.41715,0.24033l44.94598,25.83339L93.87066,44.46428z"/>
							<path id="Stroke-37" fill="none" stroke="#33475C" stroke-width="5" stroke-linecap="round" stroke-linejoin="round" d="
								M22.6976,78.11633v-0.94787c0.00064-0.81777,0.66692-1.0972,1.48835-0.62679l1.71752,0.9876
								c0.4075,0.23264,0.79761,0.62486,1.07699,1.08117l0.15643,0.08972c1.37827,0.77996,2.55504,0.47426,2.80804-0.72932
								c-0.17768-0.3057-0.31222-0.62038-0.39526-0.92544c-0.08433-0.31211-0.12939-0.61204-0.13261-0.89082v-2.05019
								c0.00322-0.26596,0.04571-0.50629,0.12682-0.71458c0.12746-0.36146,0.40814-0.57487,0.79053-0.60051
								c-0.00773-0.14676-0.02382-0.29736-0.047-0.45182c-0.49376-3.19225-3.23355-6.7485-6.16519-8.00015
								c-1.13493-0.50886-2.19326-0.61333-3.0179-0.29801c-0.19312,0.08075-0.50599-0.09934-0.69847-0.40248
								c-0.19312-0.30249-0.19248-0.6146,0.00064-0.69536c0.00257-0.00128,0.00515-0.00256,0.00837-0.0032
								c0.97077-0.37684,2.21836-0.25763,3.55736,0.33903c3.46402,1.47724,6.70337,5.68144,7.28339,9.45368
								c0.04184,0.29865,0.06695,0.5909,0.07532,0.87353v0.02948c0.0103,0.22111-0.12103,0.34223-0.32445,0.29993
								c-0.262-0.04999-0.45964,0.05576-0.53174,0.28455c-0.04764,0.13394-0.07081,0.2884-0.06888,0.45823v2.02455
								c0,0.18073,0.02833,0.37684,0.08304,0.58064c0.05343,0.20509,0.15579,0.4185,0.29419,0.61589
								c0.12682,0.17753,0.19377,0.37556,0.17768,0.52937c-0.20664,1.83356-1.85271,2.37383-3.82388,1.25677l-0.39526-0.22687
								c-0.16802-0.09742-0.32445-0.27238-0.41522-0.46529c-0.09077-0.19354-0.24656-0.36979-0.41522-0.46848l-1.71753-0.98696
								c-0.27617-0.16343-0.50341-0.07434-0.50792,0.19739v0.00192v0.94915c0,0.2743,0.22403,0.62614,0.50019,0.78445
								l1.71752,0.9876c0.16802,0.09485,0.32445,0.09805,0.41522,0.00833c0.09077-0.08908,0.24656-0.08395,0.41457,0.01282
								l0.39526,0.22687c2.56341,1.46635,4.68521,0.70754,4.85838-1.73936c0.01352-0.15894,0.11137-0.25059,0.25879-0.24482
								c0.06116,0.00256,0.12038-0.00064,0.17575-0.00897c0.26394-0.01666,0.42809-0.20892,0.43904-0.51527
								c0.00965-0.67549,0.01159-1.39392,0-2.14056c-0.00193-0.2775-0.12939-0.61204-0.3457-0.90941
								c-0.11716-0.16407-0.18282-0.34672-0.17832-0.49541c0.05922-1.88548-0.63731-4.15228-1.94091-6.31655
								c-1.02421-1.75794-2.41213-3.34926-3.94297-4.5208c-2.89559-2.21361-5.33604-2.78592-7.2615-1.70603
								c-0.20858,0.11728-0.40106,0.25764-0.5768,0.41978c-0.15192,0.13907-0.45899,0.02307-0.68624-0.25892
								c-0.2266-0.28135-0.28776-0.6223-0.13647-0.76073c0.19956-0.18393,0.41844-0.34351,0.65469-0.4781
								c2.17201-1.22665,4.92726-0.57231,8.1885,1.92201c1.74392,1.33112,3.3269,3.14097,4.49659,5.14245
								c1.42655,2.36358,2.2145,4.83996,2.20356,6.9318c0.33089,0.5377,0.51757,1.10361,0.52144,1.58427v2.16427
								c-0.01609,0.61076-0.33024,1.00491-0.84396,1.06002l-0.05472,0.00705c-0.3354,2.75836-2.83829,3.55114-5.82079,1.8451
								l-0.15643-0.08908c-0.2781,0.13203-0.66499,0.07434-1.06927-0.15829l-1.71753-0.98696
								C23.3716,79.98257,22.7021,78.93729,22.6976,78.11633z M18.21903,70.77051c-0.52401-0.30122-0.94889-0.96838-0.94889-1.48941
								v-4.46889c0-0.52103,0.42487-0.70049,0.94889-0.39927l8.10353,4.65794c0.52337,0.30058,0.94824,0.96774,0.94824,1.49006
								v4.47785c0,0.52168-0.42488,0.70049-0.94824,0.39928l-3.99447-2.29629c-0.13132-0.07499-0.2575-0.0955-0.3502-0.05704
								l-1.32612,0.55052c-0.01867,0.01089-0.05086-0.00064-0.07661-0.02884c-0.02704-0.02563-0.04442-0.06152-0.04378-0.09036
								V72.5919c0-0.27174-0.22081-0.61909-0.4944-0.77611L18.21903,70.77051z M20.19534,74.29729
								c0.39591,0.39094,0.85168,0.56334,1.15424,0.43516l1.18579-0.49924l3.77688,2.17131
								c1.06927,0.61333,1.9364,0.24931,1.93704-0.81456v-4.46696c-0.00064-1.06515-0.86777-2.42574-1.93704-3.04163
								l-8.10353-4.65794c-1.06927-0.61333-1.93511-0.24802-1.9364,0.81521v4.47849c0.00129,1.06515,0.86713,2.42574,1.9364,3.04163
								l1.32612,0.76266v0.43003C19.53936,73.37891,19.79943,73.9102,20.19534,74.29729z"/>
							<path id="Stroke-39" fill="none" stroke="#33475C" stroke-width="5" stroke-linecap="round" stroke-linejoin="round" d="
								M21.26866,70.12905c0.27295,0.15637,0.4944,0.06409,0.4944-0.20765c0-0.27238-0.22145-0.61974-0.4944-0.77611
								c-0.27295-0.15702-0.4944-0.06409-0.4944,0.20764C20.77426,69.62467,20.99571,69.97203,21.26866,70.12905z"/>
							<path id="Stroke-41" fill="none" stroke="#33475C" stroke-width="5" stroke-linecap="round" stroke-linejoin="round" d="
								M22.76081,70.49454c0,0.26789,0.21501,0.61012,0.4841,0.77034c0.27295,0.15702,0.4944,0.06409,0.4944-0.20764
								s-0.22145-0.61909-0.4944-0.77612c-0.27295-0.15701-0.49376-0.06409-0.49376,0.20765L22.76081,70.49454z"/>
							<path id="Stroke-43" fill="none" stroke="#33475C" stroke-width="5" stroke-linecap="round" stroke-linejoin="round" d="
								M24.74891,71.63737c0,0.26789,0.21501,0.61012,0.4841,0.77035c0.27295,0.15701,0.4944,0.06409,0.4944-0.20765
								s-0.22145-0.61909-0.4944-0.77611c-0.27231-0.15702-0.49376-0.06409-0.49376,0.20764L24.74891,71.63737z"/>
							<path id="Stroke-45" fill="none" stroke="#33475C" stroke-width="5" stroke-linecap="round" stroke-linejoin="round" d="
								M19.77433,68.77845V68.7682c-0.00579-0.2743-0.23111-0.61974-0.50406-0.77162
								c-0.27295-0.15702-0.49376-0.06345-0.49376,0.20764c0,0.27174,0.22081,0.61909,0.49376,0.77612
								c0.27295,0.15701,0.4944,0.06409,0.4944-0.20829L19.77433,68.77845z"/>
							<path id="Stroke-47" fill="none" stroke="#33475C" stroke-width="5" stroke-linecap="round" stroke-linejoin="round" d="
								M72.49423,63.67951c-2.9767,2.48984-4.84679,7.61562-4.16957,11.42632c0.67723,3.81069,3.65006,4.8861,6.62612,2.39626
								c2.9767-2.48855,4.84679-7.61498,4.16957-11.42567C78.44312,62.26572,75.47093,61.19032,72.49423,63.67951z
								 M75.17545,78.76464c-3.52003,2.94422-7.03555,1.67271-7.83637-2.83399c-0.80147-4.50669,1.4111-10.56882,4.93048-13.51303
								c3.52067-2.94358,7.03619-1.67207,7.83701,2.83463S78.69547,75.82042,75.17545,78.76464z"/>
							<path id="Stroke-49" fill="none" stroke="#33475C" stroke-width="5" stroke-linecap="round" stroke-linejoin="round" d="
								M74.61662,74.44938c-1.71753,1.43622-3.29601,0.88441-3.31853,0.87608c-0.11716-0.04358-0.15192-0.24417-0.07725-0.44733
								c0.07403-0.20316,0.23046-0.33262,0.34891-0.28968c0.11395,0.04166,2.81898,0.96966,4.78371-3.42232
								c0.08755-0.19675,0.2472-0.3025,0.35535-0.23521c0.10815,0.06665,0.12489,0.28071,0.03669,0.4781
								C76.0805,72.89523,75.33633,73.84759,74.61662,74.44938z"/>
							<path id="Stroke-51" fill="none" stroke="#33475C" stroke-width="5" stroke-linecap="round" stroke-linejoin="round" d="
								M72.25534,70.61285c-0.12875,0.10831-0.26008,0.06985-0.29806-0.09036c-0.05923-0.24995-0.14806-0.56142-0.30965-0.74728
								c-0.14484-0.16534-0.33668-0.20572-0.51436-0.10574c-0.16479,0.09164-0.31479,0.29801-0.41264,0.45438
								c-0.32123,0.51463-0.5092,1.18179-0.49118,1.74001c0.0058,0.19226-0.10107,0.41209-0.2414,0.49476
								c-0.13969,0.08011-0.2575-0.00961-0.26394-0.20123c-0.02511-0.78124,0.23819-1.71309,0.68752-2.43152
								c0.22531-0.36018,0.46929-0.62038,0.70491-0.75496c0.33153-0.18586,0.67464-0.1301,0.91798,0.14996
								c0.22209,0.25443,0.33475,0.64153,0.40749,0.95043c0.03927,0.16727-0.03734,0.40311-0.17123,0.52809
								C72.26564,70.60388,72.26049,70.60837,72.25534,70.61285z"/>
							<path id="Stroke-53" fill="none" stroke="#33475C" stroke-width="5" stroke-linecap="round" stroke-linejoin="round" d="
								M77.06962,67.10677c-0.12875,0.10767-0.26007,0.06986-0.29805-0.09036c-0.05923-0.24995-0.14806-0.56142-0.30965-0.74663
								c-0.14484-0.16535-0.33733-0.20637-0.515-0.10574c-0.16415,0.091-0.31415,0.298-0.412,0.45438
								c-0.32123,0.51527-0.50985,1.18179-0.49118,1.74c0.00579,0.19227-0.103,0.40824-0.24141,0.49413
								c-0.13969,0.08075-0.2575-0.00897-0.26393-0.2006c-0.02575-0.78123,0.23754-1.71308,0.68752-2.43215
								c0.22467-0.35889,0.46929-0.62166,0.70426-0.75433c0.33218-0.18649,0.67529-0.13074,0.91863,0.14933
								c0.22209,0.25443,0.33411,0.64153,0.40749,0.95043c0.03927,0.16727-0.03734,0.40311-0.17124,0.52808
								C77.07992,67.09779,77.07477,67.10228,77.06962,67.10677z"/>
							<path id="Stroke-55" fill="none" stroke="#33475C" stroke-width="5" stroke-linecap="round" stroke-linejoin="round" d="
								M50.6218,69.3223l41.55149-23.88318"/>
							<path id="Stroke-57" fill="none" stroke="#33475C" stroke-width="5" stroke-linecap="round" stroke-linejoin="round" d="
								M5.67659,45.43938l41.55149,23.88318"/>
							<path id="Stroke-59" fill="none" stroke="#33475C" stroke-width="5" stroke-linecap="round" stroke-linejoin="round" d="
								M95.48879,47.79636c-0.04893-1.04977-0.14034-2.20208-0.88194-2.94934c-0.48217-0.48451-1.72782-0.953-2.52157-1.40931
								L48.92506,18.62973L4.4001,44.22215c-1.42912,0.57359-1.957,2.64301-2.09154,4.27149
								c-0.63538,7.72201-1.27141,15.44402-1.90679,23.16475c4.12773,0.87929,7.75011,3.26018,11.24116,5.62247
								c11.5566,7.81686,22.94583,14.06035,35.4114,20.34293c0.75898,0.38261,1.55788,0.76586,2.40827,0.75753
								c0.82915-0.01025,1.60229-0.39222,2.33681-0.77483c15.66695-8.16614,28.95008-18.46579,44.78054-26.31405L95.48879,47.79636z
								"/>
							<path id="Stroke-61" fill="none" stroke="#33475C" stroke-width="5" stroke-linecap="round" stroke-linejoin="round" d="
								M17.87263,32.42142c0-3.78122,2.69087-5.32767,5.97979-3.43706c3.28892,1.88997,5.98044,6.52997,5.98044,10.31118
								s-2.69152,5.32767-5.98044,3.43706C20.5635,40.84264,17.87263,36.202,17.87263,32.42142z"/>
							<path id="Stroke-63" fill="none" stroke="#33475C" stroke-width="5" stroke-linecap="round" stroke-linejoin="round" d="
								M21.50028,29.70766c-1.80186-1.03567-3.43827-1.12219-4.61826-0.42619l-2.13789,1.26062l0.76671,0.30506
								c-0.32703,0.70177-0.50792,1.57273-0.50792,2.59494c0,4.10806,2.92391,9.1499,6.49737,11.20393
								c0.94889,0.54475,1.85014,0.82482,2.66448,0.86776L23.9813,46.3322l2.13789-1.25998
								c1.16004-0.68446,1.87846-2.12453,1.87846-4.16126C27.99765,36.80289,25.07374,31.7617,21.50028,29.70766z"/>
							<path id="Stroke-65" fill="none" stroke="#33475C" stroke-width="5" stroke-linecap="round" stroke-linejoin="round" d="
								M12.86567,34.70271c0-2.03673,0.71842-3.4768,1.87846-4.16062c1.17999-0.69536,2.81641-0.60948,4.61891,0.42619
								c3.57346,2.05403,6.49737,7.09523,6.49737,11.20329c0,2.03673-0.71843,3.4768-1.87846,4.16062
								c-1.17999,0.696-2.81705,0.61012-4.61891-0.42619C15.78958,43.85197,12.86567,38.81078,12.86567,34.70271z"/>
							<path id="Stroke-67" fill="none" stroke="#33475C" stroke-width="5" stroke-linecap="round" stroke-linejoin="round" d="
								M19.11294,33.79016c-1.26883-0.72932-2.41213-0.74022-3.19429-0.16983l-1.87138,1.36637l0.28196,2.86219l2.21772,4.41569
								l3.8889,2.85257l1.87138-1.36572c0.66178-0.48323,1.06476-1.38303,1.06476-2.61737
								C23.37199,38.44106,21.45554,35.13666,19.11294,33.79016z"/>
							<path id="Stroke-69" fill="none" stroke="#33475C" stroke-width="5" stroke-linecap="round" stroke-linejoin="round" d="
								M12.98289,37.60419c0-1.23434,0.40234-2.13414,1.06412-2.61737c0.78216-0.57103,1.9261-0.55949,3.19493,0.16983
								c2.34196,1.34586,4.25841,4.6509,4.25841,7.34389c0,1.2337-0.40299,2.13414-1.06412,2.61673
								c-0.78216,0.57103-1.9261,0.56013-3.19429-0.16919C14.89934,43.60158,12.98289,40.29654,12.98289,37.60419z"/>
							<path id="Stroke-71" fill="none" stroke="#33475C" stroke-width="5" stroke-linecap="round" stroke-linejoin="round" d="
								M34.9911,23.36394c0-1.57657,0.5562-2.69171,1.45488-3.22108c0.91348-0.53898,2.18038-0.47233,3.57603,0.32941
								c2.76684,1.59068,5.03091,5.49494,5.03091,8.67501c0,1.57722-0.5562,2.69235-1.45423,3.22236
								c-0.91413,0.53898-2.18167,0.47169-3.57668-0.3307C37.25517,30.44891,34.9911,26.54529,34.9911,23.36394z"/>
							<path id="Stroke-73" fill="none" stroke="#33475C" stroke-width="5" stroke-linecap="round" stroke-linejoin="round" d="
								M35.40979,50.21595c-0.25364,0-0.50084-0.12753-0.64182-0.35954c-0.21501-0.35184-0.10171-0.81072,0.25235-1.02477
								c3.10287-1.8733,5.24656-3.90427,6.55402-6.20889c1.56689-2.76028,1.7922-5.97881,0.58839-8.39878
								c-0.18347-0.36915-0.03219-0.81713,0.33926-1.00042c0.37144-0.18265,0.82078-0.03076,1.00425,0.33839
								c1.4214,2.85706,1.18128,6.60944-0.62637,9.79527c-1.43685,2.53277-3.7537,4.74126-7.08189,6.75107
								C35.6763,50.18134,35.5424,50.21595,35.40979,50.21595z"/>
							<path id="Stroke-75" fill="none" stroke="#33475C" stroke-width="5" stroke-linecap="round" stroke-linejoin="round" d="
								M36.18081,46.80754c-0.75126,0.01794-1.40144,0.49797-1.99498,0.95748c-0.52723,0.4076-1.05511,0.81585-1.58234,1.22281
								c-0.45385,0.3512-0.92314,0.72035-1.17678,1.23434c-0.33346,0.67485-0.21437,1.53876,0.26716,2.11812
								c0.48217,0.57872,1.29523,0.85558,2.03747,0.71907c0.70297-0.12882,1.29522-0.58064,1.85851-1.019
								c0.57101-0.44413,1.14201-0.8889,1.71366-1.33368c0.51886-0.40376,1.07893-0.87801,1.1536-1.53043
								C38.58264,48.08097,37.25137,46.78126,36.18081,46.80754z"/>
							<path id="Stroke-77" fill="none" stroke="#33475C" stroke-width="5" stroke-linecap="round" stroke-linejoin="round" d="
								M16.3264,30.63207c-0.31157-0.97735-0.47959-2.11043-0.47959-3.38451c0-6.82926,4.81589-15.13383,10.75642-18.54846
								c2.97026-1.70667,5.65921-1.86882,7.60591-0.74983c1.9467,1.11962,3.15051,3.51845,3.15051,6.93308
								c0,1.27408-0.16802,2.60007-0.4796,3.93567l4.09361,2.35269c0.31158-1.3356,0.4796-2.66159,0.4796-3.93567
								c0-3.41463-1.20381-5.8141-3.15051-6.93308s-4.63564-0.95684-7.60591,0.75047
								c-5.94117,3.41399-10.75706,11.71856-10.75706,18.54782c0,1.27408,0.16866,2.40716,0.47959,3.38451L16.3264,30.63207z"/>
							<path id="Stroke-79" fill="none" stroke="#33475C" stroke-width="5" stroke-linecap="round" stroke-linejoin="round" d="
								M19.66869,33.98044c-0.25493,0-0.51243-0.06473-0.74868-0.19995l-4.09296-2.35269
								c-0.71714-0.41273-0.96305-1.32535-0.54912-2.03929c0.41457-0.71395,1.33127-0.9594,2.04841-0.54667l4.09361,2.35269
								c0.71649,0.41273,0.96241,1.32535,0.54848,2.03929C20.69096,33.71255,20.1869,33.98044,19.66869,33.98044z"/>
							<path id="Stroke-81" fill="none" stroke="#33475C" stroke-width="5" stroke-linecap="round" stroke-linejoin="round" d="
								M40.97218,22.66422c-0.25428,0-0.51178-0.06473-0.74804-0.19995l-4.09361-2.35269
								c-0.71714-0.41273-0.96305-1.32599-0.54912-2.03993c0.41458-0.7133,1.33128-0.95876,2.04841-0.54667l4.09361,2.35332
								c0.71714,0.41209,0.96305,1.32535,0.54912,2.03929C41.99445,22.39633,41.49039,22.66422,40.97218,22.66422z"/>
							<path id="Stroke-83" fill="none" stroke="#33475C" stroke-width="5" stroke-linecap="round" stroke-linejoin="round" d="
								M39.05226,9.00974l-4.09296-2.35333c-2.51577-1.44519-5.74933-1.17859-9.10584,0.75048
								c-4.39295,2.52444-8.33399,7.56884-10.28519,13.16247c-0.23626,0.67677,0.04377,1.42469,0.66692,1.7823l4.09296,2.35269
								c0.23046,0.13266,0.48989,0.2006,0.74997,0.2006c0.17639,0,0.35342-0.0314,0.52337-0.09421
								c0.41844-0.15509,0.74611-0.48835,0.89288-0.90941c1.69886-4.87072,5.21244-9.4069,8.95199-11.55642
								c1.58556-0.91134,3.11317-1.34201,4.41677-1.24524c0.63023,0.04614,1.19866,0.21341,1.68984,0.4954
								c0.71778,0.41273,1.63448,0.16791,2.04841-0.54667C40.01531,10.33445,39.76939,9.42183,39.05226,9.00974z"/>
							<path id="Stroke-85" fill="none" stroke="#33475C" stroke-width="5" stroke-linecap="round" stroke-linejoin="round" d="
								M31.57716,23.81833c0-2.07646,0.73259-3.54537,1.9158-4.24265c1.20317-0.7101,2.87241-0.6223,4.71032,0.43452
								c3.64427,2.09441,6.62612,7.23622,6.62612,11.42568c0,2.07647-0.73259,3.54537-1.9158,4.24265
								c-1.20317,0.70946-2.87305,0.6223-4.71032-0.43452C34.55901,33.1496,31.57716,28.00778,31.57716,23.81833z"/>
							<path id="Stroke-87" fill="none" stroke="#33475C" stroke-width="5" stroke-linecap="round" stroke-linejoin="round" d="
								M35.8561,21.51454c-1.80186-1.03567-3.43891-1.12219-4.61891-0.42619c-0.27102,0.16022-0.51822,0.36082-0.73774,0.60179
								l-1.58105,1.73359l0.50212,0.86583c-0.03863,0.30442-0.0618,0.6223-0.0618,0.9594c0,4.10807,2.92391,9.1499,6.49737,11.20393
								c0.29291,0.16727,0.57938,0.3057,0.86198,0.42491l0.50212,0.86583l2.29948-0.49476
								c0.34376-0.0737,0.66306-0.19803,0.95533-0.36979c1.16004-0.68447,1.87846-2.12453,1.87846-4.16126
								C42.35347,28.60977,39.42956,23.56857,35.8561,21.51454z"/>
							<path id="Stroke-89" fill="none" stroke="#33475C" stroke-width="5" stroke-linecap="round" stroke-linejoin="round" d="
								M27.86832,26.69916c0-1.43622,0.38818-2.55008,1.04996-3.27492c1.08086-1.185,2.89044-1.33432,4.93048-0.16214
								c3.28827,1.89061,5.97979,6.53061,5.97979,10.31182c0,2.34563-1.03644,3.8312-2.60847,4.16959
								c-0.96112,0.20701-2.12309-0.01538-3.37132-0.73253C30.5592,35.12038,27.86832,30.47974,27.86832,26.69916z"/>
							<path id="Stroke-91" fill="none" stroke="#33475C" stroke-width="5" stroke-linecap="round" stroke-linejoin="round" d="
								M30.86704,28.51729c0-1.89253,1.34672-2.66672,2.99279-1.72077c1.64671,0.94659,2.99344,3.26915,2.99344,5.16104
								c0,1.89253-1.34673,2.66672-2.99344,1.72077C32.21376,32.73174,30.86704,30.40918,30.86704,28.51729z"/>
							<path id="Stroke-93" fill="none" stroke="#33475C" stroke-width="5" stroke-linecap="round" stroke-linejoin="round" d="
								M81.00191,16.90755L52.14388,0.32083c-0.60513-0.348-1.15489-0.3794-1.55401-0.14997L48.4951,1.37508
								c-0.39912,0.2288-0.64632,0.71907-0.64632,1.41507v21.31195c0,1.39072,0.99009,3.09867,2.20034,3.79403l2.26342,1.30099
								H52.3119l2.44368,5.41739l2.44368-2.6084l21.70789,12.47673c0.60513,0.348,1.15553,0.38004,1.55401,0.15061l2.09476-1.20358
								c0.39912-0.23008,0.64632-0.71971,0.64632-1.41507v-21.3126C83.20224,19.31086,82.21215,17.60354,81.00191,16.90755z"/>
							<path id="Stroke-95" fill="none" stroke="#33475C" stroke-width="5" stroke-linecap="round" stroke-linejoin="round" d="
								M83.20256,20.70215c0-1.39136-0.99008-3.09867-2.20033-3.79467L52.1442,0.32076
								c-0.60513-0.348-1.15553-0.3794-1.55401-0.14997l-2.09541,1.20422c0.39912-0.23008,0.94953-0.19803,1.55466,0.14997
								L78.90746,18.1117c1.21025,0.696,2.20034,2.40331,2.20034,3.79467v21.3126c0,0.69536-0.24785,1.18499-0.64632,1.41443
								l2.09476-1.20358c0.39848-0.23008,0.64632-0.71972,0.64632-1.41507V20.70215z"/>
							<path id="Stroke-97" fill="none" stroke="#33475C" stroke-width="5" stroke-linecap="round" stroke-linejoin="round" d="
								M81.00191,16.90755L52.14388,0.32083c-0.60513-0.348-1.15489-0.3794-1.55401-0.14997L48.4951,1.37508
								c-0.39912,0.2288-0.64632,0.71907-0.64632,1.41507v21.31195c0,1.39072,0.99009,3.09867,2.20034,3.79403l2.26342,1.30099
								H52.3119l2.44368,5.41739l2.44368-2.6084l21.70789,12.47673c0.60513,0.348,1.15553,0.38004,1.55401,0.15061l2.09476-1.20358
								c0.39912-0.23008,0.64632-0.71971,0.64632-1.41507v-21.3126C83.20224,19.31086,82.21215,17.60354,81.00191,16.90755z"/>
							<path id="Stroke-99" fill="none" stroke="#33475C" stroke-width="5" stroke-linecap="round" stroke-linejoin="round" d="
								M76.248,22.38633L52.64491,8.81946"/>
							<path id="Stroke-101" fill="none" stroke="#33475C" stroke-width="5" stroke-linecap="round" stroke-linejoin="round" d="
								M67.87327,22.39197l-15.22791-8.75255"/>
							<path id="Stroke-103" fill="none" stroke="#33475C" stroke-width="5" stroke-linecap="round" stroke-linejoin="round" d="
								M59.03052,26.94827l-6.38535-3.67034"/>
							<path id="Stroke-105" fill="none" stroke="#33475C" stroke-width="5" stroke-linecap="round" stroke-linejoin="round" d="
								M61.61711,23.61555l-8.97194-5.15719"/>
							<path id="Stroke-107" fill="none" stroke="#33475C" stroke-width="5" stroke-linecap="round" stroke-linejoin="round" d="
								M60.64112,31.00571c0.28389-0.83123,0.78409-1.5817,1.40337-2.20656c0.01159-0.01218,0.02382-0.02371,0.03605-0.03589
								l1.40337-1.39713c2.03875-2.03032,5.13327-2.71735,8.04237-2.3796c2.43402,0.28391,4.3878,0.76393,6.67054,2.12325
								c2.4765,1.47596,4.85452,3.36336,6.37505,5.79487c1.06734,1.70668,1.59586,3.78634,1.55852,5.26935
								c-0.0618,2.46997-0.78409,4.09012-1.83598,5.13797l-1.40337,1.39713c-1.42912,1.4234-3.46788,1.78871-5.28583,1.78807
								c-0.8961,0-2.84473-0.36658-4.23331-0.812c-0.43967,1.63233-0.92056,3.25441-1.46195,4.85662
								c-0.18475,0.5486-0.6637,1.22473-1.18128,0.96132c-0.24334-0.12433-0.34441-0.41145-0.42294-0.67229
								c-0.7004-2.3373-1.3036-4.7028-1.8186-7.08689c-1.18321-0.59217-2.31621-1.27279-3.35458-2.09312
								c-2.40634-1.89766-4.30154-4.58681-4.71483-7.61499C60.27934,33.02257,60.31023,31.97281,60.64112,31.00571z"/>
							<path id="Stroke-109" fill="none" stroke="#33475C" stroke-width="5" stroke-linecap="round" stroke-linejoin="round" d="
								M60.64112,31.00571c0.28389-0.83123,0.78409-1.5817,1.40337-2.20656c0.01159-0.01218,0.02382-0.02371,0.03605-0.03589
								c2.03875-2.03032,5.13391-2.71735,8.04237-2.3796c2.43401,0.28327,4.38779,0.76329,6.67053,2.12325
								c2.47651,1.47532,4.85452,3.36336,6.3757,5.79487c1.06734,1.70667,1.59521,3.78634,1.55852,5.26871
								c-0.0618,2.47061-0.78409,4.09076-1.83662,5.13861c-1.42912,1.4234-3.46788,1.78871-5.28583,1.78807
								c-0.8961,0-2.84473-0.36658-4.23331-0.812c-0.43967,1.63233-0.92056,3.25441-1.46195,4.85662
								c-0.18475,0.5486-0.6637,1.22473-1.18128,0.96132c-0.24334-0.12433-0.34441-0.41145-0.42294-0.67229
								c-0.7004-2.3373-1.3036-4.7028-1.8186-7.08689c-1.18321-0.59217-2.31621-1.27279-3.35458-2.09312
								c-2.40634-1.89766-4.30154-4.58681-4.71483-7.61499C60.27934,33.02257,60.31023,31.97281,60.64112,31.00571z"/>
							<path id="Stroke-111" fill="none" stroke="#33475C" stroke-width="5" stroke-linecap="round" stroke-linejoin="round" d="
								M80.07182,39.86734c0.24398,0.19547-0.02189,0.62999-0.33475,0.63512c-0.3135,0.00513-0.56907-0.2352-0.78666-0.45951
								l-1.62482-1.66886c-0.32317-0.33198-0.91799-0.65178-1.17613-0.26725c-0.08948,0.13394-0.09399,0.31724-0.206,0.43324
								c-0.21823,0.22559-0.59225,0.01025-0.82207-0.2038c-0.45577-0.42299-0.9109-0.84661-1.36668-1.26959
								c-0.26973-0.25058-0.55298-0.50886-0.90704-0.61204c-0.35406-0.10254-0.79954,0.00385-0.96111,0.33326
								c-0.04764,0.09741-0.07597,0.21598-0.16995,0.26853c-0.09335,0.05191-0.20986,0.01666-0.30514-0.03076
								c-0.49955-0.24289-0.82014-0.73573-1.10275-1.21255c-0.28196-0.47682-0.56972-0.98055-1.03901-1.27728
								c-0.46994-0.29673-1.18321-0.29417-1.50123,0.15958c-0.0721,0.10254-0.13197,0.23136-0.25235,0.26597
								c-0.11652,0.03268-0.23497-0.03846-0.33153-0.11087c-0.61478-0.46272-1.08923-1.10873-1.34608-1.83229"/>
							<path id="Stroke-113" fill="none" stroke="#33475C" stroke-width="5" stroke-linecap="round" stroke-linejoin="round" d="
								M78.70288,35.18902c0.07983,0.18521,0.13261,0.38261,0.15643,0.58192c-0.2163,0.13779-0.49505-0.01794-0.69783-0.17496
								c-0.62959-0.48707-1.2154-1.03118-1.74714-1.62208c-0.34505-0.38325-0.84589-0.82802-1.30424-0.58961
								c0.00129,0.29993,0.00194,0.60051,0.00322,0.90172c-0.93472-0.02884-1.52826-0.95684-2.17394-1.63041
								c-0.21437-0.22495-0.48474-0.44157-0.79503-0.42811c-0.31094,0.01282-0.59097,0.39414-0.4017,0.64024
								c-1.06863-0.68446-1.98983-1.5958-2.68508-2.65518"/>
							<path id="Stroke-115" fill="none" stroke="#33475C" stroke-width="5" stroke-linecap="round" stroke-linejoin="round" d="
								M67.06137,38.3421c-0.08176-0.18393-0.13776-0.38004-0.16416-0.57936c0.21437-0.14035,0.49569,0.01154,0.7004,0.16535
								c0.63602,0.47938,1.22828,1.01452,1.76839,1.59901c0.3502,0.37812,0.85683,0.81713,1.31196,0.57231
								c-0.00515-0.30058-0.0103-0.60051-0.01545-0.90108c0.93537,0.01538,1.54114,0.93633,2.19583,1.60157
								c0.21759,0.2211,0.49054,0.43452,0.80083,0.41721c0.31093-0.0173,0.58581-0.40247,0.39268-0.64537
								c1.07829,0.66972,2.01172,1.56889,2.72049,2.61865"/>
							<path id="Stroke-117" fill="none" stroke="#33475C" stroke-width="5" stroke-linecap="round" stroke-linejoin="round" d="
								M83.16889,34.30152c-1.52118-2.43151-3.89854-4.31892-6.37505-5.79487c-2.28274-1.35995-4.23652-1.83934-6.67118-2.12261
								c-2.90846-0.33839-6.00297,0.34864-8.04237,2.37896l1.40338-1.39649c2.03876-2.03032,5.1339-2.71799,8.04237-2.3796
								c2.43402,0.28327,4.3878,0.76329,6.67054,2.12261c2.4765,1.47596,4.85452,3.36336,6.3757,5.79487
								c1.06669,1.70668,1.59521,3.78698,1.55852,5.26935c-0.06245,2.46997-0.78409,4.09076-1.83662,5.13861l-1.40337,1.39649
								c1.05254-1.04784,1.77482-2.668,1.83662-5.13797C84.76475,38.08786,84.23623,36.00819,83.16889,34.30152z"/>
							<path id="Stroke-119" fill="none" stroke="#33475C" stroke-width="5" stroke-linecap="round" stroke-linejoin="round" d="
								M60.64112,31.00571c0.28389-0.83123,0.78409-1.5817,1.40337-2.20656c0.01159-0.01218,0.02382-0.02371,0.03605-0.03589
								l1.40337-1.39713c2.03875-2.03032,5.13327-2.71735,8.04237-2.3796c2.43402,0.28391,4.3878,0.76393,6.67054,2.12325
								c2.4765,1.47596,4.85452,3.36336,6.37505,5.79487c1.06734,1.70668,1.59586,3.78634,1.55852,5.26935
								c-0.0618,2.46997-0.78409,4.09012-1.83598,5.13797l-1.40337,1.39713c-1.42912,1.4234-3.46788,1.78871-5.28583,1.78807
								c-0.8961,0-2.84473-0.36658-4.23331-0.812c-0.43967,1.63233-0.92056,3.25441-1.46195,4.85662
								c-0.18475,0.5486-0.6637,1.22473-1.18128,0.96132c-0.24334-0.12433-0.34441-0.41145-0.42294-0.67229
								c-0.7004-2.3373-1.3036-4.7028-1.8186-7.08689c-1.18321-0.59217-2.31621-1.27279-3.35458-2.09312
								c-2.40634-1.89766-4.30154-4.58681-4.71483-7.61499C60.27934,33.02257,60.31023,31.97281,60.64112,31.00571z"/>
							<path id="Stroke-121" fill="none" stroke="#33475C" stroke-width="5" stroke-linecap="round" stroke-linejoin="round" d="
								M64.92264,39.19576c-0.08691-0.11344-0.18347-0.22687-0.2987-0.30762c-0.02833-0.02051-0.05794-0.03781-0.0882-0.05255
								l-2.03296-1.0126c-0.03347-0.01666-0.06824-0.02948-0.10493-0.04038c-0.24334-0.06665-0.49697,0.0423-0.72551,0.14933
								c-2.54668,1.19333-5.06116,2.45266-7.54025,3.77865c-2.15399,1.15231-4.28158,2.35397-6.3802,3.60369
								c-1.4317,0.85238-3.60822,1.66373-4.34145,3.2448c-0.93795,2.02327-1.37891,4.51182-1.37956,6.71839
								c-0.00064,1.47532,0.49569,4.6573,0.85812,6.11852c0.0618,0.18778,0.17574,0.42811,0.38046,0.57103
								c0.02768,0.01987,0.05665,0.03653,0.08755,0.05191l2.03296,1.01196c0.16995,0.08459,0.39204,0.10446,0.68044,0
								c0.12682-0.06217,0.25364-0.12433,0.37981-0.1865h0.00064c1.62418-0.79854,3.21489-1.57914,4.79787-2.35653
								c0.11716,1.33881,0.06695,2.69236-0.17768,4.0145c-0.02575,0.13715-0.0515,0.28648,0.01223,0.41081
								c0.02575,0.05063,0.05987,0.08972,0.09978,0.11728c0.21888,0.15317,0.618-0.01538,0.85876-0.21726
								c2.19326-1.84382,3.79233-4.32084,4.7174-7.03242c1.37441-0.67485,2.7604-1.35547,4.17665-2.05083
								c0.96176-0.47233,2.13274-1.50992,2.70697-2.21233c0.86842-1.0613,1.41368-2.00725,1.84692-3.15635
								c0.68752-1.82331,1.17613-3.74533,1.16711-5.69233C66.64853,42.7219,66.11422,40.74029,64.92264,39.19576z"/>
							<path id="Stroke-123" fill="none" stroke="#33475C" stroke-width="5" stroke-linecap="round" stroke-linejoin="round" d="
								M62.50259,37.82324c-0.03348-0.01666-0.06824-0.03012-0.10493-0.04037c-0.24334-0.06665-0.49697,0.0423-0.72551,0.14933
								c-2.54667,1.19268-5.06052,2.45266-7.5396,3.77801c-2.15463,1.15231-4.28223,2.35397-6.38085,3.60369
								c-1.4317,0.85302-3.60822,1.66373-4.34145,3.24544c-0.93794,2.02263-1.37827,4.51182-1.37955,6.71775
								c-0.00064,1.47532,0.49633,4.65794,0.85876,6.11852c0.06116,0.18778,0.17574,0.42811,0.38046,0.57167
								c0.02704,0.01923,0.05601,0.03589,0.08691,0.05191l2.03296,1.01196c-0.03025-0.01538-0.05922-0.03268-0.08691-0.05191
								c-0.20471-0.14356-0.3193-0.38389-0.38046-0.57167c-0.05279-0.21341-0.1088-0.46592-0.16544-0.74214
								c-0.33153-1.61439-0.69332-4.1164-0.69332-5.37638c0.00129-2.20592,0.44161-4.69511,1.3802-6.71775
								c0.73323-1.5817,2.90975-2.39242,4.34145-3.24479c2.09798-1.25037,4.22622-2.45202,6.3802-3.60369
								c2.3999-1.28305,4.83456-2.50265,7.29691-3.66073c0.08176-0.03845,0.16158-0.07947,0.24269-0.11792
								c0.22853-0.10703,0.48217-0.21598,0.72615-0.14933c0.03669,0.01025,0.07081,0.02371,0.10429,0.04037L62.50259,37.82324z"/>
							<path id="Stroke-125" fill="none" stroke="#33475C" stroke-width="5" stroke-linecap="round" stroke-linejoin="round" d="
								M52.2378,48.7464c3.43055-1.98802,6.97374-3.7825,10.60772-5.37253"/>
							<path id="Stroke-127" fill="none" stroke="#33475C" stroke-width="5" stroke-linecap="round" stroke-linejoin="round" d="
								M47.6357,51.57347c0.89932-0.58512,1.8083-1.15615,2.72564-1.71372"/>
							<path id="Stroke-129" fill="none" stroke="#33475C" stroke-width="5" stroke-linecap="round" stroke-linejoin="round" d="
								M60.26865,48.08488c0.98623-0.46336,1.98018-0.91134,2.98056-1.34457"/>
							<path id="Stroke-131" fill="none" stroke="#33475C" stroke-width="5" stroke-linecap="round" stroke-linejoin="round" d="
								M47.2123,55.3925c3.35458-2.204,6.83598-4.21637,10.42167-6.02431"/>
							<path id="Stroke-133" fill="none" stroke="#33475C" stroke-width="5" stroke-linecap="round" stroke-linejoin="round" d="
								M54.08891,54.78289c2.59689-1.43558,5.25557-2.76221,7.96576-3.97412"/>
							<path id="Stroke-135" fill="none" stroke="#33475C" stroke-width="5" stroke-linecap="round" stroke-linejoin="round" d="
								M47.49362,58.75022c1.52247-0.99337,3.07133-1.94764,4.64337-2.8609"/>
							<path id="Stroke-137" fill="none" stroke="#33475C" stroke-width="5" stroke-linecap="round" stroke-linejoin="round" d="
								M64.92264,39.19576c-0.08691-0.11344-0.18347-0.22687-0.2987-0.30762c-0.02833-0.02051-0.05794-0.03781-0.0882-0.05255
								l-2.03296-1.0126c-0.03347-0.01666-0.06824-0.02948-0.10493-0.04038c-0.24334-0.06665-0.49697,0.0423-0.72551,0.14933
								c-2.54668,1.19333-5.06116,2.45266-7.54025,3.77865c-2.15399,1.15231-4.28158,2.35397-6.3802,3.60369
								c-1.4317,0.85238-3.60822,1.66373-4.34145,3.2448c-0.93795,2.02327-1.37891,4.51182-1.37956,6.71839
								c-0.00064,1.47532,0.49569,4.6573,0.85812,6.11852c0.0618,0.18778,0.17574,0.42811,0.38046,0.57103
								c0.02768,0.01987,0.05665,0.03653,0.08755,0.05191l2.03296,1.01196c0.16995,0.08459,0.39204,0.10446,0.68044,0
								c0.12682-0.06217,0.25364-0.12433,0.37981-0.1865h0.00064c1.62418-0.79854,3.21489-1.57914,4.79787-2.35653
								c0.11716,1.33881,0.06695,2.69236-0.17768,4.0145c-0.02575,0.13715-0.0515,0.28648,0.01223,0.41081
								c0.02575,0.05063,0.05987,0.08972,0.09978,0.11728c0.21888,0.15317,0.618-0.01538,0.85876-0.21726
								c2.19326-1.84382,3.79233-4.32084,4.7174-7.03242c1.37441-0.67485,2.7604-1.35547,4.17665-2.05083
								c0.96176-0.47233,2.13274-1.50992,2.70697-2.21233c0.86842-1.0613,1.41368-2.00725,1.84692-3.15635
								c0.68752-1.82331,1.17613-3.74533,1.16711-5.69233C66.64853,42.7219,66.11422,40.74029,64.92264,39.19576z"/>
							<polygon id="Stroke-139" fill="none" stroke="#33475C" stroke-linecap="round" stroke-linejoin="round" points="
								90.47681,74.83807 87.08296,76.78893 90.47681,78.73978 93.87066,76.78893 							"/>
							<polygon id="Stroke-141" fill="none" stroke="#33475C" stroke-linecap="round" stroke-linejoin="round" points="
								93.87066,44.46363 90.47681,46.41448 90.47681,78.73939 93.87066,76.78854 							"/>
							<polygon id="Fill-143" fill="#D29B6A" points="90.47681,85.14855 87.08296,83.1977 87.08296,56.94837 90.47681,54.99752 
															"/>
							<polygon id="Stroke-145" fill="none" stroke="#33475C" stroke-linecap="round" stroke-linejoin="round" points="
								90.47681,85.14855 87.08296,83.1977 87.08296,56.94837 90.47681,54.99752 							"/>
							<polygon id="Fill-147" fill="#C78244" points="48.92506,22.53156 3.97973,48.36559 48.92506,74.19898 93.8704,48.36559 
															"/>
							<polygon id="Stroke-149" fill="none" stroke="#33475C" stroke-linecap="round" stroke-linejoin="round" points="
								48.92506,22.53156 3.97973,48.36559 48.92506,74.19898 93.8704,48.36559 							"/>
							<polygon id="Stroke-151" fill="none" stroke="#33475C" stroke-linecap="round" stroke-linejoin="round" points="
								48.92506,98.721 45.53122,100.67185 48.92506,102.6227 52.31827,100.67185 							"/>
							<polygon id="Stroke-153" fill="none" stroke="#33475C" stroke-linecap="round" stroke-linejoin="round" points="
								7.37332,74.83807 3.97947,76.78893 7.37332,78.73978 10.76717,76.78893 							"/>
							<polygon id="Stroke-155" fill="none" stroke="#33475C" stroke-linecap="round" stroke-linejoin="round" points="
								3.97947,44.46363 7.37332,46.41448 7.37332,78.73939 3.97947,76.78854 							"/>
							<polygon id="Stroke-157" fill="none" stroke="#33475C" stroke-linecap="round" stroke-linejoin="round" points="
								52.31891,68.3472 52.31891,100.6721 48.92506,102.62231 48.92506,70.29741 							"/>
							<polygon id="Stroke-159" fill="none" stroke="#33475C" stroke-linecap="round" stroke-linejoin="round" points="
								45.53122,68.3472 48.92506,70.29741 48.92506,102.62231 45.53122,100.6721 							"/>
							<polygon id="Fill-161" fill="#D29B6A" points="3.97947,48.36527 48.92481,74.1993 48.92481,109.03135 45.53096,107.0805 
								45.53096,83.33895 7.37332,61.40662 7.37332,85.1488 3.97947,83.19795 							"/>
							<polygon id="Stroke-163" fill="none" stroke="#33475C" stroke-linecap="round" stroke-linejoin="round" points="
								3.97947,48.36527 48.92481,74.1993 48.92481,109.03135 45.53096,107.0805 45.53096,83.33895 7.37332,61.40662 
								7.37332,85.1488 3.97947,83.19795 							"/>
							<polygon id="Fill-165" fill="#C78244" points="10.76717,83.1977 7.37332,85.14855 7.37332,48.58868 10.76717,50.53954 
															"/>
							<polygon id="Stroke-167" fill="none" stroke="#33475C" stroke-linecap="round" stroke-linejoin="round" points="
								10.76717,83.1977 7.37332,85.14855 7.37332,48.58868 10.76717,50.53954 							"/>
							<polygon id="Fill-169" fill="#C78244" points="48.92506,109.03148 48.92506,74.19879 93.8704,48.3654 93.8704,83.19744 
								90.47655,85.14829 90.47655,54.99726 52.31891,76.93024 52.31827,107.08063 							"/>
							<polygon id="Stroke-171" fill="none" stroke="#33475C" stroke-linecap="round" stroke-linejoin="round" points="
								48.92506,109.03148 48.92506,74.19879 93.8704,48.3654 93.8704,83.19744 90.47655,85.14829 90.47655,54.99726 
								52.31891,76.93024 52.31827,107.08063 							"/>
							<polygon id="Fill-173" fill="#C78244" points="3.97947,44.46363 48.92481,70.29767 48.92481,74.19873 3.97947,48.36533 
															"/>
							<polygon id="Stroke-175" fill="none" stroke="#33475C" stroke-linecap="round" stroke-linejoin="round" points="
								3.97947,44.46363 48.92481,70.29767 48.92481,74.19873 3.97947,48.36533 							"/>
							<polygon id="Fill-177" fill="#C78244" points="93.87066,44.46363 93.87066,48.36533 48.92532,74.19873 48.92532,70.29767 
															"/>
							<polygon id="Stroke-179" fill="none" stroke="#33475C" stroke-linecap="round" stroke-linejoin="round" points="
								93.87066,44.46363 93.87066,48.36533 48.92532,74.19873 48.92532,70.29767 							"/>
							<polygon id="Fill-181" fill="#D29B6A" points="48.92506,18.62992 3.97973,44.4646 48.92506,70.29735 93.8704,44.4646 							
								"/>
							<polygon id="Stroke-183" fill="none" stroke="#33475C" stroke-linecap="round" stroke-linejoin="round" points="
								48.92506,18.62992 3.97973,44.4646 48.92506,70.29735 93.8704,44.4646 							"/>
							<path id="Fill-185" fill="#7BDED2" d="M95.48879,47.79636c-0.04893-1.04977-0.14034-2.20208-0.88194-2.94934
								c-0.48217-0.48451-1.72782-0.953-2.52157-1.40931L48.92506,18.62973L4.4001,44.22215
								c-1.42912,0.57359-1.957,2.64301-2.09154,4.27149c-0.63538,7.72201-1.27141,15.44402-1.90679,23.16475
								c4.12773,0.87929,7.75011,3.26018,11.24116,5.62247c11.5566,7.81686,22.94583,14.06035,35.4114,20.34293
								c0.75898,0.38261,1.55788,0.76586,2.40827,0.75753c0.82915-0.01025,1.60229-0.39222,2.33681-0.77483
								c15.66695-8.16614,28.95008-18.46579,44.78054-26.31405L95.48879,47.79636z"/>
							<path id="Stroke-187" fill="none" stroke="#33475C" stroke-linecap="round" stroke-linejoin="round" d="M95.48879,47.79636
								c-0.04893-1.04977-0.14034-2.20208-0.88194-2.94934c-0.48217-0.48451-1.72782-0.953-2.52157-1.40931L48.92506,18.62973
								L4.4001,44.22215c-1.42912,0.57359-1.957,2.64301-2.09154,4.27149c-0.63538,7.72201-1.27141,15.44402-1.90679,23.16475
								c4.12773,0.87929,7.75011,3.26018,11.24116,5.62247c11.5566,7.81686,22.94583,14.06035,35.4114,20.34293
								c0.75898,0.38261,1.55788,0.76586,2.40827,0.75753c0.82915-0.01025,1.60229-0.39222,2.33681-0.77483
								c15.66695-8.16614,28.95008-18.46579,44.78054-26.31405L95.48879,47.79636z"/>
							<g id="Group-192" transform="translate(45.706250, 71.138122)">
								<path id="Fill-189" fill="#CBD6E3" d="M0.43608,22.77625L2.40209,0.1665"/>
								<path id="Stroke-191" fill="none" stroke="#00BEA5" stroke-linecap="round" stroke-linejoin="round" d="M0.43608,22.77625
									L2.40209,0.1665"/>
							</g>
							<g id="Group-196" transform="translate(50.212500, 44.861878)">
								<path id="Fill-193" fill="#D29B6A" d="M0.4093,24.46043L41.96078,0.57724"/>
								<path id="Stroke-195" fill="none" stroke="#33475C" stroke-linecap="round" stroke-linejoin="round" d="M0.4093,24.46043
									L41.96078,0.57724"/>
							</g>
							<g id="Group-200" transform="translate(5.150000, 44.861878)">
								<path id="Fill-197" fill="#D29B6A" d="M0.52659,0.5775l41.55149,23.88318"/>
								<path id="Stroke-199" fill="none" stroke="#33475C" stroke-linecap="round" stroke-linejoin="round" d="M0.52659,0.5775
									l41.55149,23.88318"/>
							</g>
							<g id="Group-204" transform="translate(3.862500, 48.066298)">
								<path id="Fill-201" fill="#D29B6A" d="M0.11697,0.29897l3.39385,22.40274"/>
								<path id="Stroke-203" fill="none" stroke="#00BEA5" stroke-linecap="round" stroke-linejoin="round" d="M0.11697,0.29897
									l3.39385,22.40274"/>
							</g>
							<g id="Group-208" transform="translate(91.412500, 48.066298)">
								<path id="Fill-205" fill="#D29B6A" d="M2.45816,0.29897L0.38915,22.52483"/>
								<path id="Stroke-207" fill="none" stroke="#00BEA5" stroke-linecap="round" stroke-linejoin="round" d="M2.45816,0.29897
									L0.38915,22.52483"/>
							</g>
							<g id="Group-212" transform="translate(49.568750, 73.060773)">
								<path id="Fill-209" fill="#CBD6E3" d="M0.27701,0.27955l2.78164,20.5743"/>
								<path id="Stroke-211" fill="none" stroke="#00BEA5" stroke-linecap="round" stroke-linejoin="round" d="M0.27701,0.27955
									l2.78164,20.5743"/>
							</g>
							<path id="Fill-213" fill="#BFEDE8" d="M93.87066,44.46428L53.55195,21.28991l-4.62663-2.66031L4.40035,44.22202
								c-0.00129,0.00064-0.00257,0.00192-0.00386,0.00192l-0.41715,0.24033l44.94598,25.83339L93.87066,44.46428z"/>
							<path id="Fill-215" fill="#FFFFFF" d="M22.6976,78.11633v-0.94787c0.00064-0.81777,0.66692-1.0972,1.48835-0.62679
								l1.71752,0.9876c0.4075,0.23264,0.79761,0.62486,1.07699,1.08117l0.15643,0.08972
								c1.37827,0.77996,2.55504,0.47426,2.80804-0.72932c-0.17768-0.3057-0.31222-0.62038-0.39526-0.92544
								c-0.08433-0.31211-0.12939-0.61204-0.13261-0.89082v-2.05019c0.00322-0.26596,0.04571-0.50629,0.12682-0.71458
								c0.12746-0.36146,0.40814-0.57487,0.79053-0.60051c-0.00773-0.14676-0.02382-0.29736-0.047-0.45182
								c-0.49376-3.19225-3.23355-6.7485-6.16519-8.00015c-1.13493-0.50886-2.19326-0.61333-3.0179-0.29801
								c-0.19312,0.08075-0.50599-0.09934-0.69847-0.40248c-0.19312-0.30249-0.19248-0.6146,0.00064-0.69536
								c0.00257-0.00128,0.00515-0.00256,0.00837-0.0032c0.97077-0.37684,2.21836-0.25763,3.55736,0.33903
								c3.46402,1.47724,6.70337,5.68144,7.28339,9.45368c0.04184,0.29865,0.06695,0.5909,0.07532,0.87353v0.02948
								c0.0103,0.22111-0.12103,0.34223-0.32445,0.29993c-0.262-0.04999-0.45964,0.05576-0.53174,0.28455
								c-0.04764,0.13394-0.07081,0.2884-0.06888,0.45823v2.02455c0,0.18073,0.02833,0.37684,0.08304,0.58064
								c0.05343,0.20509,0.15579,0.4185,0.29419,0.61589c0.12682,0.17753,0.19377,0.37556,0.17768,0.52937
								c-0.20664,1.83356-1.85271,2.37383-3.82388,1.25677l-0.39526-0.22687c-0.16802-0.09742-0.32445-0.27238-0.41522-0.46529
								c-0.09077-0.19354-0.24656-0.36979-0.41522-0.46848l-1.71753-0.98696c-0.27617-0.16343-0.50341-0.07434-0.50792,0.19739
								v0.00192v0.94915c0,0.2743,0.22403,0.62614,0.50019,0.78445l1.71752,0.9876c0.16802,0.09485,0.32445,0.09805,0.41522,0.00833
								c0.09077-0.08908,0.24656-0.08395,0.41457,0.01282l0.39526,0.22687c2.56341,1.46635,4.68521,0.70754,4.85838-1.73936
								c0.01352-0.15894,0.11137-0.25059,0.25879-0.24482c0.06116,0.00256,0.12038-0.00064,0.17575-0.00897
								c0.26394-0.01666,0.42809-0.20892,0.43904-0.51527c0.00965-0.67549,0.01159-1.39392,0-2.14056
								c-0.00193-0.2775-0.12939-0.61204-0.3457-0.90941c-0.11716-0.16407-0.18282-0.34672-0.17832-0.49541
								c0.05922-1.88548-0.63731-4.15228-1.94091-6.31655c-1.02421-1.75794-2.41213-3.34926-3.94297-4.5208
								c-2.89559-2.21361-5.33604-2.78592-7.2615-1.70603c-0.20858,0.11728-0.40106,0.25764-0.5768,0.41978
								c-0.15192,0.13907-0.45899,0.02307-0.68624-0.25892c-0.2266-0.28135-0.28776-0.6223-0.13647-0.76073
								c0.19956-0.18393,0.41844-0.34351,0.65469-0.4781c2.17201-1.22665,4.92726-0.57231,8.1885,1.92201
								c1.74392,1.33112,3.3269,3.14097,4.49659,5.14245c1.42655,2.36358,2.2145,4.83996,2.20356,6.9318
								c0.33089,0.5377,0.51757,1.10361,0.52144,1.58427v2.16427c-0.01609,0.61076-0.33024,1.00491-0.84396,1.06002
								l-0.05472,0.00705c-0.3354,2.75836-2.83829,3.55114-5.82079,1.8451l-0.15643-0.08908
								c-0.2781,0.13203-0.66499,0.07434-1.06927-0.15829l-1.71753-0.98696C23.3716,79.98257,22.7021,78.93729,22.6976,78.11633z
								 M18.21903,70.77051c-0.52401-0.30122-0.94889-0.96838-0.94889-1.48941v-4.46889c0-0.52103,0.42487-0.70049,0.94889-0.39927
								l8.10353,4.65794c0.52337,0.30058,0.94824,0.96774,0.94824,1.49006v4.47785c0,0.52168-0.42488,0.70049-0.94824,0.39928
								l-3.99447-2.29629c-0.13132-0.07499-0.2575-0.0955-0.3502-0.05704l-1.32612,0.55052
								c-0.01867,0.01089-0.05086-0.00064-0.07661-0.02884c-0.02704-0.02563-0.04442-0.06152-0.04378-0.09036V72.5919
								c0-0.27174-0.22081-0.61909-0.4944-0.77611L18.21903,70.77051z M20.19534,74.29729
								c0.39591,0.39094,0.85168,0.56334,1.15424,0.43516l1.18579-0.49924l3.77688,2.17131
								c1.06927,0.61333,1.9364,0.24931,1.93704-0.81456v-4.46696c-0.00064-1.06515-0.86777-2.42574-1.93704-3.04163
								l-8.10353-4.65794c-1.06927-0.61333-1.93511-0.24802-1.9364,0.81521v4.47849c0.00129,1.06515,0.86713,2.42574,1.9364,3.04163
								l1.32612,0.76266v0.43003C19.53936,73.37891,19.79943,73.9102,20.19534,74.29729z"/>
							<path id="Fill-217" fill="#FFFFFF" d="M21.26866,70.12905c0.27295,0.15637,0.4944,0.06409,0.4944-0.20765
								c0-0.27238-0.22145-0.61974-0.4944-0.77611c-0.27295-0.15702-0.4944-0.06409-0.4944,0.20764
								C20.77426,69.62467,20.99571,69.97203,21.26866,70.12905"/>
							<path id="Fill-219" fill="#FFFFFF" d="M22.76081,70.49454c0,0.26789,0.21501,0.61012,0.4841,0.77034
								c0.27295,0.15702,0.4944,0.06409,0.4944-0.20764s-0.22145-0.61909-0.4944-0.77612
								c-0.27295-0.15701-0.49376-0.06409-0.49376,0.20765L22.76081,70.49454z"/>
							<path id="Fill-221" fill="#FFFFFF" d="M24.74891,71.63737c0,0.26789,0.21501,0.61012,0.4841,0.77035
								c0.27295,0.15701,0.4944,0.06409,0.4944-0.20765s-0.22145-0.61909-0.4944-0.77611
								c-0.27231-0.15702-0.49376-0.06409-0.49376,0.20764L24.74891,71.63737z"/>
							<path id="Fill-223" fill="#FFFFFF" d="M19.77433,68.77845V68.7682c-0.00579-0.2743-0.23111-0.61974-0.50406-0.77162
								c-0.27295-0.15702-0.49376-0.06345-0.49376,0.20764c0,0.27174,0.22081,0.61909,0.49376,0.77612
								c0.27295,0.15701,0.4944,0.06409,0.4944-0.20829L19.77433,68.77845z"/>
							<path id="Fill-225" fill="#FFFFFF" d="M72.49423,63.67951c-2.9767,2.48984-4.84679,7.61562-4.16957,11.42632
								c0.67723,3.81069,3.65006,4.8861,6.62612,2.39626c2.9767-2.48855,4.84679-7.61498,4.16957-11.42567
								C78.44312,62.26572,75.47093,61.19032,72.49423,63.67951 M75.17545,78.76464
								c-3.52003,2.94422-7.03555,1.67271-7.83637-2.83399c-0.80147-4.50669,1.4111-10.56882,4.93048-13.51303
								c3.52067-2.94358,7.03619-1.67207,7.83701,2.83463S78.69547,75.82042,75.17545,78.76464"/>
							<path id="Fill-227" fill="#FFFFFF" d="M74.61662,74.44938c-1.71753,1.43622-3.29601,0.88441-3.31853,0.87608
								c-0.11716-0.04358-0.15192-0.24417-0.07725-0.44733c0.07403-0.20316,0.23046-0.33262,0.34891-0.28968
								c0.11395,0.04166,2.81898,0.96966,4.78371-3.42232c0.08755-0.19675,0.2472-0.3025,0.35535-0.23521
								c0.10815,0.06665,0.12489,0.28071,0.03669,0.4781C76.0805,72.89523,75.33633,73.84759,74.61662,74.44938"/>
							<path id="Fill-229" fill="#FFFFFF" d="M72.25534,70.61285c-0.12875,0.10831-0.26008,0.06985-0.29806-0.09036
								c-0.05923-0.24995-0.14806-0.56142-0.30965-0.74728c-0.14484-0.16534-0.33668-0.20572-0.51436-0.10574
								c-0.16479,0.09164-0.31479,0.29801-0.41264,0.45438c-0.32123,0.51463-0.5092,1.18179-0.49118,1.74001
								c0.0058,0.19226-0.10107,0.41209-0.2414,0.49476c-0.13969,0.08011-0.2575-0.00961-0.26394-0.20123
								c-0.02511-0.78124,0.23819-1.71309,0.68752-2.43152c0.22531-0.36018,0.46929-0.62038,0.70491-0.75496
								c0.33153-0.18586,0.67464-0.1301,0.91798,0.14996c0.22209,0.25443,0.33475,0.64153,0.40749,0.95043
								c0.03927,0.16727-0.03734,0.40311-0.17123,0.52809C72.26564,70.60388,72.26049,70.60837,72.25534,70.61285"/>
							<path id="Fill-231" fill="#FFFFFF" d="M77.06962,67.10677c-0.12875,0.10767-0.26007,0.06986-0.29805-0.09036
								c-0.05923-0.24995-0.14806-0.56142-0.30965-0.74663c-0.14484-0.16535-0.33733-0.20637-0.515-0.10574
								c-0.16415,0.091-0.31415,0.298-0.412,0.45438c-0.32123,0.51527-0.50985,1.18179-0.49118,1.74
								c0.00579,0.19227-0.103,0.40824-0.24141,0.49413c-0.13969,0.08075-0.2575-0.00897-0.26393-0.2006
								c-0.02575-0.78123,0.23754-1.71308,0.68752-2.43215c0.22467-0.35889,0.46929-0.62166,0.70426-0.75433
								c0.33218-0.18649,0.67529-0.13074,0.91863,0.14933c0.22209,0.25443,0.33411,0.64153,0.40749,0.95043
								c0.03927,0.16727-0.03734,0.40311-0.17124,0.52808C77.07992,67.09779,77.07477,67.10228,77.06962,67.10677"/>
							<g id="Group-236" transform="translate(50.212500, 44.861878)">
								<path id="Fill-233" fill="#D29B6A" d="M0.4093,24.46043L41.96078,0.57724"/>
								<path id="Stroke-235" fill="none" stroke="#00BEA5" stroke-linecap="round" stroke-linejoin="round" d="M0.4093,24.46043
									L41.96078,0.57724"/>
							</g>
							<g id="Group-240" transform="translate(5.150000, 44.861878)">
								<path id="Fill-237" fill="#D29B6A" d="M0.52659,0.5775l41.55149,23.88318"/>
								<path id="Stroke-239" fill="none" stroke="#00BEA5" stroke-linecap="round" stroke-linejoin="round" d="M0.52659,0.5775
									l41.55149,23.88318"/>
							</g>
							<path id="Stroke-241" fill="none" stroke="#33475C" stroke-linecap="round" stroke-linejoin="round" d="M95.48879,47.79636
								c-0.04893-1.04977-0.14034-2.20208-0.88194-2.94934c-0.48217-0.48451-1.72782-0.953-2.52157-1.40931L48.92506,18.62973
								L4.4001,44.22215c-1.42912,0.57359-1.957,2.64301-2.09154,4.27149c-0.63538,7.72201-1.27141,15.44402-1.90679,23.16475
								c4.12773,0.87929,7.75011,3.26018,11.24116,5.62247c11.5566,7.81686,22.94583,14.06035,35.4114,20.34293
								c0.75898,0.38261,1.55788,0.76586,2.40827,0.75753c0.82915-0.01025,1.60229-0.39222,2.33681-0.77483
								c15.66695-8.16614,28.95008-18.46579,44.78054-26.31405L95.48879,47.79636z"/>
							<path id="Fill-243" fill="#506E91" d="M17.87263,32.42142c0-3.78122,2.69087-5.32767,5.97979-3.43706
								c3.28892,1.88997,5.98044,6.52997,5.98044,10.31118s-2.69152,5.32767-5.98044,3.43706
								C20.5635,40.84264,17.87263,36.202,17.87263,32.42142"/>
							<path id="Stroke-245" fill="none" stroke="#33475C" stroke-linecap="round" stroke-linejoin="round" d="M17.87263,32.42142
								c0-3.78122,2.69087-5.32767,5.97979-3.43706c3.28892,1.88997,5.98044,6.52997,5.98044,10.31118
								s-2.69152,5.32767-5.98044,3.43706C20.5635,40.84264,17.87263,36.202,17.87263,32.42142z"/>
							<path id="Fill-247" fill="#40BBCE" d="M21.50028,29.70766c-1.80186-1.03567-3.43827-1.12219-4.61826-0.42619
								l-2.13789,1.26062l0.76671,0.30506c-0.32703,0.70177-0.50792,1.57273-0.50792,2.59494
								c0,4.10806,2.92391,9.1499,6.49737,11.20393c0.94889,0.54475,1.85014,0.82482,2.66448,0.86776L23.9813,46.3322
								l2.13789-1.25998c1.16004-0.68446,1.87846-2.12453,1.87846-4.16126C27.99765,36.80289,25.07374,31.7617,21.50028,29.70766"/>
							<path id="Stroke-249" fill="none" stroke="#33475C" stroke-linecap="round" stroke-linejoin="round" d="M21.50028,29.70766
								c-1.80186-1.03567-3.43827-1.12219-4.61826-0.42619l-2.13789,1.26062l0.76671,0.30506
								c-0.32703,0.70177-0.50792,1.57273-0.50792,2.59494c0,4.10806,2.92391,9.1499,6.49737,11.20393
								c0.94889,0.54475,1.85014,0.82482,2.66448,0.86776L23.9813,46.3322l2.13789-1.25998
								c1.16004-0.68446,1.87846-2.12453,1.87846-4.16126C27.99765,36.80289,25.07374,31.7617,21.50028,29.70766z"/>
							<path id="Fill-251" fill="#7CD1DF" d="M12.86567,34.70271c0-2.03673,0.71842-3.4768,1.87846-4.16062
								c1.17999-0.69536,2.81641-0.60948,4.61891,0.42619c3.57346,2.05403,6.49737,7.09523,6.49737,11.20329
								c0,2.03673-0.71843,3.4768-1.87846,4.16062c-1.17999,0.696-2.81705,0.61012-4.61891-0.42619
								C15.78958,43.85197,12.86567,38.81078,12.86567,34.70271"/>
							<path id="Stroke-253" fill="none" stroke="#33475C" stroke-linecap="round" stroke-linejoin="round" d="M12.86567,34.70271
								c0-2.03673,0.71842-3.4768,1.87846-4.16062c1.17999-0.69536,2.81641-0.60948,4.61891,0.42619
								c3.57346,2.05403,6.49737,7.09523,6.49737,11.20329c0,2.03673-0.71843,3.4768-1.87846,4.16062
								c-1.17999,0.696-2.81705,0.61012-4.61891-0.42619C15.78958,43.85197,12.86567,38.81078,12.86567,34.70271z"/>
							<path id="Fill-255" fill="#506E91" d="M19.11294,33.79016c-1.26883-0.72932-2.41213-0.74022-3.19429-0.16983
								l-1.87138,1.36637l0.28196,2.86219l2.21772,4.41569l3.8889,2.85257l1.87138-1.36572
								c0.66178-0.48323,1.06476-1.38303,1.06476-2.61737C23.37199,38.44106,21.45554,35.13666,19.11294,33.79016"/>
							<path id="Stroke-257" fill="none" stroke="#33475C" stroke-linecap="round" stroke-linejoin="round" d="M19.11294,33.79016
								c-1.26883-0.72932-2.41213-0.74022-3.19429-0.16983l-1.87138,1.36637l0.28196,2.86219l2.21772,4.41569l3.8889,2.85257
								l1.87138-1.36572c0.66178-0.48323,1.06476-1.38303,1.06476-2.61737C23.37199,38.44106,21.45554,35.13666,19.11294,33.79016z"
								/>
							<path id="Fill-259" fill="#40BBCE" d="M12.98289,37.60419c0-1.23434,0.40234-2.13414,1.06412-2.61737
								c0.78216-0.57103,1.9261-0.55949,3.19493,0.16983c2.34196,1.34586,4.25841,4.6509,4.25841,7.34389
								c0,1.2337-0.40299,2.13414-1.06412,2.61673c-0.78216,0.57103-1.9261,0.56013-3.19429-0.16919
								C14.89934,43.60158,12.98289,40.29654,12.98289,37.60419"/>
							<path id="Stroke-261" fill="none" stroke="#33475C" stroke-linecap="round" stroke-linejoin="round" d="M12.98289,37.60419
								c0-1.23434,0.40234-2.13414,1.06412-2.61737c0.78216-0.57103,1.9261-0.55949,3.19493,0.16983
								c2.34196,1.34586,4.25841,4.6509,4.25841,7.34389c0,1.2337-0.40299,2.13414-1.06412,2.61673
								c-0.78216,0.57103-1.9261,0.56013-3.19429-0.16919C14.89934,43.60158,12.98289,40.29654,12.98289,37.60419z"/>
							<path id="Fill-263" fill="#7CD1DF" d="M34.9911,23.36394c0-1.57657,0.5562-2.69171,1.45488-3.22108
								c0.91348-0.53898,2.18038-0.47233,3.57603,0.32941c2.76684,1.59068,5.03091,5.49494,5.03091,8.67501
								c0,1.57722-0.5562,2.69235-1.45423,3.22236c-0.91413,0.53898-2.18167,0.47169-3.57668-0.3307
								C37.25517,30.44891,34.9911,26.54529,34.9911,23.36394"/>
							<path id="Stroke-265" fill="none" stroke="#33475C" stroke-linecap="round" stroke-linejoin="round" d="M34.9911,23.36394
								c0-1.57657,0.5562-2.69171,1.45488-3.22108c0.91348-0.53898,2.18038-0.47233,3.57603,0.32941
								c2.76684,1.59068,5.03091,5.49494,5.03091,8.67501c0,1.57722-0.5562,2.69235-1.45423,3.22236
								c-0.91413,0.53898-2.18167,0.47169-3.57668-0.3307C37.25517,30.44891,34.9911,26.54529,34.9911,23.36394z"/>
							<path id="Fill-267" fill="#506E91" d="M35.40979,50.21595c-0.25364,0-0.50084-0.12753-0.64182-0.35954
								c-0.21501-0.35184-0.10171-0.81072,0.25235-1.02477c3.10287-1.8733,5.24656-3.90427,6.55402-6.20889
								c1.56689-2.76028,1.7922-5.97881,0.58839-8.39878c-0.18347-0.36915-0.03219-0.81713,0.33926-1.00042
								c0.37144-0.18265,0.82078-0.03076,1.00425,0.33839c1.4214,2.85706,1.18128,6.60944-0.62637,9.79527
								c-1.43685,2.53277-3.7537,4.74126-7.08189,6.75107C35.6763,50.18134,35.5424,50.21595,35.40979,50.21595"/>
							<path id="Stroke-269" fill="none" stroke="#33475C" stroke-linecap="round" stroke-linejoin="round" d="M35.40979,50.21595
								c-0.25364,0-0.50084-0.12753-0.64182-0.35954c-0.21501-0.35184-0.10171-0.81072,0.25235-1.02477
								c3.10287-1.8733,5.24656-3.90427,6.55402-6.20889c1.56689-2.76028,1.7922-5.97881,0.58839-8.39878
								c-0.18347-0.36915-0.03219-0.81713,0.33926-1.00042c0.37144-0.18265,0.82078-0.03076,1.00425,0.33839
								c1.4214,2.85706,1.18128,6.60944-0.62637,9.79527c-1.43685,2.53277-3.7537,4.74126-7.08189,6.75107
								C35.6763,50.18134,35.5424,50.21595,35.40979,50.21595z"/>
							<path id="Fill-271" fill="#506E91" d="M36.18081,46.80754c-0.75126,0.01794-1.40144,0.49797-1.99498,0.95748
								c-0.52723,0.4076-1.05511,0.81585-1.58234,1.22281c-0.45385,0.3512-0.92314,0.72035-1.17678,1.23434
								c-0.33346,0.67485-0.21437,1.53876,0.26716,2.11812c0.48217,0.57872,1.29523,0.85558,2.03747,0.71907
								c0.70297-0.12882,1.29522-0.58064,1.85851-1.019c0.57101-0.44413,1.14201-0.8889,1.71366-1.33368
								c0.51886-0.40376,1.07893-0.87801,1.1536-1.53043C38.58264,48.08097,37.25137,46.78126,36.18081,46.80754"/>
							<path id="Stroke-273" fill="none" stroke="#33475C" stroke-linecap="round" stroke-linejoin="round" d="M36.18081,46.80754
								c-0.75126,0.01794-1.40144,0.49797-1.99498,0.95748c-0.52723,0.4076-1.05511,0.81585-1.58234,1.22281
								c-0.45385,0.3512-0.92314,0.72035-1.17678,1.23434c-0.33346,0.67485-0.21437,1.53876,0.26716,2.11812
								c0.48217,0.57872,1.29523,0.85558,2.03747,0.71907c0.70297-0.12882,1.29522-0.58064,1.85851-1.019
								c0.57101-0.44413,1.14201-0.8889,1.71366-1.33368c0.51886-0.40376,1.07893-0.87801,1.1536-1.53043
								C38.58264,48.08097,37.25137,46.78126,36.18081,46.80754z"/>
							<path id="Fill-275" fill="#506E91" d="M16.3264,30.63207c-0.31157-0.97735-0.47959-2.11043-0.47959-3.38451
								c0-6.82926,4.81589-15.13383,10.75642-18.54846c2.97026-1.70667,5.65921-1.86882,7.60591-0.74983
								c1.9467,1.11962,3.15051,3.51845,3.15051,6.93308c0,1.27408-0.16802,2.60007-0.4796,3.93567l4.09361,2.35269
								c0.31158-1.3356,0.4796-2.66159,0.4796-3.93567c0-3.41463-1.20381-5.8141-3.15051-6.93308s-4.63564-0.95684-7.60591,0.75047
								c-5.94117,3.41399-10.75706,11.71856-10.75706,18.54782c0,1.27408,0.16866,2.40716,0.47959,3.38451L16.3264,30.63207z"/>
							<path id="Stroke-277" fill="none" stroke="#33475C" stroke-linecap="round" stroke-linejoin="round" d="M16.3264,30.63207
								c-0.31157-0.97735-0.47959-2.11043-0.47959-3.38451c0-6.82926,4.81589-15.13383,10.75642-18.54846
								c2.97026-1.70667,5.65921-1.86882,7.60591-0.74983c1.9467,1.11962,3.15051,3.51845,3.15051,6.93308
								c0,1.27408-0.16802,2.60007-0.4796,3.93567l4.09361,2.35269c0.31158-1.3356,0.4796-2.66159,0.4796-3.93567
								c0-3.41463-1.20381-5.8141-3.15051-6.93308s-4.63564-0.95684-7.60591,0.75047
								c-5.94117,3.41399-10.75706,11.71856-10.75706,18.54782c0,1.27408,0.16866,2.40716,0.47959,3.38451L16.3264,30.63207z"/>
							<path id="Fill-279" fill="#40BBCE" d="M19.66869,33.98044c-0.25493,0-0.51243-0.06473-0.74868-0.19995l-4.09296-2.35269
								c-0.71714-0.41273-0.96305-1.32535-0.54912-2.03929c0.41457-0.71395,1.33127-0.9594,2.04841-0.54667l4.09361,2.35269
								c0.71649,0.41273,0.96241,1.32535,0.54848,2.03929C20.69096,33.71255,20.1869,33.98044,19.66869,33.98044"/>
							<path id="Stroke-281" fill="none" stroke="#33475C" stroke-linecap="round" stroke-linejoin="round" d="M19.66869,33.98044
								c-0.25493,0-0.51243-0.06473-0.74868-0.19995l-4.09296-2.35269c-0.71714-0.41273-0.96305-1.32535-0.54912-2.03929
								c0.41457-0.71395,1.33127-0.9594,2.04841-0.54667l4.09361,2.35269c0.71649,0.41273,0.96241,1.32535,0.54848,2.03929
								C20.69096,33.71255,20.1869,33.98044,19.66869,33.98044z"/>
							<path id="Fill-283" fill="#40BBCE" d="M40.97218,22.66422c-0.25428,0-0.51178-0.06473-0.74804-0.19995l-4.09361-2.35269
								c-0.71714-0.41273-0.96305-1.32599-0.54912-2.03993c0.41458-0.7133,1.33128-0.95876,2.04841-0.54667l4.09361,2.35332
								c0.71714,0.41209,0.96305,1.32535,0.54912,2.03929C41.99445,22.39633,41.49039,22.66422,40.97218,22.66422"/>
							<path id="Stroke-285" fill="none" stroke="#33475C" stroke-linecap="round" stroke-linejoin="round" d="M40.97218,22.66422
								c-0.25428,0-0.51178-0.06473-0.74804-0.19995l-4.09361-2.35269c-0.71714-0.41273-0.96305-1.32599-0.54912-2.03993
								c0.41458-0.7133,1.33128-0.95876,2.04841-0.54667l4.09361,2.35332c0.71714,0.41209,0.96305,1.32535,0.54912,2.03929
								C41.99445,22.39633,41.49039,22.66422,40.97218,22.66422z"/>
							<path id="Fill-287" fill="#40BBCE" d="M39.05226,9.00974l-4.09296-2.35333c-2.51577-1.44519-5.74933-1.17859-9.10584,0.75048
								c-4.39295,2.52444-8.33399,7.56884-10.28519,13.16247c-0.23626,0.67677,0.04377,1.42469,0.66692,1.7823l4.09296,2.35269
								c0.23046,0.13266,0.48989,0.2006,0.74997,0.2006c0.17639,0,0.35342-0.0314,0.52337-0.09421
								c0.41844-0.15509,0.74611-0.48835,0.89288-0.90941c1.69886-4.87072,5.21244-9.4069,8.95199-11.55642
								c1.58556-0.91134,3.11317-1.34201,4.41677-1.24524c0.63023,0.04614,1.19866,0.21341,1.68984,0.4954
								c0.71778,0.41273,1.63448,0.16791,2.04841-0.54667C40.01531,10.33445,39.76939,9.42183,39.05226,9.00974"/>
							<path id="Stroke-289" fill="none" stroke="#33475C" stroke-linecap="round" stroke-linejoin="round" d="M39.05226,9.00974
								l-4.09296-2.35333c-2.51577-1.44519-5.74933-1.17859-9.10584,0.75048c-4.39295,2.52444-8.33399,7.56884-10.28519,13.16247
								c-0.23626,0.67677,0.04377,1.42469,0.66692,1.7823l4.09296,2.35269c0.23046,0.13266,0.48989,0.2006,0.74997,0.2006
								c0.17639,0,0.35342-0.0314,0.52337-0.09421c0.41844-0.15509,0.74611-0.48835,0.89288-0.90941
								c1.69886-4.87072,5.21244-9.4069,8.95199-11.55642c1.58556-0.91134,3.11317-1.34201,4.41677-1.24524
								c0.63023,0.04614,1.19866,0.21341,1.68984,0.4954c0.71778,0.41273,1.63448,0.16791,2.04841-0.54667
								C40.01531,10.33445,39.76939,9.42183,39.05226,9.00974z"/>
							<path id="Fill-291" fill="#40BBCE" d="M31.57716,23.81833c0-2.07646,0.73259-3.54537,1.9158-4.24265
								c1.20317-0.7101,2.87241-0.6223,4.71032,0.43452c3.64427,2.09441,6.62612,7.23622,6.62612,11.42568
								c0,2.07647-0.73259,3.54537-1.9158,4.24265c-1.20317,0.70946-2.87305,0.6223-4.71032-0.43452
								C34.55901,33.1496,31.57716,28.00778,31.57716,23.81833"/>
							<path id="Stroke-293" fill="none" stroke="#33475C" stroke-linecap="round" stroke-linejoin="round" d="M31.57716,23.81833
								c0-2.07646,0.73259-3.54537,1.9158-4.24265c1.20317-0.7101,2.87241-0.6223,4.71032,0.43452
								c3.64427,2.09441,6.62612,7.23622,6.62612,11.42568c0,2.07647-0.73259,3.54537-1.9158,4.24265
								c-1.20317,0.70946-2.87305,0.6223-4.71032-0.43452C34.55901,33.1496,31.57716,28.00778,31.57716,23.81833z"/>
							<path id="Fill-295" fill="#506E91" d="M35.8561,21.51454c-1.80186-1.03567-3.43891-1.12219-4.61891-0.42619
								c-0.27102,0.16022-0.51822,0.36082-0.73774,0.60179l-1.58105,1.73359l0.50212,0.86583
								c-0.03863,0.30442-0.0618,0.6223-0.0618,0.9594c0,4.10807,2.92391,9.1499,6.49737,11.20393
								c0.29291,0.16727,0.57938,0.3057,0.86198,0.42491l0.50212,0.86583l2.29948-0.49476
								c0.34376-0.0737,0.66306-0.19803,0.95533-0.36979c1.16004-0.68447,1.87846-2.12453,1.87846-4.16126
								C42.35347,28.60977,39.42956,23.56857,35.8561,21.51454"/>
							<path id="Stroke-297" fill="none" stroke="#33475C" stroke-linecap="round" stroke-linejoin="round" d="M35.8561,21.51454
								c-1.80186-1.03567-3.43891-1.12219-4.61891-0.42619c-0.27102,0.16022-0.51822,0.36082-0.73774,0.60179l-1.58105,1.73359
								l0.50212,0.86583c-0.03863,0.30442-0.0618,0.6223-0.0618,0.9594c0,4.10807,2.92391,9.1499,6.49737,11.20393
								c0.29291,0.16727,0.57938,0.3057,0.86198,0.42491l0.50212,0.86583l2.29948-0.49476
								c0.34376-0.0737,0.66306-0.19803,0.95533-0.36979c1.16004-0.68447,1.87846-2.12453,1.87846-4.16126
								C42.35347,28.60977,39.42956,23.56857,35.8561,21.51454z"/>
							<path id="Fill-299" fill="#7B97B7" d="M27.86832,26.69916c0-1.43622,0.38818-2.55008,1.04996-3.27492
								c1.08086-1.185,2.89044-1.33432,4.93048-0.16214c3.28827,1.89061,5.97979,6.53061,5.97979,10.31182
								c0,2.34563-1.03644,3.8312-2.60847,4.16959c-0.96112,0.20701-2.12309-0.01538-3.37132-0.73253
								C30.5592,35.12038,27.86832,30.47974,27.86832,26.69916"/>
							<path id="Stroke-301" fill="none" stroke="#33475C" stroke-linecap="round" stroke-linejoin="round" d="M27.86832,26.69916
								c0-1.43622,0.38818-2.55008,1.04996-3.27492c1.08086-1.185,2.89044-1.33432,4.93048-0.16214
								c3.28827,1.89061,5.97979,6.53061,5.97979,10.31182c0,2.34563-1.03644,3.8312-2.60847,4.16959
								c-0.96112,0.20701-2.12309-0.01538-3.37132-0.73253C30.5592,35.12038,27.86832,30.47974,27.86832,26.69916z"/>
							<path id="Fill-303" fill="#506E91" d="M30.86704,28.51729c0-1.89253,1.34672-2.66672,2.99279-1.72077
								c1.64671,0.94659,2.99344,3.26915,2.99344,5.16104c0,1.89253-1.34673,2.66672-2.99344,1.72077
								C32.21376,32.73174,30.86704,30.40918,30.86704,28.51729"/>
							<path id="Stroke-305" fill="none" stroke="#33475C" stroke-linecap="round" stroke-linejoin="round" d="M30.86704,28.51729
								c0-1.89253,1.34672-2.66672,2.99279-1.72077c1.64671,0.94659,2.99344,3.26915,2.99344,5.16104
								c0,1.89253-1.34673,2.66672-2.99344,1.72077C32.21376,32.73174,30.86704,30.40918,30.86704,28.51729z"/>
							<path id="Fill-307" fill="#FDEDF2" d="M81.00191,16.90755L52.14388,0.32083c-0.60513-0.348-1.15489-0.3794-1.55401-0.14997
								L48.4951,1.37508c-0.39912,0.2288-0.64632,0.71907-0.64632,1.41507v21.31195c0,1.39072,0.99009,3.09867,2.20034,3.79403
								l2.26342,1.30099H52.3119l2.44368,5.41739l2.44368-2.6084l21.70789,12.47673c0.60513,0.348,1.15553,0.38004,1.55401,0.15061
								l2.09476-1.20358c0.39912-0.23008,0.64632-0.71971,0.64632-1.41507v-21.3126
								C83.20224,19.31086,82.21215,17.60354,81.00191,16.90755"/>
							<path id="Stroke-309" fill="none" stroke="#33475C" stroke-linecap="round" stroke-linejoin="round" d="M81.00191,16.90755
								L52.14388,0.32083c-0.60513-0.348-1.15489-0.3794-1.55401-0.14997L48.4951,1.37508
								c-0.39912,0.2288-0.64632,0.71907-0.64632,1.41507v21.31195c0,1.39072,0.99009,3.09867,2.20034,3.79403l2.26342,1.30099
								H52.3119l2.44368,5.41739l2.44368-2.6084l21.70789,12.47673c0.60513,0.348,1.15553,0.38004,1.55401,0.15061l2.09476-1.20358
								c0.39912-0.23008,0.64632-0.71971,0.64632-1.41507v-21.3126C83.20224,19.31086,82.21215,17.60354,81.00191,16.90755z"/>
							<path id="Fill-311" fill="#FBA9BE" d="M83.20256,20.70215c0-1.39136-0.99008-3.09867-2.20033-3.79467L52.1442,0.32076
								c-0.60513-0.348-1.15553-0.3794-1.55401-0.14997l-2.09541,1.20422c0.39912-0.23008,0.94953-0.19803,1.55466,0.14997
								L78.90746,18.1117c1.21025,0.696,2.20034,2.40331,2.20034,3.79467v21.3126c0,0.69536-0.24785,1.18499-0.64632,1.41443
								l2.09476-1.20358c0.39848-0.23008,0.64632-0.71972,0.64632-1.41507V20.70215z"/>
							<path id="Stroke-313" fill="none" stroke="#33475C" stroke-linecap="round" stroke-linejoin="round" d="M81.00191,16.90755
								L52.14388,0.32083c-0.60513-0.348-1.15489-0.3794-1.55401-0.14997L48.4951,1.37508
								c-0.39912,0.2288-0.64632,0.71907-0.64632,1.41507v21.31195c0,1.39072,0.99009,3.09867,2.20034,3.79403l2.26342,1.30099
								H52.3119l2.44368,5.41739l2.44368-2.6084l21.70789,12.47673c0.60513,0.348,1.15553,0.38004,1.55401,0.15061l2.09476-1.20358
								c0.39912-0.23008,0.64632-0.71971,0.64632-1.41507v-21.3126C83.20224,19.31086,82.21215,17.60354,81.00191,16.90755z"/>
							<path id="Stroke-315" fill="none" stroke="#FBA9BE" stroke-width="2" stroke-linecap="round" d="M76.248,22.38633
								L52.64491,8.81946"/>
							<path id="Stroke-317" fill="none" stroke="#FBA9BE" stroke-width="2" stroke-linecap="round" d="M67.87327,22.39197
								l-15.22791-8.75255"/>
							<path id="Stroke-319" fill="none" stroke="#FBA9BE" stroke-width="2" stroke-linecap="round" d="M59.03052,26.94827
								l-6.38535-3.67034"/>
							<path id="Stroke-321" fill="none" stroke="#FBA9BE" stroke-width="2" stroke-linecap="round" d="M61.61711,23.61555
								l-8.97194-5.15719"/>
							<path id="Fill-323" fill="#FFE2D4" d="M60.64112,31.00571c0.28389-0.83123,0.78409-1.5817,1.40337-2.20656
								c0.01159-0.01218,0.02382-0.02371,0.03605-0.03589l1.40337-1.39713c2.03875-2.03032,5.13327-2.71735,8.04237-2.3796
								c2.43402,0.28391,4.3878,0.76393,6.67054,2.12325c2.4765,1.47596,4.85452,3.36336,6.37505,5.79487
								c1.06734,1.70668,1.59586,3.78634,1.55852,5.26935c-0.0618,2.46997-0.78409,4.09012-1.83598,5.13797l-1.40337,1.39713
								c-1.42912,1.4234-3.46788,1.78871-5.28583,1.78807c-0.8961,0-2.84473-0.36658-4.23331-0.812
								c-0.43967,1.63233-0.92056,3.25441-1.46195,4.85662c-0.18475,0.5486-0.6637,1.22473-1.18128,0.96132
								c-0.24334-0.12433-0.34441-0.41145-0.42294-0.67229c-0.7004-2.3373-1.3036-4.7028-1.8186-7.08689
								c-1.18321-0.59217-2.31621-1.27279-3.35458-2.09312c-2.40634-1.89766-4.30154-4.58681-4.71483-7.61499
								C60.27934,33.02257,60.31023,31.97281,60.64112,31.00571"/>
							<path id="Stroke-325" fill="none" stroke="#33475C" stroke-linecap="round" stroke-linejoin="round" d="M60.64112,31.00571
								c0.28389-0.83123,0.78409-1.5817,1.40337-2.20656c0.01159-0.01218,0.02382-0.02371,0.03605-0.03589l1.40337-1.39713
								c2.03875-2.03032,5.13327-2.71735,8.04237-2.3796c2.43402,0.28391,4.3878,0.76393,6.67054,2.12325
								c2.4765,1.47596,4.85452,3.36336,6.37505,5.79487c1.06734,1.70668,1.59586,3.78634,1.55852,5.26935
								c-0.0618,2.46997-0.78409,4.09012-1.83598,5.13797l-1.40337,1.39713c-1.42912,1.4234-3.46788,1.78871-5.28583,1.78807
								c-0.8961,0-2.84473-0.36658-4.23331-0.812c-0.43967,1.63233-0.92056,3.25441-1.46195,4.85662
								c-0.18475,0.5486-0.6637,1.22473-1.18128,0.96132c-0.24334-0.12433-0.34441-0.41145-0.42294-0.67229
								c-0.7004-2.3373-1.3036-4.7028-1.8186-7.08689c-1.18321-0.59217-2.31621-1.27279-3.35458-2.09312
								c-2.40634-1.89766-4.30154-4.58681-4.71483-7.61499C60.27934,33.02257,60.31023,31.97281,60.64112,31.00571z"/>
							<path id="Fill-327" fill="#FFE2D4" d="M60.64112,31.00571c0.28389-0.83123,0.78409-1.5817,1.40337-2.20656
								c0.01159-0.01218,0.02382-0.02371,0.03605-0.03589c2.03875-2.03032,5.13391-2.71735,8.04237-2.3796
								c2.43401,0.28327,4.38779,0.76329,6.67053,2.12325c2.47651,1.47532,4.85452,3.36336,6.3757,5.79487
								c1.06734,1.70667,1.59521,3.78634,1.55852,5.26871c-0.0618,2.47061-0.78409,4.09076-1.83662,5.13861
								c-1.42912,1.4234-3.46788,1.78871-5.28583,1.78807c-0.8961,0-2.84473-0.36658-4.23331-0.812
								c-0.43967,1.63233-0.92056,3.25441-1.46195,4.85662c-0.18475,0.5486-0.6637,1.22473-1.18128,0.96132
								c-0.24334-0.12433-0.34441-0.41145-0.42294-0.67229c-0.7004-2.3373-1.3036-4.7028-1.8186-7.08689
								c-1.18321-0.59217-2.31621-1.27279-3.35458-2.09312c-2.40634-1.89766-4.30154-4.58681-4.71483-7.61499
								C60.27934,33.02257,60.31023,31.97281,60.64112,31.00571"/>
							<path id="Stroke-329" fill="none" stroke="#FFA472" stroke-width="2" stroke-linecap="round" stroke-linejoin="round" d="
								M80.07182,39.86734c0.24398,0.19547-0.02189,0.62999-0.33475,0.63512c-0.3135,0.00513-0.56907-0.2352-0.78666-0.45951
								l-1.62482-1.66886c-0.32317-0.33198-0.91799-0.65178-1.17613-0.26725c-0.08948,0.13394-0.09399,0.31724-0.206,0.43324
								c-0.21823,0.22559-0.59225,0.01025-0.82207-0.2038c-0.45577-0.42299-0.9109-0.84661-1.36668-1.26959
								c-0.26973-0.25058-0.55298-0.50886-0.90704-0.61204c-0.35406-0.10254-0.79954,0.00385-0.96111,0.33326
								c-0.04764,0.09741-0.07597,0.21598-0.16995,0.26853c-0.09335,0.05191-0.20986,0.01666-0.30514-0.03076
								c-0.49955-0.24289-0.82014-0.73573-1.10275-1.21255c-0.28196-0.47682-0.56972-0.98055-1.03901-1.27728
								c-0.46994-0.29673-1.18321-0.29417-1.50123,0.15958c-0.0721,0.10254-0.13197,0.23136-0.25235,0.26597
								c-0.11652,0.03268-0.23497-0.03846-0.33153-0.11087c-0.61478-0.46272-1.08923-1.10873-1.34608-1.83229"/>
							<path id="Stroke-331" fill="none" stroke="#FFA472" stroke-width="2" stroke-linecap="round" stroke-linejoin="round" d="
								M78.70288,35.18902c0.07983,0.18521,0.13261,0.38261,0.15643,0.58192c-0.2163,0.13779-0.49505-0.01794-0.69783-0.17496
								c-0.62959-0.48707-1.2154-1.03118-1.74714-1.62208c-0.34505-0.38325-0.84589-0.82802-1.30424-0.58961
								c0.00129,0.29993,0.00194,0.60051,0.00322,0.90172c-0.93472-0.02884-1.52826-0.95684-2.17394-1.63041
								c-0.21437-0.22495-0.48474-0.44157-0.79503-0.42811c-0.31094,0.01282-0.59097,0.39414-0.4017,0.64024
								c-1.06863-0.68446-1.98983-1.5958-2.68508-2.65518"/>
							<path id="Stroke-333" fill="none" stroke="#FFA472" stroke-width="2" stroke-linecap="round" stroke-linejoin="round" d="
								M67.06137,38.3421c-0.08176-0.18393-0.13776-0.38004-0.16416-0.57936c0.21437-0.14035,0.49569,0.01154,0.7004,0.16535
								c0.63602,0.47938,1.22828,1.01452,1.76839,1.59901c0.3502,0.37812,0.85683,0.81713,1.31196,0.57231
								c-0.00515-0.30058-0.0103-0.60051-0.01545-0.90108c0.93537,0.01538,1.54114,0.93633,2.19583,1.60157
								c0.21759,0.2211,0.49054,0.43452,0.80083,0.41721c0.31093-0.0173,0.58581-0.40247,0.39268-0.64537
								c1.07829,0.66972,2.01172,1.56889,2.72049,2.61865"/>
							<path id="Fill-335" fill="#FFA472" d="M83.16889,34.30152c-1.52118-2.43151-3.89854-4.31892-6.37505-5.79487
								c-2.28274-1.35995-4.23652-1.83934-6.67118-2.12261c-2.90846-0.33839-6.00297,0.34864-8.04237,2.37896l1.40338-1.39649
								c2.03876-2.03032,5.1339-2.71799,8.04237-2.3796c2.43402,0.28327,4.3878,0.76329,6.67054,2.12261
								c2.4765,1.47596,4.85452,3.36336,6.3757,5.79487c1.06669,1.70668,1.59521,3.78698,1.55852,5.26935
								c-0.06245,2.46997-0.78409,4.09076-1.83662,5.13861l-1.40337,1.39649c1.05254-1.04784,1.77482-2.668,1.83662-5.13797
								C84.76475,38.08786,84.23623,36.00819,83.16889,34.30152"/>
							<path id="Stroke-337" fill="none" stroke="#33475C" stroke-linecap="round" stroke-linejoin="round" d="M60.64112,31.00571
								c0.28389-0.83123,0.78409-1.5817,1.40337-2.20656c0.01159-0.01218,0.02382-0.02371,0.03605-0.03589l1.40337-1.39713
								c2.03875-2.03032,5.13327-2.71735,8.04237-2.3796c2.43402,0.28391,4.3878,0.76393,6.67054,2.12325
								c2.4765,1.47596,4.85452,3.36336,6.37505,5.79487c1.06734,1.70668,1.59586,3.78634,1.55852,5.26935
								c-0.0618,2.46997-0.78409,4.09012-1.83598,5.13797l-1.40337,1.39713c-1.42912,1.4234-3.46788,1.78871-5.28583,1.78807
								c-0.8961,0-2.84473-0.36658-4.23331-0.812c-0.43967,1.63233-0.92056,3.25441-1.46195,4.85662
								c-0.18475,0.5486-0.6637,1.22473-1.18128,0.96132c-0.24334-0.12433-0.34441-0.41145-0.42294-0.67229
								c-0.7004-2.3373-1.3036-4.7028-1.8186-7.08689c-1.18321-0.59217-2.31621-1.27279-3.35458-2.09312
								c-2.40634-1.89766-4.30154-4.58681-4.71483-7.61499C60.27934,33.02257,60.31023,31.97281,60.64112,31.00571z"/>
							<path id="Fill-339" fill="#FCE9C6" d="M64.92264,39.19576c-0.08691-0.11344-0.18347-0.22687-0.2987-0.30762
								c-0.02833-0.02051-0.05794-0.03781-0.0882-0.05255l-2.03296-1.0126c-0.03347-0.01666-0.06824-0.02948-0.10493-0.04038
								c-0.24334-0.06665-0.49697,0.0423-0.72551,0.14933c-2.54668,1.19333-5.06116,2.45266-7.54025,3.77865
								c-2.15399,1.15231-4.28158,2.35397-6.3802,3.60369c-1.4317,0.85238-3.60822,1.66373-4.34145,3.2448
								c-0.93795,2.02327-1.37891,4.51182-1.37956,6.71839c-0.00064,1.47532,0.49569,4.6573,0.85812,6.11852
								c0.0618,0.18778,0.17574,0.42811,0.38046,0.57103c0.02768,0.01987,0.05665,0.03653,0.08755,0.05191l2.03296,1.01196
								c0.16995,0.08459,0.39204,0.10446,0.68044,0c0.12682-0.06217,0.25364-0.12433,0.37981-0.1865h0.00064
								c1.62418-0.79854,3.21489-1.57914,4.79787-2.35653c0.11716,1.33881,0.06695,2.69236-0.17768,4.0145
								c-0.02575,0.13715-0.0515,0.28648,0.01223,0.41081c0.02575,0.05063,0.05987,0.08972,0.09978,0.11728
								c0.21888,0.15317,0.618-0.01538,0.85876-0.21726c2.19326-1.84382,3.79233-4.32084,4.7174-7.03242
								c1.37441-0.67485,2.7604-1.35547,4.17665-2.05083c0.96176-0.47233,2.13274-1.50992,2.70697-2.21233
								c0.86842-1.0613,1.41368-2.00725,1.84692-3.15635c0.68752-1.82331,1.17613-3.74533,1.16711-5.69233
								C66.64853,42.7219,66.11422,40.74029,64.92264,39.19576"/>
							<path id="Stroke-341" fill="none" stroke="#33475C" stroke-linecap="round" stroke-linejoin="round" d="M64.92264,39.19576
								c-0.08691-0.11344-0.18347-0.22687-0.2987-0.30762c-0.02833-0.02051-0.05794-0.03781-0.0882-0.05255l-2.03296-1.0126
								c-0.03347-0.01666-0.06824-0.02948-0.10493-0.04038c-0.24334-0.06665-0.49697,0.0423-0.72551,0.14933
								c-2.54668,1.19333-5.06116,2.45266-7.54025,3.77865c-2.15399,1.15231-4.28158,2.35397-6.3802,3.60369
								c-1.4317,0.85238-3.60822,1.66373-4.34145,3.2448c-0.93795,2.02327-1.37891,4.51182-1.37956,6.71839
								c-0.00064,1.47532,0.49569,4.6573,0.85812,6.11852c0.0618,0.18778,0.17574,0.42811,0.38046,0.57103
								c0.02768,0.01987,0.05665,0.03653,0.08755,0.05191l2.03296,1.01196c0.16995,0.08459,0.39204,0.10446,0.68044,0
								c0.12682-0.06217,0.25364-0.12433,0.37981-0.1865h0.00064c1.62418-0.79854,3.21489-1.57914,4.79787-2.35653
								c0.11716,1.33881,0.06695,2.69236-0.17768,4.0145c-0.02575,0.13715-0.0515,0.28648,0.01223,0.41081
								c0.02575,0.05063,0.05987,0.08972,0.09978,0.11728c0.21888,0.15317,0.618-0.01538,0.85876-0.21726
								c2.19326-1.84382,3.79233-4.32084,4.7174-7.03242c1.37441-0.67485,2.7604-1.35547,4.17665-2.05083
								c0.96176-0.47233,2.13274-1.50992,2.70697-2.21233c0.86842-1.0613,1.41368-2.00725,1.84692-3.15635
								c0.68752-1.82331,1.17613-3.74533,1.16711-5.69233C66.64853,42.7219,66.11422,40.74029,64.92264,39.19576z"/>
							<path id="Fill-343" fill="#F6C364" d="M62.50259,37.82324c-0.03348-0.01666-0.06824-0.03012-0.10493-0.04037
								c-0.24334-0.06665-0.49697,0.0423-0.72551,0.14933c-2.54667,1.19268-5.06052,2.45266-7.5396,3.77801
								c-2.15463,1.15231-4.28223,2.35397-6.38085,3.60369c-1.4317,0.85302-3.60822,1.66373-4.34145,3.24544
								c-0.93794,2.02263-1.37827,4.51182-1.37955,6.71775c-0.00064,1.47532,0.49633,4.65794,0.85876,6.11852
								c0.06116,0.18778,0.17574,0.42811,0.38046,0.57167c0.02704,0.01923,0.05601,0.03589,0.08691,0.05191l2.03296,1.01196
								c-0.03025-0.01538-0.05922-0.03268-0.08691-0.05191c-0.20471-0.14356-0.3193-0.38389-0.38046-0.57167
								c-0.05279-0.21341-0.1088-0.46592-0.16544-0.74214c-0.33153-1.61439-0.69332-4.1164-0.69332-5.37638
								c0.00129-2.20592,0.44161-4.69511,1.3802-6.71775c0.73323-1.5817,2.90975-2.39242,4.34145-3.24479
								c2.09798-1.25037,4.22622-2.45202,6.3802-3.60369c2.3999-1.28305,4.83456-2.50265,7.29691-3.66073
								c0.08176-0.03845,0.16158-0.07947,0.24269-0.11792c0.22853-0.10703,0.48217-0.21598,0.72615-0.14933
								c0.03669,0.01025,0.07081,0.02371,0.10429,0.04037L62.50259,37.82324z"/>
							<path id="Stroke-345" fill="none" stroke="#F6C364" stroke-width="2" stroke-linecap="round" stroke-linejoin="round" d="
								M52.2378,48.7464c3.43055-1.98802,6.97374-3.7825,10.60772-5.37253"/>
							<path id="Stroke-347" fill="none" stroke="#F6C364" stroke-width="2" stroke-linecap="round" stroke-linejoin="round" d="
								M47.6357,51.57347c0.89932-0.58512,1.8083-1.15615,2.72564-1.71372"/>
							<path id="Stroke-349" fill="none" stroke="#F6C364" stroke-width="2" stroke-linecap="round" stroke-linejoin="round" d="
								M60.26865,48.08488c0.98623-0.46336,1.98018-0.91134,2.98056-1.34457"/>
							<path id="Stroke-351" fill="none" stroke="#F6C364" stroke-width="2" stroke-linecap="round" stroke-linejoin="round" d="
								M47.2123,55.3925c3.35458-2.204,6.83598-4.21637,10.42167-6.02431"/>
							<path id="Stroke-353" fill="none" stroke="#F6C364" stroke-width="2" stroke-linecap="round" stroke-linejoin="round" d="
								M54.08891,54.78289c2.59689-1.43558,5.25557-2.76221,7.96576-3.97412"/>
							<path id="Stroke-355" fill="none" stroke="#F6C364" stroke-width="2" stroke-linecap="round" stroke-linejoin="round" d="
								M47.49362,58.75022c1.52247-0.99337,3.07133-1.94764,4.64337-2.8609"/>
							<path id="Stroke-357" fill="none" stroke="#33475C" stroke-linecap="round" stroke-linejoin="round" d="M64.92264,39.19576
								c-0.08691-0.11344-0.18347-0.22687-0.2987-0.30762c-0.02833-0.02051-0.05794-0.03781-0.0882-0.05255l-2.03296-1.0126
								c-0.03347-0.01666-0.06824-0.02948-0.10493-0.04038c-0.24334-0.06665-0.49697,0.0423-0.72551,0.14933
								c-2.54668,1.19333-5.06116,2.45266-7.54025,3.77865c-2.15399,1.15231-4.28158,2.35397-6.3802,3.60369
								c-1.4317,0.85238-3.60822,1.66373-4.34145,3.2448c-0.93795,2.02327-1.37891,4.51182-1.37956,6.71839
								c-0.00064,1.47532,0.49569,4.6573,0.85812,6.11852c0.0618,0.18778,0.17574,0.42811,0.38046,0.57103
								c0.02768,0.01987,0.05665,0.03653,0.08755,0.05191l2.03296,1.01196c0.16995,0.08459,0.39204,0.10446,0.68044,0
								c0.12682-0.06217,0.25364-0.12433,0.37981-0.1865h0.00064c1.62418-0.79854,3.21489-1.57914,4.79787-2.35653
								c0.11716,1.33881,0.06695,2.69236-0.17768,4.0145c-0.02575,0.13715-0.0515,0.28648,0.01223,0.41081
								c0.02575,0.05063,0.05987,0.08972,0.09978,0.11728c0.21888,0.15317,0.618-0.01538,0.85876-0.21726
								c2.19326-1.84382,3.79233-4.32084,4.7174-7.03242c1.37441-0.67485,2.7604-1.35547,4.17665-2.05083
								c0.96176-0.47233,2.13274-1.50992,2.70697-2.21233c0.86842-1.0613,1.41368-2.00725,1.84692-3.15635
								c0.68752-1.82331,1.17613-3.74533,1.16711-5.69233C66.64853,42.7219,66.11422,40.74029,64.92264,39.19576z"/>
						</g>
					</g>
				</g>
			</g>
		</g>
	</g>
</g>
</svg>
