<?xml version="1.0" encoding="iso-8859-1"?>
<!-- Generator: Adobe Illustrator 19.0.0, SVG Export Plug-In . SVG Version: 6.00 Build 0)  -->
<svg xmlns="http://www.w3.org/2000/svg" xmlns:xlink="http://www.w3.org/1999/xlink" version="1.1" id="Capa_1" x="0px" y="0px" viewBox="0 0 512 512" style="enable-background:new 0 0 512 512;" xml:space="preserve">
<path style="fill:#EAA7F4;" d="M504.102,319.257c-1.536,6.05-3.302,12.058-5.287,18.004c-4.984,14.942-11.379,29.508-19.205,43.499  c-1.546,2.779-3.145,5.527-4.807,8.255c-0.773,1.264-1.557,2.529-2.361,3.783c-1.358,2.142-2.748,4.274-4.19,6.384  c-1.045,1.557-2.1,3.093-3.187,4.629c-8.255,11.651-17.607,22.768-28.045,33.207c-10.439,10.439-21.556,19.79-33.217,28.045  c-1.526,1.087-3.062,2.152-4.629,3.197c-2.111,1.431-4.253,2.832-6.395,4.19c-1.181,0.752-2.372,1.484-3.553,2.215  c-0.073,0.042-0.146,0.084-0.219,0.136c-2.497,1.526-5.005,2.988-7.544,4.409c-0.24,0.136-0.481,0.272-0.721,0.397  c-13.991,7.826-28.557,14.221-43.499,19.205c-5.945,1.985-11.943,3.741-17.993,5.287c-84.605,21.494-178.05-0.867-244.265-67.082  c-99.976-99.976-99.976-262.06,0-362.035s262.06-99.976,362.036,0C503.234,141.197,525.585,234.652,504.102,319.257z"/>
<polygon style="fill:#F9395E;" points="141.321,48.456 175.958,83.093 144.201,147.173 83.091,175.96 48.454,141.323 82.348,70.475   "/>
<rect x="29.958" y="75.31" transform="matrix(-0.7071 0.7071 -0.7071 -0.7071 230.8635 95.6398)" style="fill:#D92F52;" width="131.332" height="40.646"/>
<path style="fill:#F2EEED;" d="M122.251,9.514l19.07,19.07c5.488,5.488,5.488,14.384,0,19.872l0,0l-92.867,92.867l0,0  c-5.488,5.488-14.384,5.488-19.872,0l-19.08-19.08c-7.477-7.477-7.477-19.599,0-27.076L95.155,9.514  C102.637,2.031,114.768,2.031,122.251,9.514z"/>
<path style="fill:#CCC9C7;" d="M40.181,64.488L9.501,95.167c-7.477,7.477-7.477,19.599,0,27.076l19.08,19.08  c5.488,5.488,14.384,5.488,19.872,0l0,0l20.743-20.742L40.181,91.564C32.699,84.083,32.699,71.969,40.181,64.488z"/>
<rect x="55.131" y="125.195" transform="matrix(0.7071 0.7071 -0.7071 0.7071 125.7021 -13.8945)" style="fill:#E83A25;" width="48.984" height="39.187"/>
<path style="fill:#F9395E;" d="M450.384,265.539c-37.125-37.136-81.659-65.996-130.706-84.71  c-24.524-9.352-47.929-21.253-69.82-35.464c-3.511-2.267-6.99-4.598-10.418-6.99l-89.297,9.78L145.41,184.8l-7.053,54.658  c17.314,24.837,31.608,51.775,42.465,80.227c9.352,24.524,21.253,47.919,35.464,69.82c14.19,21.901,30.678,42.318,49.246,60.876  l53.718,53.718c6.05-1.546,12.048-3.302,17.993-5.287c15.203-5.068,30.009-11.598,44.22-19.602c2.539-1.421,5.047-2.884,7.544-4.409  c0.073-0.052,0.146-0.094,0.219-0.136c3.344-2.048,6.677-4.18,9.947-6.405c1.567-1.045,3.103-2.111,4.629-3.197  c11.661-8.255,22.779-17.607,33.217-28.045c10.439-10.438,19.79-21.556,28.045-33.207c1.087-1.536,2.142-3.072,3.187-4.629  c2.278-3.344,4.451-6.74,6.551-10.167c10.041-16.488,18.035-33.855,24.012-51.754c1.985-5.945,3.751-11.954,5.287-18.004  L450.384,265.539z"/>
<path style="fill:#D92F52;" d="M381.462,479.21c-14.211,8.004-29.017,14.535-44.22,19.602c-5.945,1.985-11.943,3.741-17.993,5.287  l-53.718-53.718c-18.568-18.557-35.056-38.975-49.246-60.876c-14.211-21.901-26.112-45.296-35.464-69.82  c-10.856-28.453-25.151-55.39-42.465-80.227l27.711-27.711c17.314,24.837,79.548,112.305,93.759,134.217  c2.351,3.615,4.754,7.199,7.231,10.731c12.476,17.868,26.53,34.638,42.026,50.134L381.462,479.21z"/>
<path style="fill:#F7AB29;" d="M479.609,380.76c-1.546,2.779-3.145,5.527-4.807,8.255c-0.773,1.264-1.557,2.529-2.361,3.783  c-1.358,2.142-2.748,4.274-4.19,6.384c-1.045,1.557-2.1,3.093-3.187,4.629c-8.255,11.651-17.607,22.768-28.045,33.207  c-10.439,10.439-21.556,19.79-33.217,28.045c-1.526,1.087-3.062,2.152-4.629,3.197c-2.111,1.432-4.253,2.832-6.395,4.19  c-1.181,0.752-2.372,1.484-3.553,2.215c-0.073,0.042-0.146,0.084-0.219,0.136c-2.497,1.526-5.005,2.988-7.544,4.409  c-0.24,0.136-0.481,0.272-0.721,0.397L256.848,378.911c2.999-7.628,6.405-15.047,10.209-22.215  c10.125-19.08,22.988-36.425,38.107-51.534c20.773-20.783,45.808-37.324,73.738-48.306L479.609,380.76z"/>
<path style="fill:#FFFFFF;" d="M472.441,392.797c-1.358,2.142-2.748,4.274-4.19,6.384c-1.045,1.557-2.1,3.093-3.187,4.629  c-8.255,11.651-17.607,22.768-28.045,33.207c-10.439,10.439-21.556,19.79-33.217,28.045c-1.526,1.087-3.062,2.152-4.629,3.197  c-2.111,1.431-4.253,2.832-6.395,4.19l-119.985-97.531c1.829-4.096,3.803-8.129,5.883-12.048  c9.456-17.847,21.494-34.126,35.788-48.42c17.565-17.575,37.877-31.556,60.447-41.66L472.441,392.797z"/>
<path style="fill:#F9EF4A;" d="M239.444,138.364L138.353,239.456c-12.539-18.001-26.661-34.894-42.247-50.481L83.091,175.96  l92.867-92.867l13.014,13.014C204.559,111.694,221.452,125.816,239.444,138.364z"/>
<path style="fill:#F2B54D;" d="M110.801,148.251l-27.71,27.71l13.014,13.014c15.587,15.587,29.708,32.48,42.247,50.482l27.71-27.71  c-12.539-18.001-26.661-34.894-42.247-50.482L110.801,148.251z"/>
<circle style="fill:#F9395E;" cx="383.884" cy="383.884" r="46.624"/>
<g>
</g>
<g>
</g>
<g>
</g>
<g>
</g>
<g>
</g>
<g>
</g>
<g>
</g>
<g>
</g>
<g>
</g>
<g>
</g>
<g>
</g>
<g>
</g>
<g>
</g>
<g>
</g>
<g>
</g>
</svg>
