<?xml version="1.0" encoding="iso-8859-1"?>
<!-- Generator: Adobe Illustrator 19.0.0, SVG Export Plug-In . SVG Version: 6.00 Build 0)  -->
<svg xmlns="http://www.w3.org/2000/svg" xmlns:xlink="http://www.w3.org/1999/xlink" version="1.1" id="Capa_1" x="0px" y="0px" viewBox="0 0 512 512" style="enable-background:new 0 0 512 512;" xml:space="preserve">
<path style="fill:#94F3FF;" d="M465.067,403.815c-7.137,10.073-15.099,19.749-23.876,28.944c-1.369,1.432-2.759,2.853-4.169,4.263  c-1.306,1.306-2.623,2.602-3.95,3.866c-9.279,8.892-19.059,16.959-29.268,24.179c-8.871,6.29-18.046,11.943-27.481,16.969  c-55.161,29.393-118.827,37.157-178.481,23.301c-45.025-10.46-87.772-33.228-122.86-68.316  c-25.684-25.684-44.774-55.474-57.251-87.25C-9.415,280.714-5.392,202.242,29.811,135.974c2.236-4.232,4.618-8.412,7.116-12.528  c10.46-17.262,23.145-33.552,38.056-48.463s31.191-27.586,48.452-38.045c4.117-2.508,8.297-4.88,12.528-7.116  c66.258-35.203,144.72-39.236,213.778-12.1c0.01,0,0.021,0,0.021,0c31.786,12.487,61.576,31.577,87.26,57.261  c35.088,35.088,57.857,77.825,68.306,122.85C521.576,267.684,508.149,343.043,465.067,403.815z"/>
<path style="fill:#F9395E;" d="M465.067,403.815c-7.137,10.073-15.099,19.749-23.876,28.944c-1.369,1.432-2.759,2.853-4.169,4.263  c-1.306,1.306-2.623,2.602-3.95,3.866c-9.279,8.892-19.059,16.959-29.268,24.179c-8.871,6.29-18.046,11.943-27.481,16.969  c-55.161,29.393-118.827,37.157-178.481,23.301c-45.025-10.46-87.772-33.228-122.86-68.316  c-25.684-25.684-44.774-55.474-57.251-87.25c-6.99-45.715,2.602-92.892,25.224-138.064c0.805-1.609,1.63-3.208,2.466-4.807  c7.816-14.953,17.053-29.665,27.586-44.022c3.218-4.389,6.552-8.735,10.01-13.051c2.278-2.863,4.618-5.705,7.011-8.516  c3.208-3.793,6.499-7.555,9.895-11.285l0.01-0.01c4.723-5.204,9.613-10.334,14.681-15.402c3.803-3.803,7.628-7.492,11.504-11.097  c1.285-1.202,2.581-2.393,3.887-3.574c0.01,0,0.01-0.01,0.01-0.01c2.466-2.247,4.942-4.441,7.44-6.604  c1.275-1.118,2.56-2.205,3.845-3.291c0.397-0.334,0.784-0.669,1.181-1.003c2.424-2.048,4.869-4.044,7.346-5.998  c4.315-3.459,8.662-6.792,13.051-10.01c14.357-10.543,29.069-19.78,44.022-27.596c1.609-0.846,3.208-1.661,4.817-2.466  c45.151-22.622,92.318-32.225,138.022-25.245c0.01,0,0.021,0,0.021,0c31.786,12.487,61.576,31.577,87.26,57.261  c35.088,35.088,57.857,77.825,68.306,122.85C521.576,267.684,508.149,343.043,465.067,403.815z"/>
<path style="fill:#D92F52;" d="M376.323,482.037c-55.161,29.393-118.827,37.157-178.481,23.301  c-45.025-10.46-87.772-33.228-122.86-68.316c-25.684-25.684-44.774-55.474-57.251-87.25c-6.99-45.715,2.602-92.892,25.224-138.064  c0.805-1.609,1.63-3.208,2.466-4.807c7.816-14.953,17.053-29.665,27.586-44.022c3.218-4.389,6.552-8.735,10.01-13.051  c2.278-2.863,4.618-5.705,7.011-8.516c3.208-3.793,6.499-7.555,9.895-11.285c4.723-5.204,9.624-10.345,14.691-15.412  c5.068-5.068,10.198-9.958,15.402-14.681c2.466-2.247,4.942-4.441,7.44-6.604l-7.179,36.948c-0.01,0.01-0.021,0.021-0.031,0.031  c-0.439,0.533-6.228,7.544-13.166,19.299c-8.976,15.193-19.885,38.327-23.678,65.683c-5.151,37.021,2.717,81.775,45.997,125.055  C224.885,425.831,294.193,470.385,376.323,482.037z"/>
<path style="fill:#8CC371;" d="M207.539,32.64c0,0,36.999,70.809-34.492,119.514c-3.987,2.712-8.293,5.351-12.98,7.912  c-48.518,88.724-127.426,47.472-127.426,47.472c55.331,1.019,61.949-43.237,61.949-43.237  c-66.876,2.941-78.146-57.166-78.146-57.166c45.336,48.58,105.266,14.575,105.266,14.575s10.109-17.818,11.421-41.386  c1.098-19.634-3.916-43.255-26.005-63.872c0,0,60.107,11.27,57.166,78.146C164.292,94.598,208.558,87.971,207.539,32.64z"/>
<g>
	<path style="fill:#76B25D;" d="M207.539,32.64c0,0,36.999,70.809-34.492,119.514c-5.76-36.876-24.976-59.443-39.914-71.829   c1.098-19.634-3.916-43.255-26.005-63.872c0,0,60.107,11.27,57.166,78.146C164.292,94.598,208.558,87.971,207.539,32.64z"/>
	
		<ellipse transform="matrix(-0.7071 -0.7071 0.7071 -0.7071 139.221 336.1136)" style="fill:#76B25D;" cx="139.222" cy="139.223" rx="12.654" ry="30.511"/>
</g>
<ellipse transform="matrix(-0.7071 -0.7071 0.7071 -0.7071 536.6544 476.8357)" style="fill:#FF5B6E;" cx="367.083" cy="127.273" rx="64.836" ry="38.528"/>
<g>
</g>
<g>
</g>
<g>
</g>
<g>
</g>
<g>
</g>
<g>
</g>
<g>
</g>
<g>
</g>
<g>
</g>
<g>
</g>
<g>
</g>
<g>
</g>
<g>
</g>
<g>
</g>
<g>
</g>
</svg>
