<?xml version="1.0" encoding="utf-8"?>
<!-- Generator: Adobe Illustrator 20.1.0, SVG Export Plug-In . SVG Version: 6.00 Build 0)  -->
<svg version="1.1" id="Layer_1" xmlns="http://www.w3.org/2000/svg" xmlns:xlink="http://www.w3.org/1999/xlink" x="0px" y="0px"
	 width="127px" height="33px" viewBox="0 0 127 33" enable-background="new 0 0 127 33" xml:space="preserve">
<g>
	<g>
		<defs>
			<path id="SVGID_1_" d="M123.8,12.3c0,0,0.6,1.4,0.9,7.2c-0.7,0.5-2,1.6-2,1.6l-0.4-7.9l-2.2-1l1.5,1.3L110,20.3l-17-9.9l17-6.7
				l17,6.7L123.8,12.3L123.8,12.3z M110,26l-10.3-5.9v-5.2l10.3,6.3l10.3-6.3v5.2L110,26L110,26z"/>
		</defs>
		<use xlink:href="#SVGID_1_"  overflow="visible" fill="#FFFFFF"/>
		<clipPath id="SVGID_2_">
			<use xlink:href="#SVGID_1_"  overflow="visible"/>
		</clipPath>
	</g>
	<g>
		<defs>
			<path id="SVGID_3_" d="M12.7,28.3l-1.2-3.1H4.3l-1.2,3.1H0l6.2-15.8h3.5l6.2,15.8H12.7L12.7,28.3z M8,15.3l-2.8,7.5h5.7L8,15.3
				L8,15.3z M22,18.8c-2.1,0-3.5,1.6-3.5,3.8s1.4,3.8,3.5,3.8c1.1,0,2-0.5,2.6-1.4l1.6,1.5c-0.8,1.1-2.1,2-4.4,2
				c-3.5,0-5.9-2.6-5.9-6c0-3.5,2.4-6,5.9-6c2.3,0,3.6,0.9,4.4,2l-1.6,1.5C24,19.2,23.1,18.8,22,18.8L22,18.8z M35.7,28.3v-1.6
				c-0.9,1.1-2.2,1.9-3.7,1.9c-2.9,0-5.1-2.2-5.1-6c0-3.7,2.1-6,5.1-6c1.4,0,2.7,0.6,3.7,1.9v-1.6h2.5v11.5H35.7L35.7,28.3z
				 M35.7,20.4c-0.5-0.9-1.8-1.5-2.9-1.5c-2,0-3.2,1.6-3.2,3.8c0,2.2,1.3,3.8,3.2,3.8c1.2,0,2.4-0.7,2.9-1.5V20.4L35.7,20.4z
				 M48.6,28.3v-1.6c-0.9,1.1-2.2,1.9-3.7,1.9c-2.9,0-5.1-2.2-5.1-6c0-3.7,2.1-6,5.1-6c1.4,0,2.8,0.6,3.7,1.9v-6h2.5v15.8H48.6
				L48.6,28.3z M48.6,20.4c-0.5-0.9-1.8-1.5-2.9-1.5c-2,0-3.2,1.6-3.2,3.8c0,2.2,1.3,3.8,3.2,3.8c1.2,0,2.4-0.7,2.9-1.5V20.4
				L48.6,20.4z M55.4,23.4c0.2,1.7,1.5,3.2,3.6,3.2c1.1,0,2.4-0.5,3.3-1.3l1.1,1.6c-1.2,1.1-2.8,1.7-4.6,1.7c-3.5,0-6-2.4-6-6
				c0-3.3,2.4-6,5.8-6c3.4,0,5.6,2.6,5.6,6.2v0.6H55.4L55.4,23.4z M58.5,18.6c-2.1,0-3.1,1.6-3.2,3h6.4
				C61.7,20.3,60.8,18.6,58.5,18.6L58.5,18.6z M79.8,28.3v-7.5c0-1.2-0.5-2.1-1.9-2.1c-1.1,0-2.2,0.8-2.7,1.5v8h-2.5v-7.5
				c0-1.2-0.5-2.1-1.9-2.1c-1.1,0-2.1,0.8-2.7,1.5v8h-2.5V16.9h2.5v1.5c0.5-0.7,2-1.8,3.7-1.8c1.7,0,2.7,0.9,3.1,2.1
				c0.6-1,2.2-2.1,3.9-2.1c2.1,0,3.3,1.1,3.3,3.5v8.3H79.8L79.8,28.3z M89.2,33c-1.9,0-3.4-0.5-4.6-1.7l1.2-1.8
				c0.8,1,2.2,1.5,3.5,1.5c2,0,3.2-1.1,3.2-3.2v-1.3c-0.8,0.9-2.2,1.8-4,1.8c-2.5,0-3.7-1.3-3.7-3.6v-7.7h2.5v6.8
				c0,1.8,0.9,2.3,2.3,2.3c1.3,0,2.3-0.7,2.9-1.5v-7.7h2.5v10.9C94.9,31.2,92.5,33,89.2,33L89.2,33z"/>
		</defs>
		<use xlink:href="#SVGID_3_"  overflow="visible" fill="#FFFFFF"/>
		<clipPath id="SVGID_4_">
			<use xlink:href="#SVGID_3_"  overflow="visible"/>
		</clipPath>
	</g>
	<g>
		<defs>
			<path id="SVGID_5_" d="M19.3,2.6c-0.8,0-1.4,0.2-1.9,0.7v-3h-1.7v5.6c0,2.1,1.6,3.5,3.3,3.5C21,9.4,22.7,8,22.7,6
				C22.7,4.1,21.1,2.6,19.3,2.6L19.3,2.6z M19.3,8c-1.1,0-2-0.9-2-1.9c0-1.1,0.8-1.9,2-1.9c0.9,0,1.8,0.9,1.8,1.9
				C21.1,7.1,20.3,8,19.3,8L19.3,8z M5.3,3.9H1.7V0.3H0v9h1.7V5.5h3.6v3.8h1.7v-9H5.3V3.9L5.3,3.9z M12.8,6.5c0,0.8-0.6,1.4-1.4,1.4
				c-0.8,0-1.4-0.6-1.4-1.4V2.6H8.3v3.9c0,1.6,1.4,3,3,3c1.7,0,3-1.3,3-3V2.6h-1.6V6.5L12.8,6.5z M48.7,8c-1,0-1.2-0.4-1.2-1V4.2H49
				V2.8h-1.5V1l-1.7,0.7v5.6c0,1.4,1,2.2,2.4,2.2c0.2,0,0.5,0,0.7-0.1l0.4-1.4C49.1,7.9,48.9,8,48.7,8L48.7,8z M25.3,3
				c0-0.8,0.5-1.1,1.1-1.1c0.5,0,1.1,0.4,1.5,0.8L29,1.5c-0.5-0.7-1.6-1.2-2.5-1.2c-1.8,0-3,1-3,2.7c0,3.1,3.9,2.1,3.9,3.8
				c0,0.5-0.5,1-1.1,1c-1,0-1.3-0.5-1.7-0.9l-1.2,1.2C24.1,9,25,9.4,26.2,9.4c1.7,0,3-1,3-2.6C29.2,3.4,25.3,4.5,25.3,3L25.3,3z
				 M33.4,2.5c-1.7,0-3.3,1.4-3.3,3.5v5.6h1.7v-3c0.5,0.5,1.1,0.7,1.9,0.7c1.8,0,3.4-1.5,3.4-3.4C37.1,4,35.4,2.5,33.4,2.5L33.4,2.5
				z M33.7,7.9c-1.1,0-2-0.9-2-1.9c0-1.1,0.8-1.9,2-1.9c0.9,0,1.8,0.9,1.8,1.9C35.5,7,34.7,7.9,33.7,7.9L33.7,7.9z M38,5.9
				c0,2.1,1.6,3.5,3.3,3.5c1.9,0,3.6-1.5,3.6-3.4c0-1.9-1.5-3.4-3.4-3.4C39.7,2.6,38,3.8,38,5.9L38,5.9z M41.5,8c-1.1,0-2-0.9-2-1.9
				c0-1.1,0.8-1.9,2-1.9c0.9,0,1.8,0.9,1.8,1.9C43.3,7.1,42.4,8,41.5,8L41.5,8z"/>
		</defs>
		<use xlink:href="#SVGID_5_"  overflow="visible" fill="#FFFFFF"/>
		<clipPath id="SVGID_6_">
			<use xlink:href="#SVGID_5_"  overflow="visible"/>
		</clipPath>
	</g>
</g>
</svg>
