<?xml version="1.0" encoding="utf-8"?>
<!-- Generator: Adobe Illustrator 20.1.0, SVG Export Plug-In . SVG Version: 6.00 Build 0)  -->
<svg version="1.1" id="Layer_1" xmlns="http://www.w3.org/2000/svg" xmlns:xlink="http://www.w3.org/1999/xlink" x="0px" y="0px"
	 width="34px" height="33px" viewBox="0 0 34 33" enable-background="new 0 0 34 33" xml:space="preserve">
<g>
	<path fill="#FFFFFF" d="M32.6,33c-0.1,0-0.1,0-0.2,0l-5-1.5c-1.3,0.5-2.6,0.8-4,0.8c-3.7,0-7-1.9-9-5c-0.2-0.3-0.1-0.7,0.2-0.9
		c0.3-0.2,0.7-0.1,0.9,0.2c1.7,2.7,4.7,4.4,7.9,4.4c1.3,0,2.5-0.3,3.7-0.8c0.1-0.1,0.3-0.1,0.4,0l4.1,1.2l-0.9-3.5
		c-0.1-0.2,0-0.4,0.1-0.6c1.2-1.6,1.9-3.6,1.9-5.6c0-4.1-2.6-7.7-6.5-8.9c-0.3-0.1-0.5-0.5-0.4-0.8c0.1-0.3,0.5-0.5,0.8-0.4
		C31,13,34,17,34,21.7c0,2.2-0.7,4.3-2,6.1l1.2,4.4c0.1,0.2,0,0.5-0.2,0.6C32.9,32.9,32.7,33,32.6,33z"/>
	<path fill="#FFFFFF" d="M1.7,28.4c-0.2,0-0.3-0.1-0.5-0.2C1,28.1,1,27.8,1,27.6l1.5-5.7C0.9,19.6,0,16.9,0,14
		C0,6.6,6.1,0.5,13.5,0.5C21,0.5,27,6.6,27,14c0,7.5-6.1,13.5-13.5,13.5c-1.8,0-3.5-0.3-5.2-1l-6.5,1.9C1.8,28.4,1.7,28.4,1.7,28.4z
		 M13.5,1.8C6.8,1.8,1.3,7.3,1.3,14c0,2.7,0.9,5.2,2.5,7.3c0.1,0.2,0.2,0.4,0.1,0.6l-1.3,4.9l5.6-1.7c0.1,0,0.3,0,0.4,0
		c1.5,0.7,3.2,1,4.9,1c6.7,0,12.2-5.5,12.2-12.2C25.7,7.3,20.2,1.8,13.5,1.8z"/>
	<g>
		<g>
			<line fill="#FFFFFF" x1="8" y1="11" x2="19" y2="11"/>
			<path fill="#FFFFFF" d="M18.6,11H8c-0.3,0-0.5-0.2-0.5-0.5S7.8,10,8,10h10.6c0.3,0,0.5,0.2,0.5,0.5S18.9,11,18.6,11z"/>
		</g>
		<g>
			<line fill="#FFFFFF" x1="8" y1="14" x2="21" y2="14"/>
			<path fill="#FFFFFF" d="M20.5,14H8c-0.3,0-0.5-0.2-0.5-0.5S7.8,13,8,13h12.5c0.3,0,0.5,0.2,0.5,0.5S20.8,14,20.5,14z"/>
		</g>
		<g>
			<line fill="#FFFFFF" x1="8" y1="18" x2="16" y2="18"/>
			<path fill="#FFFFFF" d="M15.7,18H8c-0.3,0-0.5-0.2-0.5-0.5S7.8,17,8,17h7.7c0.3,0,0.5,0.2,0.5,0.5S16,18,15.7,18z"/>
		</g>
	</g>
</g>
</svg>
