<?xml version="1.0" encoding="utf-8"?>
<!-- Generator: Adobe Illustrator 20.1.0, SVG Export Plug-In . SVG Version: 6.00 Build 0)  -->
<svg version="1.1" id="Layer_1" xmlns="http://www.w3.org/2000/svg" xmlns:xlink="http://www.w3.org/1999/xlink" x="0px" y="0px"
	 width="69px" height="33px" viewBox="0 0 69 33" enable-background="new 0 0 69 33" xml:space="preserve">
<g>
	<polygon fill="#FFFFFF" points="7.7,9 2.7,9 2.7,3.7 0.3,3.7 0.3,16.7 2.7,16.7 2.7,11.3 7.7,11.3 7.7,16.7 10.1,16.7 10.1,3.7 
		7.7,3.7 	"/>
	<path fill="#FFFFFF" d="M17.7,12.5c0,1.1-0.9,2-2,2c-1.1,0-2-0.9-2-2V6.9h-2.2v5.6c0,2.3,1.9,4.2,4.2,4.2s4.2-1.9,4.2-4.2V6.9h-2.2
		V12.5z"/>
	<path fill="#FFFFFF" d="M26.2,6.9c-1.1,0-1.9,0.3-2.6,1.1V3.7h-2.3v8c0,3,2.2,5,4.6,5c2.7,0,5.1-2.1,5.1-4.9
		C30.9,9,28.8,6.9,26.2,6.9z M26.3,14.6c-1.5,0-2.7-1.3-2.7-2.8S24.8,9,26.3,9c1.3,0,2.5,1.3,2.5,2.8C28.8,13.3,27.6,14.6,26.3,14.6
		z"/>
	<path fill="#FFFFFF" d="M34.8,7.5c0-1.1,0.8-1.5,1.6-1.5c0.7,0,1.6,0.5,2.1,1.1l1.5-1.7c-0.7-1-2.2-1.6-3.5-1.6
		c-2.4,0-4.2,1.5-4.2,3.8c0,4.4,5.4,3,5.4,5.5c0,0.7-0.7,1.5-1.6,1.5c-1.3,0-1.8-0.7-2.4-1.3L32,14.9c1.1,1.3,2.4,1.9,3.9,1.9
		c2.3,0,4.2-1.5,4.2-3.7C40.2,8.1,34.8,9.6,34.8,7.5z"/>
	<path fill="#FFFFFF" d="M46.1,6.8c-2.4,0-4.6,2-4.6,5v8h2.2v-4.4c0.7,0.7,1.5,1.1,2.6,1.1c2.5,0,4.7-2.1,4.7-4.9
		C51.2,8.9,48.8,6.8,46.1,6.8z M46.5,14.5c-1.5,0-2.7-1.3-2.7-2.8s1.2-2.8,2.7-2.8c1.3,0,2.5,1.3,2.5,2.8S47.8,14.5,46.5,14.5z"/>
	<path fill="#FFFFFF" d="M67.9,14.6c-1.3,0-1.7-0.6-1.7-1.5V9.2h2.1v-2h-2.1V4.6l-2.3,1.1v8c0,2,1.4,3.1,3.4,3.1
		c0.3,0,0.7,0,0.9-0.1l0.5-2C68.4,14.6,68.2,14.6,67.9,14.6z"/>
	<path fill="#FFFFFF" d="M62,9.3c-0.5-0.7-1.1-1.3-1.8-1.8C59.6,7.2,59,7,58.3,6.9V4.5c0.7-0.3,1.1-0.9,1.1-1.7c0-1-0.8-1.8-1.8-1.8
		c-1,0-1.8,0.8-1.8,1.8c0,0.7,0.4,1.4,1.1,1.7v2.4c-0.6,0.1-1.1,0.3-1.7,0.5c-1.1-0.8-4.4-3.4-6.4-4.9c0.1-0.2,0.1-0.3,0.1-0.5
		c0-1.1-0.9-2-2-2c-1.1,0-2,0.9-2,2s0.9,2,2,2c0.4,0,0.7-0.1,1.1-0.3L48.4,4l5.7,4.2c-0.3,0.3-0.6,0.6-0.8,0.9
		c-0.5,0.7-0.7,1.5-0.7,2.4c0,0.1,0,0.1,0,0.2c0,0.6,0.1,1.2,0.3,1.7c0.2,0.5,0.4,0.9,0.7,1.3l-1.9,1.9c-0.2-0.1-0.3-0.1-0.5-0.1
		c-0.4,0-0.8,0.1-1.1,0.5c-0.3,0.3-0.5,0.7-0.5,1.1c0,0.4,0.1,0.8,0.5,1.1c0.3,0.3,0.7,0.5,1.1,0.5c0.4,0,0.8-0.1,1.1-0.5
		c0.3-0.3,0.5-0.7,0.5-1.1c0-0.1,0-0.3-0.1-0.5l2-2c0.3,0.2,0.6,0.3,0.9,0.5c0.6,0.3,1.3,0.4,2,0.4c0.1,0,0.1,0,0.1,0
		c0.9,0,1.6-0.2,2.3-0.6c0.8-0.4,1.4-1,1.8-1.7c0.5-0.7,0.7-1.5,0.7-2.4c0,0,0,0,0-0.1C62.5,10.9,62.4,10.1,62,9.3z M59.5,13.5
		c-0.5,0.6-1.1,0.9-1.8,0.9c-0.1,0-0.1,0-0.1,0c-0.4,0-0.8-0.1-1.2-0.3c-0.4-0.3-0.7-0.5-1-0.9c-0.3-0.4-0.5-0.8-0.5-1.3
		c0-0.1,0-0.1,0-0.1c0-0.5,0.1-0.9,0.3-1.3c0.2-0.5,0.5-0.8,0.9-1.1c0.4-0.3,0.9-0.4,1.3-0.4c0,0,0,0,0.1,0c0.5,0,0.9,0.1,1.3,0.3
		c0.4,0.2,0.7,0.5,1,0.9c0.3,0.4,0.4,0.8,0.5,1.3c0,0.1,0,0.2,0,0.3C60.2,12.3,60,12.9,59.5,13.5z"/>
</g>
<path fill="#FFFFFF" d="M12.1,32.8v-9.5h4.2c1.6,0,2.6,1,2.6,2.4c0,1.2-0.8,2-1.7,2.2c1,0.2,1.8,1.2,1.8,2.3c0,1.5-1,2.6-2.7,2.6
	H12.1z M17.7,25.9c0-0.9-0.6-1.5-1.6-1.5h-2.8v3h2.8C17.1,27.5,17.7,26.8,17.7,25.9z M17.9,30.1c0-0.9-0.6-1.6-1.8-1.6h-2.9v3.3h2.9
	C17.2,31.8,17.9,31.1,17.9,30.1z"/>
<path fill="#FFFFFF" d="M21.4,32.8v-9.5h1.2v8.4H27v1H21.4z"/>
<path fill="#FFFFFF" d="M28.2,28.1c0-2.8,1.9-4.9,4.7-4.9c2.8,0,4.7,2.1,4.7,4.9S35.7,33,32.9,33C30.1,33,28.2,30.9,28.2,28.1z
	 M36.4,28.1c0-2.2-1.4-3.8-3.5-3.8c-2.1,0-3.5,1.6-3.5,3.8c0,2.2,1.3,3.8,3.5,3.8C35,31.9,36.4,30.3,36.4,28.1z"/>
<path fill="#FFFFFF" d="M39.5,28.1c0-2.9,2.2-4.9,4.9-4.9c1.7,0,2.8,0.7,3.7,1.8l-0.9,0.6c-0.6-0.8-1.6-1.3-2.7-1.3
	c-2.1,0-3.6,1.6-3.6,3.8c0,2.2,1.6,3.9,3.6,3.9c1.1,0,2.1-0.6,2.5-1V29h-3.2v-1H48v3.4c-0.9,1-2.2,1.6-3.7,1.6
	C41.6,33,39.5,31,39.5,28.1z"/>
<path fill="#FFFFFF" d="M49.8,31.5l0.7-0.9c0.6,0.7,1.6,1.3,3,1.3c1.7,0,2.2-0.9,2.2-1.6c0-2.4-5.6-1.1-5.6-4.5
	c0-1.6,1.4-2.6,3.2-2.6c1.4,0,2.6,0.5,3.4,1.3L56,25.4c-0.7-0.8-1.7-1.1-2.7-1.1c-1.1,0-1.9,0.6-1.9,1.5c0,2.1,5.6,0.9,5.6,4.4
	c0,1.4-0.9,2.8-3.5,2.8C51.8,33,50.6,32.4,49.8,31.5z"/>
</svg>
