<?xml version="1.0" encoding="utf-8"?>
<!-- Generator: Adobe Illustrator 20.1.0, SVG Export Plug-In . SVG Version: 6.00 Build 0)  -->
<svg version="1.1" id="Layer_1" xmlns="http://www.w3.org/2000/svg" xmlns:xlink="http://www.w3.org/1999/xlink" x="0px" y="0px"
	 width="33px" height="33px" viewBox="0 0 33 33" enable-background="new 0 0 33 33" xml:space="preserve">
<path fill="#FFFFFF" d="M16.5,1.1c8.4,0,15.4,7,15.4,15.4s-7,15.4-15.4,15.4s-15.4-7-15.4-15.4S8.1,1.1,16.5,1.1 M16.5,0
	C7.3,0,0,7.3,0,16.5S7.3,33,16.5,33S33,25.7,33,16.5S25.7,0,16.5,0L16.5,0z"/>
<g>
	<g>
		<defs>
			<circle id="SVGID_1_" cx="16.5" cy="16.5" r="15.4"/>
		</defs>
		<clipPath id="SVGID_2_">
			<use xlink:href="#SVGID_1_"  overflow="visible"/>
		</clipPath>
		<g clip-path="url(#SVGID_2_)">
			<path fill="#FFFFFF" d="M33.5,16.5c0,0.2,0,0.6,0,0.7C33.5,17.1,33.5,16.9,33.5,16.5z"/>
			<path fill="#FFFFFF" d="M33.5,16.3c0-0.2,0-0.2,0-0.4C33.5,16.1,33.5,16.3,33.5,16.3C33.5,16.5,33.5,16.3,33.5,16.3z"/>
			<path fill="#FFFFFF" d="M33.5,17.8c0,0.2,0,0.2,0,0.4C33.5,18,33.5,17.8,33.5,17.8z"/>
			<path fill="#FFFFFF" d="M13.9-0.4c0.2,0,0.2,0,0.4,0C14.3-0.4,14.1-0.4,13.9-0.4z"/>
			<path fill="#FFFFFF" d="M17.8-0.6c0.2,0,0.4,0,0.6,0C18-0.6,17.8-0.6,17.8-0.6z"/>
			<path fill="#FFFFFF" d="M12.5,0L12.5,0L12.5,0z"/>
			<path fill="#FFFFFF" d="M11.7,0.2L11.7,0.2L11.7,0.2z"/>
			<path fill="#FFFFFF" d="M13.2-0.2L13.2-0.2C13.4-0.2,13.2-0.2,13.2-0.2z"/>
			<path fill="#FFFFFF" d="M11,0.4L11,0.4L11,0.4z"/>
			<path fill="#FFFFFF" d="M33.4,13.6L33.4,13.6L33.4,13.6z"/>
			<path fill="#FFFFFF" d="M33.4,18.5v0.2C33.4,18.7,33.4,18.7,33.4,18.5z"/>
			<path fill="#FFFFFF" d="M22,0.4L22,0.4L22,0.4z"/>
			<path fill="#FFFFFF" d="M19.4-0.4c0.2,0,0.2,0,0.4,0C19.6-0.2,19.6-0.2,19.4-0.4z"/>
			<path fill="#FFFFFF" d="M20.4-0.2h0.2C20.5,0,20.4-0.2,20.4-0.2z"/>
			<path fill="#FFFFFF" d="M16.5-0.6c0.2,0,0.6,0,0.7,0C17.1-0.6,16.9-0.6,16.5-0.6z"/>
			<path fill="#FFFFFF" d="M15.6-0.6c0.2,0,0.6,0,0.7,0C16.1-0.6,15.9-0.6,15.6-0.6z"/>
			<path fill="#FFFFFF" d="M18.7-0.4c0.2,0,0.2,0,0.4,0C18.9-0.4,18.7-0.4,18.7-0.4z"/>
			<path fill="#FFFFFF" d="M-0.2,13C-0.2,12.8-0.2,12.8-0.2,13C-0.2,12.8-0.2,12.8-0.2,13z"/>
			<path fill="#FFFFFF" d="M14.9-0.6c0.2,0,0.4,0,0.4,0C15-0.6,15-0.6,14.9-0.6z"/>
			<path fill="#FFFFFF" d="M22.7,0.6L22.7,0.6L22.7,0.6z"/>
			<path fill="#FFFFFF" d="M33,11.9L33,11.9L33,11.9z"/>
			<path fill="#FFFFFF" d="M21.1,0.2C21.3,0.2,21.3,0.2,21.1,0.2C21.3,0.2,21.3,0.2,21.1,0.2z"/>
			<path fill="#FFFFFF" d="M33.4,14.1c0,0.2,0,0.2,0,0.4C33.4,14.3,33.4,14.3,33.4,14.1z"/>
			<path fill="#FFFFFF" d="M20.5,33c-0.2,0-0.4,0-0.5,0.2C20.2,33.2,20.4,33.2,20.5,33z"/>
			<path fill="#FFFFFF" d="M-0.6,15.4c0-0.2,0-0.4,0-0.6C-0.6,15-0.6,15.2-0.6,15.4z"/>
			<path fill="#FFFFFF" d="M21.3,32.8h-0.2H21.3z"/>
			<path fill="#FFFFFF" d="M-0.6,16.5c0-0.2,0-0.6,0-0.7C-0.6,15.9-0.6,16.1-0.6,16.5z"/>
			<path fill="#FFFFFF" d="M18.1,33.5c-0.2,0-0.4,0-0.6,0C17.8,33.5,18,33.5,18.1,33.5z"/>
			<path fill="#FFFFFF" d="M17.2,33.5c-0.2,0-0.6,0-0.7,0C16.7,33.5,17.1,33.5,17.2,33.5z"/>
			<path fill="#FFFFFF" d="M-0.4,14.5c0-0.2,0-0.4,0-0.4C-0.4,14.3-0.4,14.5-0.4,14.5z"/>
			<path fill="#FFFFFF" d="M-0.4,13.8c0-0.2,0-0.2,0-0.4C-0.4,13.6-0.4,13.6-0.4,13.8z"/>
			<path fill="#FFFFFF" d="M19.8,33.2c-0.2,0-0.4,0-0.4,0C19.4,33.4,19.6,33.2,19.8,33.2z"/>
			<path fill="#FFFFFF" d="M19.1,33.4c-0.2,0-0.5,0-0.7,0C18.5,33.4,18.7,33.4,19.1,33.4z"/>
			<path fill="#FFFFFF" d="M33.4,19.4v0.2V19.4L33.4,19.4z"/>
			<path fill="#FFFFFF" d="M22,32.6C21.8,32.6,21.8,32.6,22,32.6C21.8,32.6,21.8,32.6,22,32.6z"/>
			<path fill="#FFFFFF" d="M15.2-0.6c0.2,0,0.2,0,0.4,0C15.6-0.6,15.4-0.6,15.2-0.6z"/>
			<path fill="#FFFFFF" d="M-0.2,13.4c0-0.2,0-0.4,0-0.6C-0.2,13-0.2,13.2-0.2,13.4z"/>
			<path fill="#FFFFFF" d="M17.4-0.6c0.2,0,0.2,0,0.4,0C17.6-0.6,17.4-0.6,17.4-0.6z"/>
			<path fill="#FFFFFF" d="M21.8,32.6c-0.2,0-0.4,0.2-0.4,0.2S21.6,32.8,21.8,32.6z"/>
			<path fill="#FFFFFF" d="M20,33.2c-0.2,0-0.2,0-0.4,0C19.8,33.2,20,33.2,20,33.2z"/>
			<path fill="#FFFFFF" d="M19.2,33.4c-0.2,0-0.2,0-0.4,0C19.1,33.4,19.2,33.4,19.2,33.4z"/>
			<path fill="#FFFFFF" d="M21.1,33c-0.2,0-0.4,0.2-0.6,0.2C20.7,33,20.9,33,21.1,33z"/>
			<path fill="#FFFFFF" d="M-0.4,14.1c0-0.2,0-0.2,0-0.4C-0.4,13.9-0.4,13.9-0.4,14.1z"/>
			<path fill="#FFFFFF" d="M12.7-0.2c0.2,0,0.4-0.2,0.6-0.2C13-0.2,12.8-0.2,12.7-0.2z"/>
			<path fill="#FFFFFF" d="M11,0.4c0.2,0,0.6-0.2,0.7-0.2C11.4,0.2,11.2,0.4,11,0.4z"/>
			<path fill="#FFFFFF" d="M-0.6,14.9c0-0.2,0-0.2,0-0.4C-0.4,14.7-0.6,14.9-0.6,14.9z"/>
			<path fill="#FFFFFF" d="M11.7,0.2C11.9,0,12.3,0,12.5,0C12.3,0,11.9,0,11.7,0.2z"/>
			<path fill="#FFFFFF" d="M-0.6,15.8c0-0.2,0-0.2,0-0.4C-0.6,15.6-0.6,15.6-0.6,15.8z"/>
			<path fill="#FFFFFF" d="M14.3-0.4c0.2,0,0.4,0,0.6,0C14.7-0.4,14.5-0.4,14.3-0.4z"/>
			<path fill="#FFFFFF" d="M17.4,33.5h-0.2C17.4,33.5,17.4,33.5,17.4,33.5z"/>
			<path fill="#FFFFFF" d="M18.3,33.5h-0.2C18.1,33.5,18.1,33.5,18.3,33.5z"/>
			<path fill="#FFFFFF" d="M13.4-0.4c0.2,0,0.4,0,0.6-0.2C13.8-0.4,13.6-0.4,13.4-0.4z"/>
			<path fill="#FFFFFF" d="M19.8-0.2c0.2,0,0.4,0,0.5,0.2C20.2-0.2,20-0.2,19.8-0.2z"/>
			<path fill="#FFFFFF" d="M8.2,5.7V5.3H7.9L7.3,5.5l0.2,0.2H8.2z"/>
			<polygon fill="#FFFFFF" points="10.1,8.2 9.7,8.4 9.7,8.6 9.9,8.6 11,8.6 11,8.4 10.8,8.4 10.8,8.2 			"/>
			<path fill="#FFFFFF" d="M3.3,8.1C3.1,8.4,2.9,8.8,2.6,9.2l0.7-0.7V8.1z"/>
			<polygon fill="#FFFFFF" points="9.5,7.2 9.2,7 8.8,7.2 9,7.7 9.3,7.5 			"/>
			<path fill="#FFFFFF" d="M30.2,10.8l-0.4-0.4V9.7l-0.5,0.2l-0.2,0.9l-0.6-0.7V9.5L28,9l-0.2-0.2h-0.7l0.2,0.6L28,9.7l0.2,0.2H28
				v0.6l-0.4,0.2h-0.4l-0.2-0.4h0.6l0.2-0.2l-1.3-0.9l-0.2-0.4l-0.5,0.4L25.3,9l-0.7,0.9l-0.2,0.4h-0.5h-0.7l-0.4-0.2l-0.2-0.9
				l0.2-0.4l0.9,0.4l0.7,0.2L24.6,9h-0.4l0.2-0.7l0.7-0.2l0.5-0.9L26.2,7h0.5H27l-0.2-0.7l-0.5,0.2L26,5.9h-0.4V5.5L26,5.1l0.7-0.4
				l0.2-0.4c-2.9-2-6.4-3.5-10.4-3.5C13,0.9,9.9,2,7.3,3.8h0.7L8.4,4l0.7,0.2v0.2h1.1l-0.2-0.2L9.2,4l0.2-0.2V3.7H8.4l0.9-0.7h0.9
				l0.4,0.6h0.7l0.4-0.4l0.4,0.2l-0.5,0.5h-0.7v0.5h0.9l0.2-0.2h0.7V3.8l-0.4-0.2l0.2-0.4l0.4-0.2h1.1l-0.7,0.7l0.2,0.4h0.6V3.5
				l0.6-0.4l1.1-0.2l1.5,0.7v0.5l0.5,0.2L17.1,5h-0.7l-0.2,0.5l-1.5-0.4l1.3-0.5L15.4,4l-0.9,0.2v0.2l0,0l0,0l-0.6,0.2h-0.6v0.2h0.2
				l0,0h-0.4v0.2l-0.4,0.4V4.8l-0.7,0.4l-1.3,0.7L11,6.4l0.4,0.2l0.7,0.2v0.9h0.4L12.8,7l0.9-0.2V5.7l0.6-0.4l0.9,0.2v0.7h0.4
				l0.7-0.4v0.9l0.6,0.4v0.6l-0.6,0.2v0.2L17,8.4v0.4h-0.2l0,0l-0.9-0.4V8.1l0.2-0.2l0,0h-0.2v0.2h-0.6l0,0l0,0h-0.2L15,7.9h-0.2
				h-0.4h-0.2v0.4h0.4H15l0,0l-0.5,0.4V8.4h-0.2L13.6,9l0,0l-1.1,0.7l-0.9,0.9V11l-0.9,0.7l-0.6,0.5v0.9l-0.6-0.4v-0.6H7.7l-1.1,0.6
				l-0.4,0.7L6,14.1l0.2,0.6L7,14.9l1.3-0.7l0.2,0.4l-0.4,0.7L9,15.4l0.2,1.5l1.3,0.2l0.7-0.9l0.9,0.2l0.4,0.6h0.9v-0.2l0.6,0.2
				l0.6,0.9h0.9l0.4,0.5v0.7l1.1,0.4h1.5l0.4,0.7l0.6,0.2l-0.2,0.6l-0.7,0.9l-0.2,1.8l-0.6,0.5h-0.9l-0.2,0.2l0.2,0.9l-0.9,1.3
				l-0.4,0.5l-0.9,0.4l-0.6,0.2v0.2l0.4,0.2v0.4l-0.4,0.4l0.2,0.4h0.6v0.4l-0.2,0.4v0.4l0.7,0.5v0.4h-0.9l-0.9-0.7l-0.7-1.3l0.2-1.3
				l-0.6-0.7l-0.2-1.5h-0.4v-2.8l-0.9-0.7L10.3,22l-0.2-0.6l-0.9-1.3l0.2-0.5v-0.9l0.7-0.5v-0.9H8.8l-0.9-1.1l-0.7-0.2H6.8v-0.4H6.2
				v0.2L5,15.2l-0.6-0.9l0.2-0.4l-0.9-1.3v-0.9H3.3l0.2,0.9L4,13.6v0.4H3.5l-0.7-1.1v-1.3L2,11.2v-0.7c0.2-0.5,0.4-0.9,0.5-1.3
				C2.4,9.5,2.2,9.9,2,10.4c-0.7,1.8-1.1,3.9-1.1,6.1c0,8.6,7,15.6,15.6,15.6c4.9,0,9.4-2.2,12.1-5.9h-0.5v-1.1l-0.6-0.6v-1.3
				l-0.4-0.4v-0.5l0.6-1.1l-1.1-2l0.2-1.3l-1.1-0.2l-0.4-0.4h-0.7l-0.4,0.4h-1.1V18h-0.7l-1.5-1.6V15l0.2-0.2l0.2-0.6h-0.4l-0.2-0.6
				l1.6-1.3v-0.9l0.9-0.6h0.4h0.7l0.6-0.4l1.8-0.2v0.9l1.5,0.4l0.2,0.2h0.2v-0.2h0.7l0.7,0.6h1.3l0,0c0-0.6-0.2-1.1-0.2-1.5H30.2z
				 M23.6,6.4l0.2-0.2l0.5-0.2l0.2,0.6L24.8,7l0.2,0.4l0.4,0.2l-0.4,0.4h-0.6h-0.5V7.3h0.4V7.2L23.8,7l-0.2-0.2V6.4z M22.9,7.3
				l0.4-0.6l0.4-0.2L23.8,7v0.4l-0.7,0.4h-0.4L22.9,7.3L22.9,7.3z M14.3,9.3h-0.4V9.2L14.1,9L14.3,9.3L14.3,9.3z M15.6,9h-0.2v0.2
				H15h-0.2V9h-0.2l0,0H15l0.2-0.2L15.6,9L15.6,9L15.6,9z"/>
			<path fill="#FFFFFF" d="M30.8,10.1c-0.2-0.2-0.2-0.6-0.4-0.7l-0.2,0.2v0.7L30.8,10.1L30.8,10.1z"/>
			<path fill="#FFFFFF" d="M28.4,7.2l0.4-0.5c-0.2-0.4-0.5-0.6-0.7-0.9v0.7l-0.7,0.4V7L28.4,7.2z"/>
			<polygon fill="#FFFFFF" points="8.2,4.8 8.2,4.6 7.7,4.6 7.7,4.6 7.3,4.6 7.3,4.6 7.3,5 8.1,5 			"/>
			<polygon fill="#FFFFFF" points="11,8.2 11,8.6 11.4,8.6 			"/>
			<polygon fill="#FFFFFF" points="11.6,9.2 11.6,9.3 11.6,9.7 12.1,9.7 12.1,9.3 			"/>
			<polygon fill="#FFFFFF" points="11.7,8.8 11.7,9 11.9,9 12.1,9 			"/>
			<path fill="#FFFFFF" d="M31.7,13l0.2,0.2C31.7,13,31.7,13,31.7,13L31.7,13z"/>
			<path fill="#FFFFFF" d="M31.7,24.2c-2,3.9-5.5,7-9.7,8.4c5.9-2,10.3-7,11.4-13c0,0.4-0.2,0.5-0.2,0.9
				C32.8,21.8,32.3,23.1,31.7,24.2z"/>
			<polygon fill="#FFFFFF" points="10.8,9.3 11.2,9.3 11.4,9.2 11.4,8.8 10.8,8.8 			"/>
			<polygon fill="#FFFFFF" points="10.8,9.5 10.6,9.5 10.4,9.9 11,9.9 11.2,9.7 11.2,9.3 			"/>
			<polygon fill="#FFFFFF" points="9.5,9.5 9.9,9.7 10.4,8.8 10.1,8.8 9.7,9.2 			"/>
			<path fill="#FFFFFF" d="M33.5,18.1c0,0.2,0,0.4,0,0.5C33.4,18.3,33.5,18.3,33.5,18.1z"/>
			<path fill="#FFFFFF" d="M33.4,13.8c0,0.2,0,0.4,0,0.4C33.4,13.9,33.4,13.8,33.4,13.8z"/>
			<path fill="#FFFFFF" d="M33.5,17.2c0,0.2,0,0.2,0,0.4C33.5,17.6,33.5,17.4,33.5,17.2z"/>
			<path fill="#FFFFFF" d="M33,11.9c0.2,0.6,0.2,1.1,0.4,1.6C33.2,13,33,12.5,33,11.9z"/>
			<path fill="#FFFFFF" d="M18.1-0.6c0.2,0,0.4,0,0.4,0C18.5-0.4,18.3-0.4,18.1-0.6z"/>
			<path fill="#FFFFFF" d="M33.4,18.9c0,0.2,0,0.4,0,0.6C33.4,19.2,33.4,19.1,33.4,18.9z"/>
			<path fill="#FFFFFF" d="M20.5,0c0.2,0,0.4,0.2,0.6,0.2C20.9,0,20.7,0,20.5,0z"/>
			<path fill="#FFFFFF" d="M22,0.4c0.2,0,0.4,0.2,0.7,0.2C22.6,0.6,22.4,0.4,22,0.4z"/>
			<path fill="#FFFFFF" d="M19.1-0.4c0.2,0,0.4,0,0.6,0C19.2-0.4,19.2-0.4,19.1-0.4z"/>
			<path fill="#FFFFFF" d="M21.3,0.2c0.2,0,0.4,0.2,0.6,0.2C21.8,0.2,21.4,0.2,21.3,0.2z"/>
			<path fill="#FFFFFF" d="M-0.6,16.5L-0.6,16.5L-0.6,16.5c0,9.4,7.7,17,17,17l0,0l0,0C7.2,33.5-0.6,25.9-0.6,16.5z"/>
			<path fill="#FFFFFF" d="M33.5,15.9c0-0.6,0-1.1-0.2-1.7c0,0.2,0,0.2,0,0.4C33.5,15.2,33.5,15.6,33.5,15.9z"/>
			<path fill="#FFFFFF" d="M16.5-0.6L16.5-0.6L16.5-0.6L16.5-0.6L16.5-0.6z"/>
			<path fill="#FFFFFF" d="M5,4c1.6-1.6,3.7-2.8,6-3.7C5.5,2.2,1.1,7-0.2,12.8C0.4,10.3,1.5,8.1,2.9,6C3.7,5.3,4.2,4.6,5,4z"/>
			<path fill="#FFFFFF" d="M33.5,16.5L33.5,16.5L33.5,16.5L33.5,16.5L33.5,16.5z"/>
			<path fill="#FFFFFF" d="M28.8,4.6C28.8,4.8,29,4.8,29,5c1.3,1.5,2.4,3.1,3.1,5c0,0.2,0,0.2,0.2,0.4c0.2,0.6,0.4,1.1,0.5,1.7
				c-1.5-5.1-5.3-9.4-10.1-11.2c2,0.7,3.7,1.8,5.1,3.3C28.2,4.2,28.4,4.4,28.8,4.6z"/>
		</g>
	</g>
</g>
</svg>
