<?xml version="1.0" encoding="utf-8"?>
<!-- Generator: Adobe Illustrator 22.1.0, SVG Export Plug-In . SVG Version: 6.00 Build 0)  -->
<svg version="1.1" id="Layer_1" xmlns="http://www.w3.org/2000/svg" xmlns:xlink="http://www.w3.org/1999/xlink" x="0px" y="0px"
	 viewBox="0 0 127 107" enable-background="new 0 0 127 107" xml:space="preserve">
<g id="Page-1_1_">
	<g id="Homepage-V11" transform="translate(-657.000000, -1757.000000)">
		<g id="Group-7" transform="translate(240.000000, 1720.000000)">
			<g id="Sales-Hub" transform="translate(330.000000, 0.000000)">
				<g id="Illustrations_x2F_Sales-Professional" transform="translate(87.000000, 39.000000)">
					<g id="Page-1">
						<g id="Group-3" transform="translate(0.000000, 32.198608)">
							<path id="Fill-1" fill="#F9D28C" fill-opacity="0.5" d="M67.39508,1.42567c-2.20431-1.27372-5.81278-1.27372-8.01769,0
								L1.64665,34.7763c-2.20551,1.27372-2.19358,3.33852,0.02504,4.58778l57.68066,32.48258
								c2.21862,1.24986,5.84915,1.24986,8.06837,0l57.68066-32.48258c2.21922-1.24926,2.22995-3.31406,0.02504-4.58778
								L67.39508,1.42567z"/>
						</g>
						
							<polygon id="Stroke-4" fill="none" stroke="#33475C" stroke-width="5" stroke-linecap="round" stroke-linejoin="round" points="
							39.56145,45.84855 45.26036,49.14054 45.26036,28.72699 						"/>
						
							<polygon id="Stroke-5" fill="none" stroke="#33475C" stroke-width="5" stroke-linecap="round" stroke-linejoin="round" points="
							45.26012,28.72687 45.26012,49.14042 50.95902,52.43241 						"/>
						
							<polyline id="Stroke-6" fill="none" stroke="#33475C" stroke-width="5" stroke-linecap="round" stroke-linejoin="round" points="
							23.99036,68.0116 50.95848,52.43282 39.56128,45.84885 12.59375,61.42762 						"/>
						
							<polygon id="Stroke-7" fill="none" stroke="#33475C" stroke-width="5" stroke-linecap="round" stroke-linejoin="round" points="
							23.99036,68.0116 18.29146,44.30666 12.59375,61.42762 18.42263,61.21524 						"/>
						
							<polygon id="Stroke-8" fill="none" stroke="#33475C" stroke-width="5" stroke-linecap="round" stroke-linejoin="round" points="
							50.95878,52.43264 23.99066,68.01142 18.29176,44.30648 45.25988,28.7271 						"/>
						<g id="Group-472" transform="translate(12.521127, 0.579290)">
							<path id="Stroke-9" fill="none" stroke="#33475C" stroke-width="5" stroke-linecap="round" stroke-linejoin="round" d="
								M11.46923,67.43231l29.29347-20.68858c0,0-3.21077,1.42466-3.98053-1.77605L11.46923,67.43231z"/>
							
								<polygon id="Stroke-11" fill="none" stroke="#33475C" stroke-width="5" stroke-linecap="round" stroke-linejoin="round" points="
								11.46923,67.43231 38.43736,51.85353 37.4613,47.79015 27.04015,45.26956 0.07262,60.84834 5.9015,60.63595 							"/>
							
								<polygon id="Stroke-13" fill="none" stroke="#33475C" stroke-width="5" stroke-linecap="round" stroke-linejoin="round" points="
								29.88996,46.77881 5.90186,60.63643 11.46899,67.43219 19.89452,58.77447 							"/>
							
								<polygon id="Stroke-15" fill="none" stroke="#33475C" stroke-width="5" stroke-linecap="round" stroke-linejoin="round" points="
								11.46923,67.43231 5.9015,60.63595 0.07262,60.84834 5.9015,60.63595 							"/>
							<path id="Stroke-17" fill="none" stroke="#33475C" stroke-width="5" stroke-linecap="round" stroke-linejoin="round" d="
								M36.78224,44.9675l-4.04313-16.81969L5.77039,43.72719l5.6989,23.70494l29.29348-20.68798
								C40.76277,46.74415,37.55199,48.16821,36.78224,44.9675z"/>
							
								<polyline id="Stroke-21" fill="none" stroke="#33475C" stroke-width="5" stroke-linecap="round" stroke-linejoin="round" points="
								36.78224,44.9675 32.73911,28.14782 5.77039,43.72719 							"/>
							
								<polygon id="Stroke-23" fill="none" stroke="#33475C" stroke-width="5" stroke-linecap="round" stroke-linejoin="round" points="
								6.11293,43.87395 7.94877,51.51031 34.37848,36.24236 32.54205,28.6054 							"/>
							<path id="Stroke-25" fill="none" stroke="#33475C" stroke-width="5" stroke-linecap="round" stroke-linejoin="round" d="
								M8.90318,45.7173c-0.10136,0-0.20392-0.02565-0.29753-0.07994c-0.2856-0.16466-0.38338-0.52918-0.21823-0.81495
								c0.42333-0.73381,0.42333-2.02244,0-2.75625c-0.14012-0.24221-0.31303-0.39315-0.45076-0.39315
								c-0.13892,0-0.31184,0.15094-0.45136,0.39315c-0.15145,0.2625-0.254,0.60494-0.29633,0.98915
								c-0.03637,0.32753-0.32734,0.56438-0.65825,0.52798c-0.32674-0.03639-0.56345-0.33111-0.52708-0.65923
								c0.06022-0.54648,0.21524-1.0494,0.44897-1.45389c0.36311-0.62941,0.90391-0.99034,1.48405-0.99034
								c0.57955,0,1.12034,0.36094,1.48346,0.98974c0.63798,1.10727,0.63798,2.84216,0,3.94884
								C9.30982,45.60991,9.10948,45.7173,8.90318,45.7173z"/>
							<path id="Stroke-27" fill="none" stroke="#33475C" stroke-width="5" stroke-linecap="round" stroke-linejoin="round" d="
								M12.13303,43.88206c-0.10136,0-0.20392-0.02565-0.29753-0.08054c-0.2856-0.16406-0.38338-0.52917-0.21823-0.81435
								c0.42393-0.73381,0.42393-2.02244,0-2.75625c-0.14012-0.24222-0.31243-0.39315-0.45076-0.39315
								s-0.31124,0.15094-0.45076,0.39315c-0.15204,0.2631-0.2546,0.60554-0.29693,0.98974
								c-0.03578,0.32753-0.32555,0.56497-0.65825,0.52739c-0.32674-0.03639-0.56345-0.33111-0.52708-0.65863
								c0.06022-0.54767,0.21584-1.05,0.44957-1.45509c0.36311-0.62881,0.90391-0.98975,1.48346-0.98975h0.0006
								c0.58014,0.0006,1.12034,0.36094,1.48286,0.99034c0.63858,1.10668,0.63858,2.84156,0,3.94884
								C12.53967,43.77468,12.33933,43.88206,12.13303,43.88206z"/>
							<path id="Stroke-29" fill="none" stroke="#33475C" stroke-width="5" stroke-linecap="round" stroke-linejoin="round" d="
								M15.36348,42.04689c-0.10136,0-0.20392-0.02565-0.29753-0.07994c-0.2856-0.16466-0.38338-0.52918-0.21823-0.81495
								c0.42393-0.73381,0.42393-2.02185,0-2.75565c-0.14012-0.24281-0.31303-0.39315-0.45076-0.39315
								c-0.13893,0-0.31124,0.15034-0.45076,0.39256c-0.15204,0.2631-0.2546,0.60554-0.29693,0.98975
								c-0.03637,0.32753-0.32436,0.56616-0.65825,0.52798c-0.32674-0.03639-0.56345-0.33111-0.52708-0.65923
								c0.06022-0.54707,0.21584-1.05,0.44957-1.45509c0.36252-0.62881,0.90271-0.98915,1.48286-0.98915h0.0006
								c0.57955,0,1.12034,0.36034,1.48345,0.98975c0.63858,1.10667,0.63858,2.84216,0,3.94883
								C15.77012,41.9401,15.56978,42.04689,15.36348,42.04689z"/>
							<path id="Stroke-31" fill="none" stroke="#33475C" stroke-width="5" stroke-linecap="round" stroke-linejoin="round" d="
								M18.59393,40.21226c-0.10136,0-0.20392-0.02565-0.29753-0.07994c-0.2856-0.16466-0.38338-0.52917-0.21823-0.81495
								c0.42333-0.73381,0.42333-2.02244,0-2.75625c-0.14012-0.24221-0.31303-0.39315-0.45076-0.39315
								c-0.13892,0-0.31183,0.15094-0.45136,0.39315c-0.15204,0.26369-0.25459,0.60614-0.29633,0.98855
								c-0.03577,0.32693-0.3327,0.56258-0.65766,0.52858c-0.32674-0.03639-0.56345-0.33051-0.52768-0.65804
								c0.05903-0.54588,0.21465-1.04821,0.44897-1.45509c0.36311-0.62941,0.90391-0.99034,1.48405-0.99034
								c0.57955,0,1.12034,0.36094,1.48346,0.98974c0.63798,1.10727,0.63798,2.84216,0,3.94884
								C19.00057,40.10487,18.80023,40.21226,18.59393,40.21226z"/>
							<path id="Stroke-33" fill="none" stroke="#33475C" stroke-width="5" stroke-linecap="round" stroke-linejoin="round" d="
								M21.82379,38.37702c-0.10136,0-0.20392-0.02565-0.29753-0.08054c-0.2856-0.16406-0.38339-0.52917-0.21823-0.81435
								c0.42393-0.73381,0.42393-2.02185,0-2.75565c-0.14012-0.24281-0.31243-0.39315-0.45076-0.39315
								s-0.31124,0.15034-0.45076,0.39315c-0.15204,0.2625-0.2546,0.60494-0.29693,0.98915
								c-0.03637,0.32753-0.32137,0.56378-0.65825,0.52739c-0.32674-0.03639-0.56345-0.33111-0.52708-0.65863
								c0.06022-0.54767,0.21584-1.05,0.44957-1.45509c0.36311-0.62881,0.90391-0.98915,1.48346-0.98915h0.0006
								c0.58014,0,1.12034,0.36034,1.48286,0.98974c0.63917,1.10668,0.63917,2.84156,0,3.94884
								C22.23042,38.26964,22.03009,38.37702,21.82379,38.37702z"/>
							<path id="Stroke-35" fill="none" stroke="#33475C" stroke-width="5" stroke-linecap="round" stroke-linejoin="round" d="
								M25.05418,36.54179c-0.10136,0-0.20391-0.02565-0.29753-0.07994c-0.2856-0.16466-0.38338-0.52917-0.21823-0.81494
								c0.42393-0.73321,0.42333-2.02185,0-2.75625c-0.14012-0.24221-0.31303-0.39256-0.45076-0.39256
								c-0.13893,0-0.31124,0.15034-0.45076,0.39256c-0.15204,0.2631-0.2546,0.60554-0.29693,0.98975
								c-0.03637,0.32753-0.32913,0.56497-0.65825,0.52798c-0.32674-0.03639-0.56345-0.33111-0.52708-0.65923
								c0.06022-0.54708,0.21584-1.05,0.44957-1.45509c0.36252-0.62881,0.90271-0.98915,1.48286-0.98915h0.0006
								c0.57955,0,1.12034,0.36034,1.48345,0.98974c0.63858,1.10727,0.63858,2.84275,0,3.94884
								C25.46082,36.435,25.26048,36.54179,25.05418,36.54179z"/>
							<path id="Stroke-37" fill="none" stroke="#33475C" stroke-width="5" stroke-linecap="round" stroke-linejoin="round" d="
								M15.36348,42.04689c-0.10136,0-0.20392-0.02565-0.29753-0.07994c-0.2856-0.16466-0.38338-0.52918-0.21823-0.81495
								c0.42393-0.73381,0.42393-2.02185,0-2.75565c-0.14012-0.24281-0.31303-0.39315-0.45076-0.39315
								c-0.13893,0-0.31124,0.15034-0.45076,0.39256c-0.15204,0.2631-0.2546,0.60554-0.29693,0.98975
								c-0.03637,0.32753-0.32436,0.56616-0.65825,0.52798c-0.32674-0.03639-0.56345-0.33111-0.52708-0.65923
								c0.06022-0.54707,0.21584-1.05,0.44957-1.45509c0.36252-0.62881,0.90271-0.98915,1.48286-0.98915h0.0006
								c0.57955,0,1.12034,0.36034,1.48345,0.98975c0.63858,1.10667,0.63858,2.84216,0,3.94883
								C15.77012,41.9401,15.56978,42.04689,15.36348,42.04689z"/>
							<path id="Stroke-39" fill="none" stroke="#33475C" stroke-width="5" stroke-linecap="round" stroke-linejoin="round" d="
								M28.28403,34.70715c-0.10136,0-0.20391-0.02565-0.29753-0.08054c-0.2856-0.16406-0.38338-0.52917-0.21823-0.81435
								c0.42393-0.73381,0.42393-2.02244,0.0006-2.75625c-0.14012-0.24222-0.31303-0.39315-0.45076-0.39315
								c-0.13893,0-0.31184,0.15094-0.45136,0.39315c-0.15204,0.26369-0.2546,0.60614-0.29633,0.98855
								c-0.03637,0.32753-0.32853,0.56079-0.65766,0.52858c-0.32674-0.03579-0.56345-0.33051-0.52768-0.65804
								c0.05903-0.54528,0.21465-1.04821,0.44897-1.45509c0.36311-0.6294,0.90391-0.99034,1.48405-0.99034
								c0.57955,0,1.12034,0.36094,1.48346,0.98974c0.63858,1.10727,0.63798,2.84275-0.0006,3.94943
								C28.69067,34.59977,28.49033,34.70715,28.28403,34.70715z"/>
							<path id="Stroke-41" fill="none" stroke="#33475C" stroke-width="5" stroke-linecap="round" stroke-linejoin="round" d="
								M18.59393,40.21226c-0.10136,0-0.20392-0.02565-0.29753-0.07994c-0.2856-0.16466-0.38338-0.52917-0.21823-0.81495
								c0.42333-0.73381,0.42333-2.02244,0-2.75625c-0.14012-0.24221-0.31303-0.39315-0.45076-0.39315
								c-0.13892,0-0.31183,0.15094-0.45136,0.39315c-0.15204,0.26369-0.25459,0.60614-0.29633,0.98855
								c-0.03577,0.32693-0.3327,0.56258-0.65766,0.52858c-0.32674-0.03639-0.56345-0.33051-0.52768-0.65804
								c0.05903-0.54588,0.21465-1.04821,0.44897-1.45509c0.36311-0.62941,0.90391-0.99034,1.48405-0.99034
								c0.57955,0,1.12034,0.36094,1.48346,0.98974c0.63798,1.10727,0.63798,2.84216,0,3.94884
								C19.00057,40.10487,18.80023,40.21226,18.59393,40.21226z"/>
							<path id="Stroke-43" fill="none" stroke="#33475C" stroke-width="5" stroke-linecap="round" stroke-linejoin="round" d="
								M31.51448,32.87198c-0.10136,0-0.20392-0.02565-0.29753-0.07994c-0.2856-0.16466-0.38338-0.52918-0.21823-0.81494
								c0.42393-0.73381,0.42393-2.02185,0-2.75566c-0.14012-0.24281-0.31303-0.39315-0.45076-0.39315
								c-0.13893,0-0.31124,0.15034-0.45076,0.39256c-0.15204,0.2631-0.2546,0.60554-0.29693,0.98974
								c-0.03637,0.32753-0.32674,0.56258-0.65825,0.52739c-0.32674-0.03639-0.56345-0.33111-0.52708-0.65864
								c0.06022-0.54707,0.21584-1.05,0.44957-1.45509c0.36252-0.62881,0.90271-0.98915,1.48286-0.98915h0.0006
								c0.57955,0,1.12034,0.36034,1.48345,0.98974c0.63858,1.10668,0.63858,2.84216,0,3.94884
								C31.92112,32.76519,31.72078,32.87198,31.51448,32.87198z"/>
							<path id="Stroke-45" fill="none" stroke="#33475C" stroke-width="5" stroke-linecap="round" stroke-linejoin="round" d="
								M37.94855,47.08236c-0.60757-0.30009-1.04999-0.83105-1.31889-1.58097L15.6842,64.09116L39.38013,47.355
								C38.92461,47.37349,38.41899,47.31503,37.94855,47.08236z"/>
							<path id="Stroke-47" fill="none" stroke="#33475C" stroke-width="5" stroke-linecap="round" stroke-linejoin="round" d="
								M11.17928,55.21264l21.25074-12.27546"/>
							<path id="Stroke-49" fill="none" stroke="#33475C" stroke-width="5" stroke-linecap="round" stroke-linejoin="round" d="
								M12.1406,58.89534l13.09471-7.56477"/>
							<path id="Stroke-51" fill="none" stroke="#33475C" stroke-width="5" stroke-linecap="round" stroke-linejoin="round" d="
								M12.9255,50.88622l2.43804,10.13906"/>
							<path id="Stroke-53" fill="none" stroke="#33475C" stroke-width="5" stroke-linecap="round" stroke-linejoin="round" d="
								M16.48317,48.56101l2.20431,9.17139"/>
							<path id="Stroke-55" fill="none" stroke="#33475C" stroke-width="5" stroke-linecap="round" stroke-linejoin="round" d="
								M20.16253,46.71939l1.94197,8.07665"/>
							<polygon id="Fill-57" fill="#FFFFFF" points="27.04033,45.26926 32.73923,48.56125 32.73923,28.1477 							"/>
							<polygon id="Stroke-59" fill="none" stroke="#33475C" stroke-linecap="round" stroke-linejoin="round" points="
								27.04033,45.26926 32.73923,48.56125 32.73923,28.1477 							"/>
							<polygon id="Fill-61" fill="#FFFFFF" points="32.73899,28.14758 32.73899,48.56113 38.43789,51.85312 							"/>
							<polygon id="Stroke-63" fill="none" stroke="#33475C" stroke-linecap="round" stroke-linejoin="round" points="
								32.73899,28.14758 32.73899,48.56113 38.43789,51.85312 							"/>
							<polyline id="Stroke-65" fill="none" stroke="#33475C" stroke-linecap="round" stroke-linejoin="round" points="
								11.46923,67.43231 38.43736,51.85353 27.04015,45.26956 0.07262,60.84834 							"/>
							<polygon id="Fill-67" fill="#E6EFF6" points="11.46923,67.43231 5.77033,43.72737 0.07262,60.84834 5.9015,60.63595 							
								"/>
							<polygon id="Stroke-69" fill="none" stroke="#33475C" points="11.46923,67.43231 5.77033,43.72737 0.07262,60.84834 
								5.9015,60.63595 							"/>
							<polygon id="Fill-71" fill="#FFFFFF" points="38.43765,51.85336 11.46953,67.43214 5.77063,43.72719 32.73875,28.14782 
															"/>
							<polygon id="Stroke-73" fill="none" stroke="#33475C" stroke-linecap="round" stroke-linejoin="round" points="
								38.43765,51.85336 11.46953,67.43214 5.77063,43.72719 32.73875,28.14782 							"/>
							<path id="Fill-75" fill="#FFFFFF" d="M11.46923,67.43231l29.29347-20.68858c0,0-3.21077,1.42466-3.98053-1.77605
								L11.46923,67.43231z"/>
							<path id="Stroke-77" fill="none" stroke="#33475C" stroke-linecap="round" stroke-linejoin="round" d="M11.46923,67.43231
								l29.29347-20.68858c0,0-3.21077,1.42466-3.98053-1.77605L11.46923,67.43231z"/>
							<polygon id="Fill-79" fill="#D4E7F7" points="11.46923,67.43231 38.43736,51.85353 37.4613,47.79015 27.04015,45.26956 
								0.07262,60.84834 5.9015,60.63595 							"/>
							<polygon id="Stroke-81" fill="none" stroke="#33475C" points="11.46923,67.43231 38.43736,51.85353 37.4613,47.79015 
								27.04015,45.26956 0.07262,60.84834 5.9015,60.63595 							"/>
							<polygon id="Fill-83" fill="#E6EFF6" points="29.88996,46.77881 5.90186,60.63643 11.46899,67.43219 19.89452,58.77447 
															"/>
							<polygon id="Stroke-85" fill="none" stroke="#33475C" points="29.88996,46.77881 5.90186,60.63643 11.46899,67.43219 
								19.89452,58.77447 							"/>
							<g id="Group-91" transform="translate(0.000000, 60.255682)">
								<polygon id="Fill-87" fill="#FFFFFF" points="11.46923,7.17663 5.9015,0.38027 0.07262,0.59265 5.9015,0.38027 								"/>
								<polygon id="Stroke-89" fill="none" stroke="#33475C" stroke-linecap="round" stroke-linejoin="round" points="
									11.46923,7.17663 5.9015,0.38027 0.07262,0.59265 5.9015,0.38027 								"/>
							</g>
							<path id="Fill-92" fill="#FFFFFF" d="M36.78224,44.9675l-4.04313-16.81969L5.77039,43.72719l5.6989,23.70494
								l29.29348-20.68798C40.76277,46.74415,37.55199,48.16821,36.78224,44.9675"/>
							<path id="Stroke-94" fill="none" stroke="#33475C" stroke-linecap="round" stroke-linejoin="round" d="M36.78224,44.9675
								l-4.04313-16.81969L5.77039,43.72719l5.6989,23.70494l29.29348-20.68798
								C40.76277,46.74415,37.55199,48.16821,36.78224,44.9675z"/>
							<g id="Group-103" transform="translate(5.366197, 28.039773)">
								<polyline id="Fill-100" fill="#FFFFFF" points="31.41604,16.92773 27.37291,0.10804 0.40419,15.68742 								"/>
								<polyline id="Stroke-102" fill="none" stroke="#33475C" stroke-linecap="round" stroke-linejoin="round" points="
									31.41604,16.92773 27.37291,0.10804 0.40419,15.68742 								"/>
							</g>
							<polygon id="Fill-104" fill="#7C98B6" points="6.11293,43.87395 7.94877,51.51031 34.37848,36.24236 32.54205,28.6054 
															"/>
							<path id="Fill-106" fill="#F6C364" d="M8.90318,45.7173c-0.10136,0-0.20392-0.02565-0.29753-0.07994
								c-0.2856-0.16466-0.38338-0.52918-0.21823-0.81495c0.42333-0.73381,0.42333-2.02244,0-2.75625
								c-0.14012-0.24221-0.31303-0.39315-0.45076-0.39315c-0.13892,0-0.31184,0.15094-0.45136,0.39315
								c-0.15145,0.2625-0.254,0.60494-0.29633,0.98915c-0.03637,0.32753-0.32734,0.56438-0.65825,0.52798
								c-0.32674-0.03639-0.56345-0.33111-0.52708-0.65923c0.06022-0.54648,0.21524-1.0494,0.44897-1.45389
								c0.36311-0.62941,0.90391-0.99034,1.48405-0.99034c0.57955,0,1.12034,0.36094,1.48346,0.98974
								c0.63798,1.10727,0.63798,2.84216,0,3.94884C9.30982,45.60991,9.10948,45.7173,8.90318,45.7173"/>
							<path id="Fill-108" fill="#F6C364" d="M12.13303,43.88206c-0.10136,0-0.20392-0.02565-0.29753-0.08054
								c-0.2856-0.16406-0.38338-0.52917-0.21823-0.81435c0.42393-0.73381,0.42393-2.02244,0-2.75625
								c-0.14012-0.24222-0.31243-0.39315-0.45076-0.39315s-0.31124,0.15094-0.45076,0.39315
								c-0.15204,0.2631-0.2546,0.60554-0.29693,0.98974c-0.03578,0.32753-0.32555,0.56497-0.65825,0.52739
								c-0.32674-0.03639-0.56345-0.33111-0.52708-0.65863c0.06022-0.54767,0.21584-1.05,0.44957-1.45509
								c0.36311-0.62881,0.90391-0.98975,1.48346-0.98975h0.0006c0.58014,0.0006,1.12034,0.36094,1.48286,0.99034
								c0.63858,1.10668,0.63858,2.84156,0,3.94884C12.53967,43.77468,12.33933,43.88206,12.13303,43.88206"/>
							<path id="Fill-110" fill="#F6C364" d="M15.36348,42.04689c-0.10136,0-0.20392-0.02565-0.29753-0.07994
								c-0.2856-0.16466-0.38338-0.52918-0.21823-0.81495c0.42393-0.73381,0.42393-2.02185,0-2.75565
								c-0.14012-0.24281-0.31303-0.39315-0.45076-0.39315c-0.13893,0-0.31124,0.15034-0.45076,0.39256
								c-0.15204,0.2631-0.2546,0.60554-0.29693,0.98975c-0.03637,0.32753-0.32436,0.56616-0.65825,0.52798
								c-0.32674-0.03639-0.56345-0.33111-0.52708-0.65923c0.06022-0.54707,0.21584-1.05,0.44957-1.45509
								c0.36252-0.62881,0.90271-0.98915,1.48286-0.98915h0.0006c0.57955,0,1.12034,0.36034,1.48345,0.98975
								c0.63858,1.10667,0.63858,2.84216,0,3.94883C15.77012,41.9401,15.56978,42.04689,15.36348,42.04689"/>
							<path id="Fill-112" fill="#F6C364" d="M18.59393,40.21226c-0.10136,0-0.20392-0.02565-0.29753-0.07994
								c-0.2856-0.16466-0.38338-0.52917-0.21823-0.81495c0.42333-0.73381,0.42333-2.02244,0-2.75625
								c-0.14012-0.24221-0.31303-0.39315-0.45076-0.39315c-0.13892,0-0.31183,0.15094-0.45136,0.39315
								c-0.15204,0.26369-0.25459,0.60614-0.29633,0.98855c-0.03577,0.32693-0.3327,0.56258-0.65766,0.52858
								c-0.32674-0.03639-0.56345-0.33051-0.52768-0.65804c0.05903-0.54588,0.21465-1.04821,0.44897-1.45509
								c0.36311-0.62941,0.90391-0.99034,1.48405-0.99034c0.57955,0,1.12034,0.36094,1.48346,0.98974
								c0.63798,1.10727,0.63798,2.84216,0,3.94884C19.00057,40.10487,18.80023,40.21226,18.59393,40.21226"/>
							<path id="Fill-114" fill="#F6C364" d="M21.82379,38.37702c-0.10136,0-0.20392-0.02565-0.29753-0.08054
								c-0.2856-0.16406-0.38339-0.52917-0.21823-0.81435c0.42393-0.73381,0.42393-2.02185,0-2.75565
								c-0.14012-0.24281-0.31243-0.39315-0.45076-0.39315s-0.31124,0.15034-0.45076,0.39315
								c-0.15204,0.2625-0.2546,0.60494-0.29693,0.98915c-0.03637,0.32753-0.32137,0.56378-0.65825,0.52739
								c-0.32674-0.03639-0.56345-0.33111-0.52708-0.65863c0.06022-0.54767,0.21584-1.05,0.44957-1.45509
								c0.36311-0.62881,0.90391-0.98915,1.48346-0.98915h0.0006c0.58014,0,1.12034,0.36034,1.48286,0.98974
								c0.63917,1.10668,0.63917,2.84156,0,3.94884C22.23042,38.26964,22.03009,38.37702,21.82379,38.37702"/>
							<path id="Fill-116" fill="#F6C364" d="M25.05418,36.54179c-0.10136,0-0.20391-0.02565-0.29753-0.07994
								c-0.2856-0.16466-0.38338-0.52917-0.21823-0.81494c0.42393-0.73321,0.42333-2.02185,0-2.75625
								c-0.14012-0.24221-0.31303-0.39256-0.45076-0.39256c-0.13893,0-0.31124,0.15034-0.45076,0.39256
								c-0.15204,0.2631-0.2546,0.60554-0.29693,0.98975c-0.03637,0.32753-0.32913,0.56497-0.65825,0.52798
								c-0.32674-0.03639-0.56345-0.33111-0.52708-0.65923c0.06022-0.54708,0.21584-1.05,0.44957-1.45509
								c0.36252-0.62881,0.90271-0.98915,1.48286-0.98915h0.0006c0.57955,0,1.12034,0.36034,1.48345,0.98974
								c0.63858,1.10727,0.63858,2.84275,0,3.94884C25.46082,36.435,25.26048,36.54179,25.05418,36.54179"/>
							<path id="Fill-118" fill="#F6C364" d="M15.36348,42.04689c-0.10136,0-0.20392-0.02565-0.29753-0.07994
								c-0.2856-0.16466-0.38338-0.52918-0.21823-0.81495c0.42393-0.73381,0.42393-2.02185,0-2.75565
								c-0.14012-0.24281-0.31303-0.39315-0.45076-0.39315c-0.13893,0-0.31124,0.15034-0.45076,0.39256
								c-0.15204,0.2631-0.2546,0.60554-0.29693,0.98975c-0.03637,0.32753-0.32436,0.56616-0.65825,0.52798
								c-0.32674-0.03639-0.56345-0.33111-0.52708-0.65923c0.06022-0.54707,0.21584-1.05,0.44957-1.45509
								c0.36252-0.62881,0.90271-0.98915,1.48286-0.98915h0.0006c0.57955,0,1.12034,0.36034,1.48345,0.98975
								c0.63858,1.10667,0.63858,2.84216,0,3.94883C15.77012,41.9401,15.56978,42.04689,15.36348,42.04689"/>
							<path id="Fill-120" fill="#F6C364" d="M28.28403,34.70715c-0.10136,0-0.20391-0.02565-0.29753-0.08054
								c-0.2856-0.16406-0.38338-0.52917-0.21823-0.81435c0.42393-0.73381,0.42393-2.02244,0.0006-2.75625
								c-0.14012-0.24222-0.31303-0.39315-0.45076-0.39315c-0.13893,0-0.31184,0.15094-0.45136,0.39315
								c-0.15204,0.26369-0.2546,0.60614-0.29633,0.98855c-0.03637,0.32753-0.32853,0.56079-0.65766,0.52858
								c-0.32674-0.03579-0.56345-0.33051-0.52768-0.65804c0.05903-0.54528,0.21465-1.04821,0.44897-1.45509
								c0.36311-0.6294,0.90391-0.99034,1.48405-0.99034c0.57955,0,1.12034,0.36094,1.48346,0.98974
								c0.63858,1.10727,0.63798,2.84275-0.0006,3.94943C28.69067,34.59977,28.49033,34.70715,28.28403,34.70715"/>
							<path id="Fill-122" fill="#F6C364" d="M18.59393,40.21226c-0.10136,0-0.20392-0.02565-0.29753-0.07994
								c-0.2856-0.16466-0.38338-0.52917-0.21823-0.81495c0.42333-0.73381,0.42333-2.02244,0-2.75625
								c-0.14012-0.24221-0.31303-0.39315-0.45076-0.39315c-0.13892,0-0.31183,0.15094-0.45136,0.39315
								c-0.15204,0.26369-0.25459,0.60614-0.29633,0.98855c-0.03577,0.32693-0.3327,0.56258-0.65766,0.52858
								c-0.32674-0.03639-0.56345-0.33051-0.52768-0.65804c0.05903-0.54588,0.21465-1.04821,0.44897-1.45509
								c0.36311-0.62941,0.90391-0.99034,1.48405-0.99034c0.57955,0,1.12034,0.36094,1.48346,0.98974
								c0.63798,1.10727,0.63798,2.84216,0,3.94884C19.00057,40.10487,18.80023,40.21226,18.59393,40.21226"/>
							<path id="Fill-124" fill="#F6C364" d="M31.51448,32.87198c-0.10136,0-0.20392-0.02565-0.29753-0.07994
								c-0.2856-0.16466-0.38338-0.52918-0.21823-0.81494c0.42393-0.73381,0.42393-2.02185,0-2.75566
								c-0.14012-0.24281-0.31303-0.39315-0.45076-0.39315c-0.13893,0-0.31124,0.15034-0.45076,0.39256
								c-0.15204,0.2631-0.2546,0.60554-0.29693,0.98974c-0.03637,0.32753-0.32674,0.56258-0.65825,0.52739
								c-0.32674-0.03639-0.56345-0.33111-0.52708-0.65864c0.06022-0.54707,0.21584-1.05,0.44957-1.45509
								c0.36252-0.62881,0.90271-0.98915,1.48286-0.98915h0.0006c0.57955,0,1.12034,0.36034,1.48345,0.98974
								c0.63858,1.10668,0.63858,2.84216,0,3.94884C31.92112,32.76519,31.72078,32.87198,31.51448,32.87198"/>
							<path id="Fill-126" fill="#E6EFF6" d="M37.94855,47.08236c-0.60757-0.30009-1.04999-0.83105-1.31889-1.58097
								L15.6842,64.09116L39.38013,47.355C38.92461,47.37349,38.41899,47.31503,37.94855,47.08236"/>
							<g id="Group-131" transform="translate(10.732394, 42.357955)">
								<path id="Fill-128" fill="#33475C" d="M0.44688,12.85468L21.69762,0.57923"/>
								<path id="Stroke-130" fill="none" stroke="#D4E7F7" stroke-linecap="round" stroke-linejoin="round" d="M0.44688,12.85468
									L21.69762,0.57923"/>
							</g>
							<g id="Group-135" transform="translate(11.924883, 51.306818)">
								<path id="Fill-132" fill="#33475C" d="M0.21572,7.58852l13.09471-7.56477"/>
								<path id="Stroke-134" fill="none" stroke="#D4E7F7" stroke-linecap="round" stroke-linejoin="round" d="M0.21572,7.58852
									l13.09471-7.56477"/>
							</g>
							<g id="Group-139" transform="translate(12.521127, 50.710227)">
								<path id="Fill-136" fill="#33475C" d="M0.40437,0.17599l2.43804,10.13906"/>
								<path id="Stroke-138" fill="none" stroke="#D4E7F7" stroke-linecap="round" stroke-linejoin="round" d="M0.40437,0.17599
									l2.43804,10.13906"/>
							</g>
							<g id="Group-143" transform="translate(16.098592, 48.323864)">
								<path id="Fill-140" fill="#33475C" d="M0.38458,0.23714l2.20431,9.17139"/>
								<path id="Stroke-142" fill="none" stroke="#D4E7F7" stroke-linecap="round" stroke-linejoin="round" d="M0.38458,0.23714
									l2.20431,9.17139"/>
							</g>
							<g id="Group-147" transform="translate(19.676056, 46.534091)">
								<path id="Fill-144" fill="#33475C" d="M0.48648,0.1853l1.94197,8.07665"/>
								<path id="Stroke-146" fill="none" stroke="#D4E7F7" stroke-linecap="round" stroke-linejoin="round" d="M0.48648,0.1853
									l1.94197,8.07665"/>
							</g>
							<path id="Stroke-148" fill="none" stroke="#33475C" stroke-width="5" stroke-linecap="round" stroke-linejoin="round" d="
								M103.0667,58.78407l0.12461,3.21145L103.0667,58.78407z"/>
							<path id="Stroke-150" fill="none" stroke="#33475C" stroke-width="5" stroke-linecap="round" stroke-linejoin="round" d="
								M103.19125,61.9954L57.60183,35.65889c0.05068,1.3119-0.83713,2.9221-1.97357,3.57835l45.58942,26.33591
								C102.35413,64.91691,103.24194,63.30671,103.19125,61.9954z"/>
							
								<polygon id="Stroke-152" fill="none" stroke="#33475C" stroke-width="5" stroke-linecap="round" stroke-linejoin="round" points="
								101.21799,65.57316 55.62856,39.23665 48.36273,43.43486 93.95097,69.77077 							"/>
							
								<polygon id="Stroke-154" fill="none" stroke="#33475C" stroke-width="5" stroke-linecap="round" stroke-linejoin="round" points="
								56.29469,1.82712 101.88232,28.12306 103.19108,61.9957 57.60165,35.65919 							"/>
							<path id="Stroke-156" fill="none" stroke="#33475C" stroke-width="5" stroke-linecap="round" stroke-linejoin="round" d="
								M91.98258,68.63361L48.36255,43.4348c-0.56822,0.32812-1.07383,0.35796-1.43158,0.14199l45.58883,26.3365
								C92.17338,69.7039,91.97066,69.25883,91.98258,68.63361z"/>
							<path id="Stroke-158" fill="none" stroke="#33475C" stroke-width="5" stroke-linecap="round" stroke-linejoin="round" d="
								M95.53852,29.34953c-1.13584,0.65685-2.10712,2.26645-2.159,3.57775l-1.39999,35.65228
								c-0.05187,1.3113,0.83594,1.84764,1.97179,1.19139l7.26643-4.19762c1.13644-0.65625,2.02425-2.26645,1.97356-3.57775
								l-1.30875-33.87264c-0.05068-1.31131-1.02197-1.84705-2.15781-1.19139L95.53852,29.34953z"/>
							<path id="Stroke-160" fill="none" stroke="#33475C" stroke-width="5" stroke-linecap="round" stroke-linejoin="round" d="
								M46.86079,30.26595l-0.46984,11.97716c-0.02623,0.65625,0.18305,1.11801,0.5402,1.33398l45.58882,26.33591
								c-0.35715-0.21537-0.56583-0.67773-0.54019-1.33338L92.452,56.55891L46.86079,30.26595z"/>
							
								<polygon id="Stroke-162" fill="none" stroke="#33475C" stroke-width="5" stroke-linecap="round" stroke-linejoin="round" points="
								93.35561,33.54255 92.15776,64.04207 96.04229,67.12167 96.25038,33.6213 93.41225,33.41965 							"/>
							
								<polygon id="Stroke-164" fill="none" stroke="#33475C" stroke-width="5" stroke-linecap="round" stroke-linejoin="round" points="
								96.06841,62.93336 100.17414,64.89376 99.1009,32.24711 96.25085,31.86589 96.25085,33.62106 							"/>
							
								<polygon id="Stroke-166" fill="none" stroke="#33475C" stroke-width="5" stroke-linecap="round" stroke-linejoin="round" points="
								100.05752,61.34577 103.19138,62.21083 101.981,30.67802 99.04092,30.29679 99.10114,32.24765 							"/>
							<path id="Stroke-168" fill="none" stroke="#33475C" stroke-width="5" stroke-linecap="round" stroke-linejoin="round" d="
								M47.60896,42.59104c-0.0149-0.04951-0.03279-0.14795-0.02683-0.30068l0.39293-10.00423"/>
							<path id="Stroke-170" fill="none" stroke="#33475C" stroke-width="5" stroke-linecap="round" stroke-linejoin="round" d="
								M91.23203,57.23258l-0.40604,10.3246"/>
							<path id="Fill-172" fill="#E6EFF6" d="M103.0667,58.78407l0.12461,3.21145L103.0667,58.78407z"/>
							<path id="Stroke-174" fill="none" stroke="#33475C" stroke-linecap="round" stroke-linejoin="round" d="M103.0667,58.78407
								l0.12461,3.21145L103.0667,58.78407z"/>
							<path id="Fill-176" fill="#E6EFF6" d="M103.19125,61.9954L57.60183,35.65889c0.05068,1.3119-0.83713,2.9221-1.97357,3.57835
								l45.58942,26.33591C102.35413,64.91691,103.24194,63.30671,103.19125,61.9954"/>
							<path id="Stroke-178" fill="none" stroke="#33475C" stroke-linecap="round" stroke-linejoin="round" d="M103.19125,61.9954
								L57.60183,35.65889c0.05068,1.3119-0.83713,2.9221-1.97357,3.57835l45.58942,26.33591
								C102.35413,64.91691,103.24194,63.30671,103.19125,61.9954z"/>
							<polygon id="Fill-180" fill="#E6EFF6" points="101.21799,65.57316 55.62856,39.23665 48.36273,43.43486 93.95097,69.77077 
															"/>
							<polygon id="Stroke-182" fill="none" stroke="#33475C" stroke-linecap="round" stroke-linejoin="round" points="
								101.21799,65.57316 55.62856,39.23665 48.36273,43.43486 93.95097,69.77077 							"/>
							<polygon id="Fill-184" fill="#E6EFF6" points="56.29469,1.82712 101.88232,28.12306 103.19108,61.9957 57.60165,35.65919 
															"/>
							<polygon id="Stroke-186" fill="none" stroke="#33475C" stroke-linecap="round" stroke-linejoin="round" points="
								56.29469,1.82712 101.88232,28.12306 103.19108,61.9957 57.60165,35.65919 							"/>
							<path id="Fill-188" fill="#E6EFF6" d="M91.98258,68.63361L48.36255,43.4348
								c-0.56822,0.32812-1.07383,0.35796-1.43158,0.14199l45.58883,26.3365C92.17338,69.7039,91.97066,69.25883,91.98258,68.63361"
								/>
							<path id="Stroke-190" fill="none" stroke="#33475C" stroke-linecap="round" stroke-linejoin="round" d="M91.98258,68.63361
								L48.36255,43.4348c-0.56822,0.32812-1.07383,0.35796-1.43158,0.14199l45.58883,26.3365
								C92.17338,69.7039,91.97066,69.25883,91.98258,68.63361z"/>
							<path id="Fill-192" fill="#415A77" d="M95.53852,29.34953c-1.13584,0.65685-2.10712,2.26645-2.159,3.57775l-1.39999,35.65228
								c-0.05187,1.3113,0.83594,1.84764,1.97179,1.19139l7.26643-4.19762c1.13644-0.65625,2.02425-2.26645,1.97356-3.57775
								l-1.30875-33.87264c-0.05068-1.31131-1.02197-1.84705-2.15781-1.19139L95.53852,29.34953z"/>
							<path id="Stroke-194" fill="none" stroke="#33475C" stroke-linecap="round" stroke-linejoin="round" d="M95.53852,29.34953
								c-1.13584,0.65685-2.10712,2.26645-2.159,3.57775l-1.39999,35.65228c-0.05187,1.3113,0.83594,1.84764,1.97179,1.19139
								l7.26643-4.19762c1.13644-0.65625,2.02425-2.26645,1.97356-3.57775l-1.30875-33.87264
								c-0.05068-1.31131-1.02197-1.84705-2.15781-1.19139L95.53852,29.34953z"/>
							<path id="Fill-196" fill="#415A77" d="M46.86079,30.26595l-0.46984,11.97716
								c-0.02623,0.65625,0.18305,1.11801,0.5402,1.33398l45.58882,26.33591c-0.35715-0.21537-0.56583-0.67773-0.54019-1.33338
								L92.452,56.55891L46.86079,30.26595z"/>
							<path id="Stroke-198" fill="none" stroke="#33475C" stroke-linecap="round" stroke-linejoin="round" d="M46.86079,30.26595
								l-0.46984,11.97716c-0.02623,0.65625,0.18305,1.11801,0.5402,1.33398l45.58882,26.33591
								c-0.35715-0.21537-0.56583-0.67773-0.54019-1.33338L92.452,56.55891L46.86079,30.26595z"/>
							<polygon id="Fill-200" fill="#506E91" points="93.35561,33.54255 92.15776,64.04207 96.04229,67.12167 96.25038,33.6213 
								93.41225,33.41965 							"/>
							<polygon id="Stroke-202" fill="none" stroke="#33475C" stroke-linecap="round" stroke-linejoin="round" points="
								93.35561,33.54255 92.15776,64.04207 96.04229,67.12167 96.25038,33.6213 93.41225,33.41965 							"/>
							<polygon id="Fill-204" fill="#506E91" points="96.06841,62.93336 100.17414,64.89376 99.1009,32.24711 96.25085,31.86589 
								96.25085,33.62106 							"/>
							<polygon id="Stroke-206" fill="none" stroke="#33475C" stroke-linecap="round" stroke-linejoin="round" points="
								96.06841,62.93336 100.17414,64.89376 99.1009,32.24711 96.25085,31.86589 96.25085,33.62106 							"/>
							<polygon id="Fill-208" fill="#506E91" points="100.05752,61.34577 103.19138,62.21083 101.981,30.67802 99.04092,30.29679 
								99.10114,32.24765 							"/>
							<polygon id="Stroke-210" fill="none" stroke="#33475C" stroke-linecap="round" stroke-linejoin="round" points="
								100.05752,61.34577 103.19138,62.21083 101.981,30.67802 99.04092,30.29679 99.10114,32.24765 							"/>
							
								<path id="Stroke-212" fill="none" stroke="#506E91" stroke-linecap="round" stroke-linejoin="round" stroke-dasharray="2,3" d="
								M47.60896,42.59104c-0.0149-0.04951-0.03279-0.14795-0.02683-0.30068l0.39293-10.00423"/>
							
								<path id="Stroke-214" fill="none" stroke="#506E91" stroke-linecap="round" stroke-linejoin="round" stroke-dasharray="2,3" d="
								M91.23203,57.23258l-0.40604,10.3246"/>
							<path id="Stroke-216" fill="none" stroke="#33475C" stroke-width="5" stroke-linecap="round" stroke-linejoin="round" d="
								M93.37946,32.92728c0.05187-1.31131,1.02316-2.92091,2.159-3.57775l4.18623-2.41798
								c0.54616-0.3156,1.05058-0.3496,1.43695-0.15989v-0.00477L55.61992,0.45245
								c-0.39054-0.21477-0.91702-0.18494-1.48405,0.14318l-4.18623,2.41739c-0.11567,0.06741-0.22896,0.15034-0.34046,0.23625
								c-0.98321,0.7523-1.77204,2.16443-1.81854,3.34151l-0.00179,0.04415L93.37946,32.92728"/>
							<path id="Stroke-218" fill="none" stroke="#33475C" stroke-width="5" stroke-linecap="round" stroke-linejoin="round" d="
								M82.36755,22.59415c0.68628,0.39673,1.8096,0.39673,2.49648,0l0.62129-0.35915l0.62128-0.35855
								c0.68627-0.39614,0.68627-1.04523,0-1.44196c-1.10842-0.63955-2.667-1.43838-2.667-1.43838l-3.56256,2.05764
								L82.36755,22.59415z"/>
							<path id="Stroke-220" fill="none" stroke="#33475C" stroke-width="5" stroke-linecap="round" stroke-linejoin="round" d="
								M83.61597,20.11752c-1.21873,0-1.21873,1.05298-1.21873,1.05298c0,0.18017,0.11806,0.36094,0.35596,0.49875
								c0.47462,0.27383,1.25092,0.27383,1.72553,0c0.2373-0.13781,0.35596-0.31858,0.35596-0.49875
								C84.83469,21.17051,84.83469,20.11752,83.61597,20.11752z"/>
							<path id="Stroke-222" fill="none" stroke="#33475C" stroke-width="5" stroke-linecap="round" stroke-linejoin="round" d="
								M65.67796,8.58709c-0.68628-0.39673-1.8096-0.39673-2.49648,0L62.5602,8.94624l-0.62069,0.35795
								c-0.68628,0.39673-0.68628,1.04582,0,1.44256c1.10782,0.63955,2.667,1.43838,2.667,1.43838l3.56256-2.05764L65.67796,8.58709
								z"/>
							<path id="Stroke-224" fill="none" stroke="#33475C" stroke-width="5" stroke-linecap="round" stroke-linejoin="round" d="
								M64.52393,9.13882c1.21872,0,1.21872,1.05298,1.21872,1.05298c0,0.18077-0.11865,0.36153-0.35596,0.49875
								c-0.47461,0.27443-1.25092,0.27443-1.72553,0c-0.2379-0.13722-0.35596-0.31798-0.35596-0.49875
								C63.30521,10.1918,63.30521,9.13882,64.52393,9.13882z"/>
							
								<polygon id="Stroke-226" fill="none" stroke="#33475C" stroke-width="5" stroke-linecap="round" stroke-linejoin="round" points="
								81.06213,16.25305 79.8774,16.93734 79.8774,21.05381 81.06213,20.36893 							"/>
							
								<polygon id="Stroke-228" fill="none" stroke="#33475C" stroke-width="5" stroke-linecap="round" stroke-linejoin="round" points="
								82.25402,15.5644 82.25402,19.68028 83.43935,18.99599 83.43935,14.88011 							"/>
							
								<polygon id="Stroke-230" fill="none" stroke="#33475C" stroke-width="5" stroke-linecap="round" stroke-linejoin="round" points="
								65.88873,7.32864 64.60681,8.06961 64.60681,12.18549 65.88873,11.44452 							"/>
							
								<polygon id="Stroke-232" fill="none" stroke="#33475C" stroke-width="5" stroke-linecap="round" stroke-linejoin="round" points="
								67.08068,6.64 67.08068,10.75588 68.16883,10.12767 68.16883,6.01119 							"/>
							<path id="Stroke-234" fill="none" stroke="#33475C" stroke-width="5" stroke-linecap="round" stroke-linejoin="round" d="
								M84.28442,13.65286c0.02683-0.24759-0.02206-0.50531-0.16516-0.735c0,0-4.20889-6.74565-8.9848-8.76213
								c-3.03488-1.28028-5.1116-0.71114-5.1116-0.71114C69.39024,3.61761,68.40762,4.02806,67.84,4.35619l-2.4464,1.41273
								c-0.56762,0.32812-1.0321,0.93188-1.0321,1.34054v1.19318c0,0.30665,0.29872,0.53992,0.72265,0.61091
								c0.08347,0.00656,0.16516,0.01969,0.25221,0.02028c0.06857,0.0006,0.13892-0.00119,0.21107-0.00835
								c0,0,0.06678-0.00656,0.18007-0.01253l-0.02087,0.00477c0.00716-0.00119,0.0155-0.0006,0.02385-0.00119h-0.0006
								c0,0,0.1729-0.01551,0.45314-0.01551c0.61294,0,1.81318,0.07219,2.96333,0.55841
								c4.25539,1.79574,8.12621,6.9825,8.16497,7.035c0.58074,0.7875,1.52698,1.25881,2.53106,1.25881
								c0.54616,0,1.0792-0.14139,1.54248-0.40926l2.33907-1.35128c0.34344-0.20105,0.54675-0.54707,0.5718-0.91219V13.6648
								L84.28442,13.65286z"/>
							<path id="Stroke-236" fill="none" stroke="#33475C" stroke-width="5" stroke-linecap="round" stroke-linejoin="round" d="
								M80.34127,16.13247l3.22747-1.86435c0.20451-0.11812,0.34761-0.30724,0.40366-0.53335
								c0.05665-0.22491,0.01849-0.45938-0.10612-0.65864c-0.04174-0.06682-4.21485-6.68957-8.84767-8.6452
								c-2.9043-1.22659-4.89635-0.70398-4.91722-0.69861c-0.6034,0.16466-1.57051,0.56915-2.1125,0.88176l-2.4452,1.41332
								c-0.50621,0.29233-0.88423,0.81256-0.88423,1.08222c0,0.01969,0,0.07935,0.0805,0.15213
								c0.15383,0.13841,0.45911,0.20702,0.7775,0.17361c0.02982-0.00298,0.27905-0.02744,0.67734-0.02744
								c0.82818,0,2.29733,0.1056,3.76289,0.72426c4.79619,2.02423,8.86138,7.48662,9.03191,7.7175
								C79.28712,16.25358,79.90542,16.38364,80.34127,16.13247z"/>
							<path id="Stroke-238" fill="none" stroke="#33475C" stroke-width="5" stroke-linecap="round" stroke-linejoin="round" d="
								M93.55005,32.01611c-0.03458,0.10978-0.0632,0.21776-0.08705,0.32634C93.48685,32.23387,93.51606,32.12529,93.55005,32.01611
								z"/>
							<path id="Stroke-240" fill="none" stroke="#33475C" stroke-width="5" stroke-linecap="round" stroke-linejoin="round" d="
								M93.4336,32.48336c-0.02743,0.14975-0.04829,0.29829-0.05367,0.44207C93.38531,32.78165,93.40617,32.63311,93.4336,32.48336z
								"/>
							<path id="Stroke-242" fill="none" stroke="#33475C" stroke-width="5" stroke-linecap="round" stroke-linejoin="round" d="
								M93.94775,31.08859c-0.02266,0.04176-0.04532,0.08412-0.06678,0.12588
								C93.90243,31.17271,93.92509,31.13035,93.94775,31.08859z"/>
							<path id="Stroke-244" fill="none" stroke="#33475C" stroke-width="5" stroke-linecap="round" stroke-linejoin="round" d="
								M93.75092,31.47894c-0.05784,0.12827-0.11031,0.25773-0.15562,0.38659
								C93.64002,31.73607,93.69368,31.60721,93.75092,31.47894z"/>
							
								<polygon id="Stroke-246" fill="none" stroke="#33475C" stroke-width="5" stroke-linecap="round" stroke-linejoin="round" points="
								93.37946,32.92728 47.78885,6.63493 46.8605,30.26589 92.45171,56.55825 							"/>
							<path id="Stroke-248" fill="none" stroke="#33475C" stroke-width="5" stroke-linecap="round" stroke-linejoin="round" d="
								M48.09752,6.46585L48.06712,7.1394l-0.90092,22.95801l45.00689,25.95648l0.90152-22.95801
								c0,0,0.02624-0.54887,0.07513-0.75349L48.09752,6.46585z"/>
							<path id="Stroke-250" fill="none" stroke="#33475C" stroke-width="5" stroke-linecap="round" stroke-linejoin="round" d="
								M91.88593,32.99195c-0.0012,0.01969-0.00239,0.03878-0.00298,0.05667l-0.82401,20.98568L48.38575,29.42434l0.82282-20.94452"
								/>
							<path id="Fill-252" fill="#506E91" d="M93.37946,32.92728c0.05187-1.31131,1.02316-2.92091,2.159-3.57775l4.18623-2.41798
								c0.54616-0.3156,1.05058-0.3496,1.43695-0.15989v-0.00477L55.61992,0.45245
								c-0.39054-0.21477-0.91702-0.18494-1.48405,0.14318l-4.18623,2.41739c-0.11567,0.06741-0.22896,0.15034-0.34046,0.23625
								c-0.98321,0.7523-1.77204,2.16443-1.81854,3.34151l-0.00179,0.04415L93.37946,32.92728"/>
							<path id="Fill-254" fill="#506E91" d="M82.36755,22.59415c0.68628,0.39673,1.8096,0.39673,2.49648,0l0.62129-0.35915
								l0.62128-0.35855c0.68627-0.39614,0.68627-1.04523,0-1.44196c-1.10842-0.63955-2.667-1.43838-2.667-1.43838l-3.56256,2.05764
								L82.36755,22.59415z"/>
							<path id="Stroke-256" fill="none" stroke="#33475C" stroke-linecap="round" stroke-linejoin="round" d="M82.36755,22.59415
								c0.68628,0.39673,1.8096,0.39673,2.49648,0l0.62129-0.35915l0.62128-0.35855c0.68627-0.39614,0.68627-1.04523,0-1.44196
								c-1.10842-0.63955-2.667-1.43838-2.667-1.43838l-3.56256,2.05764L82.36755,22.59415z"/>
							<path id="Fill-258" fill="#CBD6E3" d="M83.61597,20.11752c-1.21873,0-1.21873,1.05298-1.21873,1.05298
								c0,0.18017,0.11806,0.36094,0.35596,0.49875c0.47462,0.27383,1.25092,0.27383,1.72553,0
								c0.2373-0.13781,0.35596-0.31858,0.35596-0.49875C84.83469,21.17051,84.83469,20.11752,83.61597,20.11752"/>
							<path id="Fill-260" fill="#506E91" d="M65.67796,8.58709c-0.68628-0.39673-1.8096-0.39673-2.49648,0L62.5602,8.94624
								l-0.62069,0.35795c-0.68628,0.39673-0.68628,1.04582,0,1.44256c1.10782,0.63955,2.667,1.43838,2.667,1.43838l3.56256-2.05764
								L65.67796,8.58709z"/>
							<path id="Stroke-262" fill="none" stroke="#33475C" stroke-linecap="round" stroke-linejoin="round" d="M65.67796,8.58709
								c-0.68628-0.39673-1.8096-0.39673-2.49648,0L62.5602,8.94624l-0.62069,0.35795c-0.68628,0.39673-0.68628,1.04582,0,1.44256
								c1.10782,0.63955,2.667,1.43838,2.667,1.43838l3.56256-2.05764L65.67796,8.58709z"/>
							<path id="Fill-264" fill="#CBD6E3" d="M64.52393,9.13882c1.21872,0,1.21872,1.05298,1.21872,1.05298
								c0,0.18077-0.11865,0.36153-0.35596,0.49875c-0.47461,0.27443-1.25092,0.27443-1.72553,0
								c-0.2379-0.13722-0.35596-0.31798-0.35596-0.49875C63.30521,10.1918,63.30521,9.13882,64.52393,9.13882"/>
							<polygon id="Fill-266" fill="#CBD6E3" points="81.06213,16.25305 79.8774,16.93734 79.8774,21.05381 81.06213,20.36893 
															"/>
							<polygon id="Stroke-268" fill="none" stroke="#33475C" stroke-linecap="round" stroke-linejoin="round" points="
								81.06213,16.25305 79.8774,16.93734 79.8774,21.05381 81.06213,20.36893 							"/>
							<polygon id="Fill-270" fill="#CBD6E3" points="82.25402,15.5644 82.25402,19.68028 83.43935,18.99599 83.43935,14.88011 
															"/>
							<polygon id="Stroke-272" fill="none" stroke="#33475C" stroke-linecap="round" stroke-linejoin="round" points="
								82.25402,15.5644 82.25402,19.68028 83.43935,18.99599 83.43935,14.88011 							"/>
							<polygon id="Fill-274" fill="#CBD6E3" points="65.88873,7.32864 64.60681,8.06961 64.60681,12.18549 65.88873,11.44452 
															"/>
							<polygon id="Stroke-276" fill="none" stroke="#33475C" stroke-linecap="round" stroke-linejoin="round" points="
								65.88873,7.32864 64.60681,8.06961 64.60681,12.18549 65.88873,11.44452 							"/>
							<polygon id="Fill-278" fill="#CBD6E3" points="67.08068,6.64 67.08068,10.75588 68.16883,10.12767 68.16883,6.01119 							
								"/>
							<polygon id="Stroke-280" fill="none" stroke="#33475C" stroke-linecap="round" stroke-linejoin="round" points="
								67.08068,6.64 67.08068,10.75588 68.16883,10.12767 68.16883,6.01119 							"/>
							<path id="Fill-282" fill="#415A77" d="M84.28442,13.65286c0.02683-0.24759-0.02206-0.50531-0.16516-0.735
								c0,0-4.20889-6.74565-8.9848-8.76213c-3.03488-1.28028-5.1116-0.71114-5.1116-0.71114
								C69.39024,3.61761,68.40762,4.02806,67.84,4.35619l-2.4464,1.41273c-0.56762,0.32812-1.0321,0.93188-1.0321,1.34054v1.19318
								c0,0.30665,0.29872,0.53992,0.72265,0.61091c0.08347,0.00656,0.16516,0.01969,0.25221,0.02028
								c0.06857,0.0006,0.13892-0.00119,0.21107-0.00835c0,0,0.06678-0.00656,0.18007-0.01253l-0.02087,0.00477
								c0.00716-0.00119,0.0155-0.0006,0.02385-0.00119h-0.0006c0,0,0.1729-0.01551,0.45314-0.01551
								c0.61294,0,1.81318,0.07219,2.96333,0.55841c4.25539,1.79574,8.12621,6.9825,8.16497,7.035
								c0.58074,0.7875,1.52698,1.25881,2.53106,1.25881c0.54616,0,1.0792-0.14139,1.54248-0.40926l2.33907-1.35128
								c0.34344-0.20105,0.54675-0.54707,0.5718-0.91219V13.6648L84.28442,13.65286z"/>
							<path id="Stroke-284" fill="none" stroke="#33475C" stroke-linecap="round" stroke-linejoin="round" d="M84.28442,13.65286
								c0.02683-0.24759-0.02206-0.50531-0.16516-0.735c0,0-4.20889-6.74565-8.9848-8.76213
								c-3.03488-1.28028-5.1116-0.71114-5.1116-0.71114C69.39024,3.61761,68.40762,4.02806,67.84,4.35619l-2.4464,1.41273
								c-0.56762,0.32812-1.0321,0.93188-1.0321,1.34054v1.19318c0,0.30665,0.29872,0.53992,0.72265,0.61091
								c0.08347,0.00656,0.16516,0.01969,0.25221,0.02028c0.06857,0.0006,0.13892-0.00119,0.21107-0.00835
								c0,0,0.06678-0.00656,0.18007-0.01253l-0.02087,0.00477c0.00716-0.00119,0.0155-0.0006,0.02385-0.00119h-0.0006
								c0,0,0.1729-0.01551,0.45314-0.01551c0.61294,0,1.81318,0.07219,2.96333,0.55841
								c4.25539,1.79574,8.12621,6.9825,8.16497,7.035c0.58074,0.7875,1.52698,1.25881,2.53106,1.25881
								c0.54616,0,1.0792-0.14139,1.54248-0.40926l2.33907-1.35128c0.34344-0.20105,0.54675-0.54707,0.5718-0.91219V13.6648
								L84.28442,13.65286z"/>
							<path id="Fill-286" fill="#506E91" d="M80.34127,16.13247l3.22747-1.86435c0.20451-0.11812,0.34761-0.30724,0.40366-0.53335
								c0.05665-0.22491,0.01849-0.45938-0.10612-0.65864c-0.04174-0.06682-4.21485-6.68957-8.84767-8.6452
								c-2.9043-1.22659-4.89635-0.70398-4.91722-0.69861c-0.6034,0.16466-1.57051,0.56915-2.1125,0.88176l-2.4452,1.41332
								c-0.50621,0.29233-0.88423,0.81256-0.88423,1.08222c0,0.01969,0,0.07935,0.0805,0.15213
								c0.15383,0.13841,0.45911,0.20702,0.7775,0.17361c0.02982-0.00298,0.27905-0.02744,0.67734-0.02744
								c0.82818,0,2.29733,0.1056,3.76289,0.72426c4.79619,2.02423,8.86138,7.48662,9.03191,7.7175
								C79.28712,16.25358,79.90542,16.38364,80.34127,16.13247"/>
							<g id="Group-292" transform="translate(93.014085, 31.619318)">
								<path id="Fill-288" fill="#E6EFF6" d="M0.53596,0.39679c-0.03458,0.10977-0.0632,0.21776-0.08705,0.32634
									C0.47276,0.61455,0.50198,0.50597,0.53596,0.39679"/>
								<path id="Stroke-290" fill="none" stroke="#33475C" stroke-linecap="round" stroke-linejoin="round" d="M0.53596,0.39679
									c-0.03458,0.10977-0.0632,0.21776-0.08705,0.32634C0.47276,0.61455,0.50198,0.50597,0.53596,0.39679z"/>
							</g>
							<g id="Group-297" transform="translate(93.014085, 32.215909)">
								<path id="Fill-293" fill="#E6EFF6" d="M0.41952,0.26745c-0.02743,0.14974-0.0483,0.2983-0.05366,0.44207
									C0.37122,0.56575,0.39209,0.4172,0.41952,0.26745"/>
								<path id="Stroke-295" fill="none" stroke="#33475C" stroke-linecap="round" stroke-linejoin="round" d="M0.41952,0.26745
									c-0.02743,0.14974-0.0483,0.2983-0.05366,0.44207C0.37122,0.56575,0.39209,0.4172,0.41952,0.26745z"/>
							</g>
							<g id="Group-302" transform="translate(93.610329, 31.022727)">
								<path id="Fill-298" fill="#E6EFF6" d="M0.33741,0.06586C0.31476,0.10763,0.2921,0.14998,0.27063,0.19174
									C0.2921,0.14998,0.31476,0.10763,0.33741,0.06586"/>
								<path id="Stroke-300" fill="none" stroke="#33475C" stroke-linecap="round" stroke-linejoin="round" d="M0.33741,0.06586
									C0.31476,0.10763,0.2921,0.14998,0.27063,0.19174C0.2921,0.14998,0.31476,0.10763,0.33741,0.06586z"/>
							</g>
							<g id="Group-307" transform="translate(93.014085, 31.022727)">
								<path id="Fill-303" fill="#E6EFF6" d="M0.73684,0.45621C0.679,0.58448,0.62653,0.71394,0.58122,0.8428
									C0.62594,0.71334,0.6796,0.58448,0.73684,0.45621"/>
								<path id="Stroke-305" fill="none" stroke="#33475C" stroke-linecap="round" stroke-linejoin="round" d="M0.73684,0.45621
									C0.679,0.58448,0.62653,0.71394,0.58122,0.8428C0.62594,0.71334,0.6796,0.58448,0.73684,0.45621z"/>
							</g>
							<polygon id="Fill-308" fill="#E6EFF6" points="93.37946,32.92728 47.78885,6.63493 46.8605,30.26589 92.45171,56.55825 
															"/>
							<polygon id="Stroke-310" fill="none" stroke="#33475C" stroke-linecap="round" stroke-linejoin="round" points="
								93.37946,32.92728 47.78885,6.63493 46.8605,30.26589 92.45171,56.55825 							"/>
							<path id="Fill-312" fill="#415A77" d="M48.09752,6.46585L48.06712,7.1394l-0.90092,22.95801l45.00689,25.95648
								l0.90152-22.95801c0,0,0.02624-0.54887,0.07513-0.75349L48.09752,6.46585z"/>
							
								<path id="Stroke-314" fill="none" stroke="#506E91" stroke-linecap="round" stroke-linejoin="round" stroke-dasharray="2,3" d="
								M91.88593,32.99195c-0.0012,0.01969-0.00239,0.03878-0.00298,0.05667l-0.82401,20.98568L48.38575,29.42434l0.82282-20.94452"
								/>
							<path id="Fill-316" fill="#CBD6E3" d="M73.29116,45.5635v1.84764v0.85432c0,1.69313-1.38448,2.27958-3.07721,1.30117
								l-1.54487-0.89191c-1.69274-0.97781-3.07722-3.16372-3.07722-4.85744v-0.85372v-1.84764L73.29116,45.5635z"/>
							<path id="Stroke-318" fill="none" stroke="#33475C" stroke-linecap="round" stroke-linejoin="round" d="M73.29116,45.5635
								v1.84764v0.85432c0,1.69313-1.38448,2.27958-3.07721,1.30117l-1.54487-0.89191
								c-1.69274-0.97781-3.07722-3.16372-3.07722-4.85744v-0.85372v-1.84764L73.29116,45.5635z"/>
							<path id="Fill-320" fill="#EAF0F6" d="M70.99526,48.55522c-0.20213,0-0.40723-0.05131-0.59505-0.15989L67.2908,46.5996
								c-0.57061-0.32992-0.76558-1.05955-0.43645-1.63049c0.32913-0.57034,1.05655-0.76662,1.62894-0.4367l3.10941,1.79633
								c0.5706,0.32932,0.76557,1.05895,0.43645,1.62989C71.80795,48.34164,71.40727,48.55522,70.99526,48.55522"/>
							<path id="Stroke-322" fill="none" stroke="#33475C" stroke-linecap="round" stroke-linejoin="round" d="M70.99526,48.55522
								c-0.20213,0-0.40723-0.05131-0.59505-0.15989L67.2908,46.5996c-0.57061-0.32992-0.76558-1.05955-0.43645-1.63049
								c0.32913-0.57034,1.05655-0.76662,1.62894-0.4367l3.10941,1.79633c0.5706,0.32932,0.76557,1.05895,0.43645,1.62989
								C71.80795,48.34164,71.40727,48.55522,70.99526,48.55522z"/>
							<path id="Fill-324" fill="#415A77" d="M67.13077,35.20823c-4.7783-1.21167-1.5389,5.90744-1.5389,5.90744l3.84995,2.22409
								l3.84935,2.2235c0,0,3.2394-3.37671-1.53831-7.68469c0,0-1.08994-0.93844-2.31104-1.64301
								C68.17658,35.50414,67.13077,35.20823,67.13077,35.20823"/>
							<path id="Stroke-326" fill="none" stroke="#33475C" stroke-linecap="round" stroke-linejoin="round" d="M67.13077,35.20823
								c-4.7783-1.21167-1.5389,5.90744-1.5389,5.90744l3.84995,2.22409l3.84935,2.2235c0,0,3.2394-3.37671-1.53831-7.68469
								c0,0-1.08994-0.93844-2.31104-1.64301C68.17658,35.50414,67.13077,35.20823,67.13077,35.20823z"/>
							<path id="Fill-328" fill="#CBD6E3" d="M73.2347,45.53086l-7.58661-4.38316c-0.2856-0.16466-0.539-0.17659-0.70893-0.0692
								l-0.00298-0.00298c0,0-1.67664,0.96827,0.71191,2.1352l7.58661,4.38316c0.508,0.29293,0.92358,0.11753,0.92358-0.39017
								v-0.21597C74.15828,46.48004,73.7427,45.82379,73.2347,45.53086"/>
							<path id="Stroke-330" fill="none" stroke="#33475C" stroke-linecap="round" stroke-linejoin="round" d="M73.2347,45.53086
								l-7.58661-4.38316c-0.2856-0.16466-0.539-0.17659-0.70893-0.0692l-0.00298-0.00298c0,0-1.67664,0.96827,0.71191,2.1352
								l7.58661,4.38316c0.508,0.29293,0.92358,0.11753,0.92358-0.39017v-0.21597
								C74.15828,46.48004,73.7427,45.82379,73.2347,45.53086z"/>
							<path id="Fill-332" fill="#E6EFF6" d="M73.12576,45.46798c0.56763,0.32812,1.19846,0.42298,1.40118,0.21119
								c0.20213-0.21179,0.3327-2.56474-0.00358-2.97222c0,0-2.60857-1.59111-5.40913-3.17923
								c-2.92159-1.65673-4.58989-2.33208-4.58989-2.33208s-0.75961,0.39614-0.99155,0.67475
								c-1.16506,1.40079,1.19189,2.90599,1.19189,2.90599s1.98728,1.33577,4.0801,2.42872
								C70.99777,44.35057,73.12576,45.46798,73.12576,45.46798"/>
							<path id="Stroke-334" fill="none" stroke="#33475C" stroke-linecap="round" stroke-linejoin="round" d="M73.12576,45.46798
								c0.56763,0.32812,1.19846,0.42298,1.40118,0.21119c0.20213-0.21179,0.3327-2.56474-0.00358-2.97222
								c0,0-2.60857-1.59111-5.40913-3.17923c-2.92159-1.65673-4.58989-2.33208-4.58989-2.33208s-0.75961,0.39614-0.99155,0.67475
								c-1.16506,1.40079,1.19189,2.90599,1.19189,2.90599s1.98728,1.33577,4.0801,2.42872
								C70.99777,44.35057,73.12576,45.46798,73.12576,45.46798z"/>
							<path id="Fill-336" fill="#CBD6E3" d="M74.31539,45.46852c0.13654-0.29293,0.18304-2.1704-0.00358-2.54148
								c-0.3959-0.24043-2.80592-1.69969-5.34414-3.13986c-2.41837-1.37156-3.98649-2.07196-4.4277-2.26108
								c-0.27725,0.15273-0.65647,0.38898-0.7775,0.53455c-0.20809,0.24937-0.28739,0.50889-0.24267,0.79108
								c0.11329,0.72963,1.02375,1.45509,1.3654,1.67284c0.02564,0.0173,2.00458,1.34412,4.05744,2.41619
								c2.19299,1.14545,4.32098,2.26347,4.32098,2.26347l0.01073,0.00477C73.80859,45.51804,74.24265,45.52162,74.31539,45.46852"
								/>
							<path id="Fill-338" fill="#98ACC3" d="M73.01922,44.01845c-0.01908,0.98735,0.76915,1.38886,0.85918,1.43122
								c0.22836,0.0531,0.39531,0.04892,0.43705,0.01909c0.13654-0.29352,0.18245-2.1704-0.00358-2.54148
								C74.31187,42.92728,73.03889,42.97203,73.01922,44.01845"/>
							
								<polygon id="Stroke-340" fill="none" stroke="#33475C" stroke-width="5" stroke-linecap="round" stroke-linejoin="round" points="
								49.69349,55.23597 21.76303,68.98441 21.76303,71.37077 42.4372,83.31392 70.36826,67.17912 70.36826,64.79276 							"/>
							
								<polygon id="Stroke-342" fill="none" stroke="#33475C" stroke-width="5" stroke-linecap="round" stroke-linejoin="round" points="
								49.69349,52.8496 21.76303,68.98441 42.4372,80.92756 70.36826,64.79276 							"/>
							
								<polygon id="Stroke-344" fill="none" stroke="#33475C" stroke-width="5" stroke-linecap="round" stroke-linejoin="round" points="
								64.54778,61.43025 49.69355,52.84948 21.76309,68.98428 42.43726,80.92803 64.54778,68.15443 							"/>
							
								<polygon id="Stroke-346" fill="none" stroke="#33475C" stroke-width="5" stroke-linecap="round" stroke-linejoin="round" points="
								64.54778,61.44308 58.72784,64.80486 64.54778,68.16725 							"/>
							
								<polygon id="Stroke-348" fill="none" stroke="#33475C" stroke-width="5" stroke-linecap="round" stroke-linejoin="round" points="
								49.61258,55.18472 45.93673,57.30858 56.96427,63.67838 60.63952,61.55511 							"/>
							<path id="Stroke-350" fill="none" stroke="#33475C" stroke-width="5" stroke-linecap="round" stroke-linejoin="round" d="
								M47.41274,61.53221l-4.20054-2.42693"/>
							<path id="Stroke-352" fill="none" stroke="#33475C" stroke-width="5" stroke-linecap="round" stroke-linejoin="round" d="
								M45.31253,60.31862l-4.20054,2.42633"/>
							<path id="Stroke-354" fill="none" stroke="#33475C" stroke-width="5" stroke-linecap="round" stroke-linejoin="round" d="
								M49.35113,62.69162l10.05267,5.80722"/>
							<path id="Stroke-356" fill="none" stroke="#33475C" stroke-width="5" stroke-linecap="round" stroke-linejoin="round" d="
								M46.83283,64.14635l10.05268,5.80722"/>
							<path id="Stroke-358" fill="none" stroke="#33475C" stroke-width="5" stroke-linecap="round" stroke-linejoin="round" d="
								M44.31453,65.60114l10.05268,5.80722"/>
							
								<polygon id="Stroke-360" fill="none" stroke="#33475C" stroke-width="5" stroke-linecap="round" stroke-linejoin="round" points="
								52.06159,72.67575 36.01308,63.40473 26.36645,68.97749 42.41555,78.2485 							"/>
							<path id="Stroke-362" fill="none" stroke="#33475C" stroke-width="5" stroke-linecap="round" stroke-linejoin="round" d="
								M35.69922,65.5901l12.31841,7.11613"/>
							<path id="Stroke-364" fill="none" stroke="#33475C" stroke-width="5" stroke-linecap="round" stroke-linejoin="round" d="
								M33.15475,67.02973l12.34464,7.13105"/>
							<path id="Stroke-366" fill="none" stroke="#33475C" stroke-width="5" stroke-linecap="round" stroke-linejoin="round" d="
								M30.63639,68.48446l9.91554,5.72847"/>
							<polygon id="Fill-368" fill="#FFFFFF" points="49.69349,55.23597 21.76303,68.98441 21.76303,71.37077 42.4372,83.31392 
								70.36826,67.17912 70.36826,64.79276 							"/>
							<polygon id="Stroke-370" fill="none" stroke="#33475C" stroke-linecap="round" stroke-linejoin="round" points="
								49.69349,55.23597 21.76303,68.98441 21.76303,71.37077 42.4372,83.31392 70.36826,67.17912 70.36826,64.79276 							"/>
							<polygon id="Fill-372" fill="#FFFFFF" points="49.69349,52.8496 21.76303,68.98441 42.4372,80.92756 70.36826,64.79276 
															"/>
							<polygon id="Stroke-374" fill="none" stroke="#33475C" stroke-linecap="round" stroke-linejoin="round" points="
								49.69349,52.8496 21.76303,68.98441 42.4372,80.92756 70.36826,64.79276 							"/>
							<polygon id="Fill-376" fill="#FFFFFF" points="64.54778,61.43025 49.69355,52.84948 21.76309,68.98428 42.43726,80.92803 
								64.54778,68.15443 							"/>
							<polygon id="Stroke-378" fill="none" stroke="#33475C" stroke-linecap="round" stroke-linejoin="round" points="
								64.54778,61.43025 49.69355,52.84948 21.76309,68.98428 42.43726,80.92803 64.54778,68.15443 							"/>
							<polygon id="Fill-380" fill="#E6EFF6" points="64.54778,61.44308 58.72784,64.80486 64.54778,68.16725 							"/>
							<polygon id="Stroke-382" fill="none" stroke="#33475C" stroke-linecap="round" stroke-linejoin="round" points="
								64.54778,61.44308 58.72784,64.80486 64.54778,68.16725 							"/>
							<polygon id="Fill-384" fill="#6A78D1" points="49.61258,55.18472 45.93673,57.30858 56.96427,63.67838 60.63952,61.55511 
															"/>
							<polygon id="Stroke-386" fill="none" stroke="#6A78D1" stroke-linecap="round" stroke-linejoin="round" points="
								49.61258,55.18472 45.93673,57.30858 56.96427,63.67838 60.63952,61.55511 							"/>
							<path id="Stroke-388" fill="none" stroke="#33475C" stroke-width="2" stroke-linecap="round" stroke-linejoin="round" d="
								M47.41274,61.53221l-4.20054-2.42693"/>
							<path id="Stroke-390" fill="none" stroke="#33475C" stroke-width="2" stroke-linecap="round" stroke-linejoin="round" d="
								M45.31253,60.31862l-4.20054,2.42633"/>
							<path id="Stroke-392" fill="none" stroke="#33475C" stroke-width="1.5" stroke-linecap="round" stroke-linejoin="round" d="
								M49.35113,62.69162l10.05267,5.80722"/>
							<path id="Stroke-394" fill="none" stroke="#33475C" stroke-width="1.5" stroke-linecap="round" stroke-linejoin="round" d="
								M46.83283,64.14635l10.05268,5.80722"/>
							<path id="Stroke-396" fill="none" stroke="#33475C" stroke-width="1.5" stroke-linecap="round" stroke-linejoin="round" d="
								M44.31453,65.60114l10.05268,5.80722"/>
							<polygon id="Fill-398" fill="#D5DAF1" points="52.06159,72.67575 36.01308,63.40473 26.36645,68.97749 42.41555,78.2485 
															"/>
							<polygon id="Stroke-400" fill="none" stroke="#D5DAF1" stroke-linecap="round" stroke-linejoin="round" points="
								52.06159,72.67575 36.01308,63.40473 26.36645,68.97749 42.41555,78.2485 							"/>
							<path id="Stroke-402" fill="none" stroke="#33475C" stroke-width="1.5" stroke-linecap="round" stroke-linejoin="round" d="
								M35.69922,65.5901l12.31841,7.11613"/>
							<path id="Stroke-404" fill="none" stroke="#33475C" stroke-width="1.5" stroke-linecap="round" stroke-linejoin="round" d="
								M33.15475,67.02973l12.34464,7.13105"/>
							<path id="Stroke-406" fill="none" stroke="#33475C" stroke-width="1.5" stroke-linecap="round" stroke-linejoin="round" d="
								M30.63639,68.48446l9.91554,5.72847"/>
							<path id="Stroke-408" fill="none" stroke="#33475C" stroke-width="5" stroke-linecap="round" stroke-linejoin="round" d="
								M57.47668,80.7175v1.09594L38.92753,71.09747c-0.07692-0.04414-0.16278-0.08054-0.25341-0.11156
								c-0.01848-0.00597-0.03935-0.00954-0.05843-0.01551c-0.07692-0.02327-0.15622-0.04296-0.23969-0.05787
								c-0.01431-0.00179-0.02862-0.00298-0.04234-0.00478c-0.0954-0.01492-0.19139-0.02327-0.29097-0.02625h-0.01312
								c-0.10971-0.00298-0.21942,0.0012-0.33091,0.01134c-0.35477,0.034-0.70893,0.13125-0.99692,0.2971l-14.5895,8.42804v-0.81554
								h-2.02604v2.39352c0,0.01074,0.00119,0.02208,0.00179,0.03281c0.00239,0.0531,0.01252,0.105,0.0316,0.15631
								c0.00537,0.01611,0.01133,0.03162,0.01848,0.04713c0.02206,0.04594,0.05306,0.09068,0.08884,0.13304
								c0.01312,0.01551,0.02266,0.03162,0.03816,0.04653c0.05426,0.05429,0.11806,0.10619,0.19736,0.15213l0.0006,0.0006
								l19.76549,11.41816l0.00179,0.0006c0.0793,0.04594,0.16814,0.08233,0.26294,0.11395
								c0.02564,0.00895,0.05307,0.01432,0.0799,0.02148c0.07393,0.02088,0.14965,0.03878,0.22955,0.05131
								c0.02743,0.00478,0.05486,0.00776,0.08347,0.01134c0.08765,0.01074,0.17709,0.0167,0.26891,0.0179
								c0.01908,0.0006,0.03816,0.00119,0.05843,0.00119c0.11209-0.00119,0.22538-0.00775,0.33867-0.02207h0.00119
								c0.32197-0.04236,0.63858-0.13721,0.90092-0.28815l16.07832-9.28892c0.37802-0.21776,0.5551-0.50173,0.53483-0.76602V80.7175
								H57.47668z"/>
							<path id="Stroke-410" fill="none" stroke="#33475C" stroke-width="5" stroke-linecap="round" stroke-linejoin="round" d="
								M40.22871,90.79607L20.46322,79.37791c-0.56822-0.32812-0.49608-0.90623,0.15979-1.28565l16.07951-9.28833
								c0.65587-0.37943,1.65696-0.42059,2.22459-0.09306L58.6932,80.12962c0.56762,0.32812,0.49607,0.90682-0.16039,1.28506
								L42.4539,90.70419C41.79803,91.08243,40.79693,91.12419,40.22871,90.79607z"/>
							<path id="Stroke-412" fill="none" stroke="#33475C" stroke-width="5" stroke-linecap="round" stroke-linejoin="round" d="
								M58.69308,80.12968l-19.7655-11.41875c-0.31899-0.18375-0.77452-0.24759-1.22886-0.20404l-1.53831,12.37747
								c-0.06261,0.49995,0.59505,0.87938,1.4602,0.84358l21.42663-0.88892C59.12238,80.57712,59.01207,80.31403,58.69308,80.12968z
								"/>
							<path id="Stroke-414" fill="none" stroke="#33475C" stroke-width="5" stroke-linecap="round" stroke-linejoin="round" d="
								M42.73073,81.51627l-5.10981,0.21119c-0.86515,0.03639-1.52281-0.34364-1.4608-0.84357l0.36729-2.95134l-16.40268,0.68011
								c-0.10911,0.281-0.00298,0.56796,0.33807,0.76543l19.76609,11.41815c0.34105,0.19747,0.83892,0.25832,1.32426,0.19569
								L42.73073,81.51627z"/>
							<path id="Fill-416" fill="#FFFFFF" d="M57.47668,80.7175v1.09594L38.92753,71.09747
								c-0.07692-0.04414-0.16278-0.08054-0.25341-0.11156c-0.01848-0.00597-0.03935-0.00954-0.05843-0.01551
								c-0.07692-0.02327-0.15622-0.04296-0.23969-0.05787c-0.01431-0.00179-0.02862-0.00298-0.04234-0.00478
								c-0.0954-0.01492-0.19139-0.02327-0.29097-0.02625h-0.01312c-0.10971-0.00298-0.21942,0.0012-0.33091,0.01134
								c-0.35477,0.034-0.70893,0.13125-0.99692,0.2971l-14.5895,8.42804v-0.81554h-2.02604v2.39352
								c0,0.01074,0.00119,0.02208,0.00179,0.03281c0.00239,0.0531,0.01252,0.105,0.0316,0.15631
								c0.00537,0.01611,0.01133,0.03162,0.01848,0.04713c0.02206,0.04594,0.05306,0.09068,0.08884,0.13304
								c0.01312,0.01551,0.02266,0.03162,0.03816,0.04653c0.05426,0.05429,0.11806,0.10619,0.19736,0.15213l0.0006,0.0006
								l19.76549,11.41816l0.00179,0.0006c0.0793,0.04594,0.16814,0.08233,0.26294,0.11395
								c0.02564,0.00895,0.05307,0.01432,0.0799,0.02148c0.07393,0.02088,0.14965,0.03878,0.22955,0.05131
								c0.02743,0.00478,0.05486,0.00776,0.08347,0.01134c0.08765,0.01074,0.17709,0.0167,0.26891,0.0179
								c0.01908,0.0006,0.03816,0.00119,0.05843,0.00119c0.11209-0.00119,0.22538-0.00775,0.33867-0.02207h0.00119
								c0.32197-0.04236,0.63858-0.13721,0.90092-0.28815l16.07832-9.28892c0.37802-0.21776,0.5551-0.50173,0.53483-0.76602V80.7175
								H57.47668z"/>
							<path id="Stroke-418" fill="none" stroke="#33475C" stroke-linecap="round" stroke-linejoin="round" d="M57.47668,80.7175
								v1.09594L38.92753,71.09747c-0.07692-0.04414-0.16278-0.08054-0.25341-0.11156
								c-0.01848-0.00597-0.03935-0.00954-0.05843-0.01551c-0.07692-0.02327-0.15622-0.04296-0.23969-0.05787
								c-0.01431-0.00179-0.02862-0.00298-0.04234-0.00478c-0.0954-0.01492-0.19139-0.02327-0.29097-0.02625h-0.01312
								c-0.10971-0.00298-0.21942,0.0012-0.33091,0.01134c-0.35477,0.034-0.70893,0.13125-0.99692,0.2971l-14.5895,8.42804v-0.81554
								h-2.02604v2.39352c0,0.01074,0.00119,0.02208,0.00179,0.03281c0.00239,0.0531,0.01252,0.105,0.0316,0.15631
								c0.00537,0.01611,0.01133,0.03162,0.01848,0.04713c0.02206,0.04594,0.05306,0.09068,0.08884,0.13304
								c0.01312,0.01551,0.02266,0.03162,0.03816,0.04653c0.05426,0.05429,0.11806,0.10619,0.19736,0.15213l0.0006,0.0006
								l19.76549,11.41816l0.00179,0.0006c0.0793,0.04594,0.16814,0.08233,0.26294,0.11395
								c0.02564,0.00895,0.05307,0.01432,0.0799,0.02148c0.07393,0.02088,0.14965,0.03878,0.22955,0.05131
								c0.02743,0.00478,0.05486,0.00776,0.08347,0.01134c0.08765,0.01074,0.17709,0.0167,0.26891,0.0179
								c0.01908,0.0006,0.03816,0.00119,0.05843,0.00119c0.11209-0.00119,0.22538-0.00775,0.33867-0.02207h0.00119
								c0.32197-0.04236,0.63858-0.13721,0.90092-0.28815l16.07832-9.28892c0.37802-0.21776,0.5551-0.50173,0.53483-0.76602V80.7175
								H57.47668z"/>
							<path id="Fill-420" fill="#E6EFF6" d="M40.22871,90.79607L20.46322,79.37791
								c-0.56822-0.32812-0.49608-0.90623,0.15979-1.28565l16.07951-9.28833c0.65587-0.37943,1.65696-0.42059,2.22459-0.09306
								L58.6932,80.12962c0.56762,0.32812,0.49607,0.90682-0.16039,1.28506L42.4539,90.70419
								C41.79803,91.08243,40.79693,91.12419,40.22871,90.79607"/>
							<path id="Stroke-422" fill="none" stroke="#33475C" d="M40.22871,90.79607L20.46322,79.37791
								c-0.56822-0.32812-0.49608-0.90623,0.15979-1.28565l16.07951-9.28833c0.65587-0.37943,1.65696-0.42059,2.22459-0.09306
								L58.6932,80.12962c0.56762,0.32812,0.49607,0.90682-0.16039,1.28506L42.4539,90.70419
								C41.79803,91.08243,40.79693,91.12419,40.22871,90.79607z"/>
							<path id="Fill-424" fill="#FFFFFF" d="M58.69308,80.12968l-19.7655-11.41875
								c-0.31899-0.18375-0.77452-0.24759-1.22886-0.20404l-1.53831,12.37747c-0.06261,0.49995,0.59505,0.87938,1.4602,0.84358
								l21.42663-0.88892C59.12238,80.57712,59.01207,80.31403,58.69308,80.12968"/>
							<path id="Stroke-426" fill="none" stroke="#33475C" d="M58.69308,80.12968l-19.7655-11.41875
								c-0.31899-0.18375-0.77452-0.24759-1.22886-0.20404l-1.53831,12.37747c-0.06261,0.49995,0.59505,0.87938,1.4602,0.84358
								l21.42663-0.88892C59.12238,80.57712,59.01207,80.31403,58.69308,80.12968z"/>
							<path id="Fill-428" fill="#D4E7F7" d="M42.73073,81.51627l-5.10981,0.21119c-0.86515,0.03639-1.52281-0.34364-1.4608-0.84357
								l0.36729-2.95134l-16.40268,0.68011c-0.10911,0.281-0.00298,0.56796,0.33807,0.76543l19.76609,11.41815
								c0.34105,0.19747,0.83892,0.25832,1.32426,0.19569L42.73073,81.51627z"/>
							<path id="Stroke-430" fill="none" stroke="#33475C" d="M42.73073,81.51627l-5.10981,0.21119
								c-0.86515,0.03639-1.52281-0.34364-1.4608-0.84357l0.36729-2.95134l-16.40268,0.68011
								c-0.10911,0.281-0.00298,0.56796,0.33807,0.76543l19.76609,11.41815c0.34105,0.19747,0.83892,0.25832,1.32426,0.19569
								L42.73073,81.51627z"/>
							<path id="Stroke-432" fill="none" stroke="#33475C" stroke-width="5" stroke-linecap="round" stroke-linejoin="round" d="
								M68.44143,88.62991l-0.75067,1.73846c-1.38268-0.87103-1.809,0.60613-1.809,0.60613l-4.78307,0.22552l2.08864-3.70662
								c1.3338,0.18375,1.58065-1.43361,1.58065-1.43361h2.03498l2.70218-0.10143L68.44143,88.62991z"/>
							<path id="Stroke-434" fill="none" stroke="#33475C" stroke-width="5" stroke-linecap="round" stroke-linejoin="round" d="
								M61.09845,91.19978l4.66799-2.76997"/>
							<path id="Stroke-436" fill="none" stroke="#33475C" stroke-width="5" stroke-linecap="round" stroke-linejoin="round" d="
								M66.68591,88.33805c0,0.41523-0.33628,0.7529-0.75246,0.7529c-0.41499,0-0.75127-0.33767-0.75127-0.7529
								s0.33628-0.7529,0.75127-0.7529C66.34963,87.58515,66.68591,87.92282,66.68591,88.33805z"/>
							<path id="Stroke-438" fill="none" stroke="#33475C" stroke-width="5" stroke-linecap="round" stroke-linejoin="round" d="
								M89.52832,76.41667c0,0.86089-0.60459,1.20988-1.34989,0.77975c-0.74531-0.43074-1.3493-1.47776-1.3493-2.33923
								c0-0.86148,0.604-1.21049,1.3493-0.77975C88.92373,74.50818,89.52832,75.55579,89.52832,76.41667z"/>
							<path id="Stroke-440" fill="none" stroke="#33475C" stroke-width="5" stroke-linecap="round" stroke-linejoin="round" d="
								M87.35007,73.92895c-13.39582,3.39043-20.54717,12.13108-20.54717,12.13108s1.58839,0.67654,1.63848,2.57011
								c0,0,10.10931-1.69014,20.77911-11.39966"/>
							<path id="Stroke-442" fill="none" stroke="#33475C" stroke-width="5" stroke-linecap="round" stroke-linejoin="round" d="
								M70.42174,88.1469c-0.31899-2.04094-1.46676-3.06588-2.25977-3.53719"/>
							<path id="Stroke-444" fill="none" stroke="#33475C" stroke-width="5" stroke-linecap="round" stroke-linejoin="round" d="
								M88.12566,78.19887c-0.52052-2.00872-1.66769-3.15-2.5865-3.76389"/>
							<path id="Stroke-446" fill="none" stroke="#33475C" stroke-width="5" stroke-linecap="round" stroke-linejoin="round" d="
								M87.35007,73.92895c-13.39582,3.39043-20.54717,12.13108-20.54717,12.13108s1.58839,0.67654,1.63848,2.57011
								c0,0,10.10931-1.69014,20.77911-11.39966"/>
							<path id="Fill-448" fill="#F6C364" d="M68.44143,88.62991l-0.75067,1.73846c-1.38268-0.87103-1.809,0.60613-1.809,0.60613
								l-4.78307,0.22552l2.08864-3.70662c1.3338,0.18375,1.58065-1.43361,1.58065-1.43361h2.03498l2.70218-0.10143
								L68.44143,88.62991z"/>
							<path id="Stroke-450" fill="none" stroke="#33475C" stroke-linecap="round" stroke-linejoin="round" d="M68.44143,88.62991
								l-0.75067,1.73846c-1.38268-0.87103-1.809,0.60613-1.809,0.60613l-4.78307,0.22552l2.08864-3.70662
								c1.3338,0.18375,1.58065-1.43361,1.58065-1.43361h2.03498l2.70218-0.10143L68.44143,88.62991z"/>
							<g id="Group-455" transform="translate(60.816901, 88.295455)">
								<path id="Fill-452" fill="#FFFFFF" d="M0.28155,2.90432l4.66799-2.76997"/>
								<path id="Stroke-454" fill="none" stroke="#33475C" stroke-linecap="round" stroke-linejoin="round" d="M0.28155,2.90432
									l4.66799-2.76997"/>
							</g>
							<path id="Fill-456" fill="#33475C" d="M66.68591,88.33805c0,0.41523-0.33628,0.7529-0.75246,0.7529
								c-0.41499,0-0.75127-0.33767-0.75127-0.7529s0.33628-0.7529,0.75127-0.7529
								C66.34963,87.58515,66.68591,87.92282,66.68591,88.33805"/>
							<path id="Fill-458" fill="#B2743D" d="M89.52832,76.41667c0,0.86089-0.60459,1.20988-1.34989,0.77975
								c-0.74531-0.43074-1.3493-1.47776-1.3493-2.33923c0-0.86148,0.604-1.21049,1.3493-0.77975
								C88.92373,74.50818,89.52832,75.55579,89.52832,76.41667"/>
							<path id="Stroke-460" fill="none" stroke="#33475C" stroke-linecap="round" stroke-linejoin="round" d="M89.52832,76.41667
								c0,0.86089-0.60459,1.20988-1.34989,0.77975c-0.74531-0.43074-1.3493-1.47776-1.3493-2.33923
								c0-0.86148,0.604-1.21049,1.3493-0.77975C88.92373,74.50818,89.52832,75.55579,89.52832,76.41667z"/>
							<g id="Group-465" transform="translate(66.779343, 73.380682)">
								<path id="Fill-462" fill="#B2743D" d="M20.57072,0.54827C7.1749,3.93869,0.02355,12.67935,0.02355,12.67935
									s1.58839,0.67653,1.63848,2.57011c0,0,10.10932-1.69014,20.77911-11.39966"/>
								<path id="Stroke-464" fill="none" stroke="#33475C" stroke-linecap="round" stroke-linejoin="round" d="M20.57072,0.54827
									C7.1749,3.93869,0.02355,12.67935,0.02355,12.67935s1.58839,0.67653,1.63848,2.57011
									c0,0,10.10932-1.69014,20.77911-11.39966"/>
							</g>
							<path id="Stroke-466" fill="none" stroke="#F6C364" stroke-linecap="round" stroke-linejoin="round" d="M70.42174,88.1469
								c-0.31899-2.04094-1.46676-3.06588-2.25977-3.53719"/>
							<path id="Stroke-468" fill="none" stroke="#F6C364" stroke-linecap="round" stroke-linejoin="round" d="M88.12566,78.19887
								c-0.52052-2.00872-1.66769-3.15-2.5865-3.76389"/>
							<path id="Stroke-470" fill="none" stroke="#33475C" stroke-linecap="round" stroke-linejoin="round" d="M87.35007,73.92895
								c-13.39582,3.39043-20.54717,12.13108-20.54717,12.13108s1.58839,0.67654,1.63848,2.57011
								c0,0,10.10931-1.69014,20.77911-11.39966"/>
						</g>
					</g>
				</g>
			</g>
		</g>
	</g>
</g>
</svg>
