<?xml version="1.0" encoding="iso-8859-1"?>
<!-- Generator: Adobe Illustrator 19.0.0, SVG Export Plug-In . SVG Version: 6.00 Build 0)  -->
<svg xmlns="http://www.w3.org/2000/svg" xmlns:xlink="http://www.w3.org/1999/xlink" version="1.1" id="Capa_1" x="0px" y="0px" viewBox="0 0 512 512" style="enable-background:new 0 0 512 512;" xml:space="preserve">
<path style="fill:#F9395E;" d="M512,256c0,23.542-3.177,46.331-9.132,67.981c-20.438,74.407-73.613,135.272-143.078,166.097  c-19.048,8.464-39.32,14.66-60.479,18.265C285.236,510.746,270.764,512,256,512c-14.764,0-29.236-1.254-43.321-3.657  c-49.131-8.37-93.497-30.741-128.836-62.861c-35.359-32.162-61.691-74.073-74.71-121.501C3.177,302.331,0,279.542,0,256  c0-69.444,27.648-132.441,72.547-178.552c7.241-7.44,14.942-14.451,23.04-20.961C139.473,21.149,195.26,0,256,0  s116.527,21.149,160.413,56.487c48.494,39.027,82.453,95.378,92.505,159.66c0.784,4.984,1.411,10.021,1.902,15.109  C511.603,239.397,512,247.651,512,256z"/>
<path style="fill:#F9EF4A;" d="M512,256c0,23.542-3.177,46.331-9.132,67.981c-20.438,74.407-73.613,135.272-143.078,166.097  c-19.048,8.464-39.32,14.66-60.479,18.265C285.236,510.746,270.764,512,256,512c-14.764,0-29.236-1.254-43.321-3.657  c-49.131-8.37-93.497-30.741-128.836-62.861c3.041-1.557,5.872-3.605,8.411-6.144c13.155-13.145,13.155-34.471,0-47.626  c-5.528-5.517-12.507-8.725-19.707-9.603V56.487h154.425c0,8.62,3.291,17.241,9.864,23.813c13.155,13.155,34.482,13.155,47.637,0  c6.572-6.572,9.864-15.193,9.864-23.813h29.027c-2.236,7.325-0.449,15.6,5.329,21.389c8.359,8.349,21.901,8.349,30.26-0.01  c5.789-5.789,7.565-14.054,5.319-21.379h52.14c48.494,39.027,82.453,95.378,92.505,159.66c0.784,4.984,1.411,10.021,1.902,15.109  C511.603,239.397,512,247.651,512,256z"/>
<g>
	<path style="fill:#F4D52D;" d="M327.397,205.396c17.778,0,33.021,10.831,39.502,26.254c2.144-5.101,3.332-10.702,3.332-16.581   c0-23.658-19.178-42.835-42.835-42.835c-23.658,0-42.835,19.178-42.835,42.835c0,5.88,1.189,11.48,3.332,16.581   C294.376,216.227,309.62,205.396,327.397,205.396z"/>
	<path style="fill:#F4D52D;" d="M190.84,228.974c13.009,0,24.164,7.927,28.908,19.213c1.568-3.732,2.439-7.832,2.439-12.134   c0-17.312-14.034-31.346-31.346-31.346s-31.346,14.034-31.346,31.346c0,4.303,0.87,8.401,2.439,12.134   C166.675,236.899,177.83,228.974,190.84,228.974z"/>
	<path style="fill:#F4D52D;" d="M345.679,401.07c10.668,0,19.816,6.5,23.706,15.755c1.286-3.062,2-6.422,2-9.951   c0-14.197-11.509-25.706-25.706-25.706c-14.197,0-25.706,11.509-25.706,25.706c0,3.529,0.714,6.89,2,9.951   C325.863,407.571,335.011,401.07,345.679,401.07z"/>
	<path style="fill:#F4D52D;" d="M510.819,231.257c-0.334,1.912-0.878,3.741-1.609,5.475c-3.887-9.247-13.03-15.757-23.698-15.757   c-10.668,0-19.822,6.51-23.709,15.757c-1.285-3.062-2.006-6.416-2.006-9.947c0-14.2,11.515-25.704,25.715-25.704   c10.397,0,19.362,6.175,23.406,15.067C509.701,221.132,510.328,226.168,510.819,231.257z"/>
	<path style="fill:#F4D52D;" d="M245.855,159.612c8.719,0,16.195,5.312,19.374,12.876c1.051-2.501,1.634-5.249,1.634-8.132   c0-11.603-9.406-21.009-21.009-21.009c-11.603,0-21.009,9.406-21.009,21.009c0,2.884,0.583,5.631,1.634,8.132   C229.66,164.925,237.136,159.612,245.855,159.612z"/>
	<path style="fill:#F4D52D;" d="M441.081,107.691c8.719,0,16.195,5.312,19.375,12.876c1.051-2.501,1.634-5.249,1.634-8.132   c0-11.603-9.406-21.009-21.009-21.009s-21.009,9.406-21.009,21.009c0,2.884,0.583,5.631,1.634,8.132   C424.885,113.004,432.361,107.691,441.081,107.691z"/>
	<path style="fill:#F4D52D;" d="M270.629,145.523c5.024,5.024,6.271,12.394,3.744,18.584c2.047-0.836,3.966-2.082,5.628-3.744   c6.686-6.686,6.686-17.526,0-24.211c-6.685-6.686-17.526-6.686-24.211,0c-1.661,1.661-2.909,3.581-3.744,5.628   C258.235,139.251,265.605,140.499,270.629,145.523z"/>
	<path style="fill:#F4D52D;" d="M359.79,490.078c-19.048,8.464-39.32,14.66-60.479,18.265C285.236,510.746,270.764,512,256,512   s-29.236-1.254-43.321-3.657c-49.131-8.37-93.497-30.741-128.836-62.861c3.041-1.557,5.872-3.605,8.411-6.144   c13.155-13.145,13.155-34.471,0-47.626c-5.528-5.517-12.507-8.725-19.707-9.603l0.01-271.245   C73.289,151.04,88.325,421.919,359.79,490.078z"/>
</g>
<g>
</g>
<g>
</g>
<g>
</g>
<g>
</g>
<g>
</g>
<g>
</g>
<g>
</g>
<g>
</g>
<g>
</g>
<g>
</g>
<g>
</g>
<g>
</g>
<g>
</g>
<g>
</g>
<g>
</g>
</svg>
