<?xml version="1.0" encoding="iso-8859-1"?>
<!-- Generator: Adobe Illustrator 19.0.0, SVG Export Plug-In . SVG Version: 6.00 Build 0)  -->
<svg xmlns="http://www.w3.org/2000/svg" xmlns:xlink="http://www.w3.org/1999/xlink" version="1.1" id="Capa_1" x="0px" y="0px" viewBox="0 0 512 512" style="enable-background:new 0 0 512 512;" xml:space="preserve">
<path style="fill:#F9395E;" d="M511.479,255.479c0,141.097-114.381,255.479-255.479,255.479c-42.722,0-82.994-10.49-118.386-29.031  c-35.079-18.374-65.361-44.662-88.469-76.487C18.561,363.322,0.521,311.507,0.521,255.479C0.521,114.381,114.903,0,256,0  c113.923,0,210.431,74.568,243.372,177.552C507.235,202.12,511.479,228.304,511.479,255.479z"/>
<path style="fill:#F2EEED;" d="M499.372,178.595c-15.089-7.31-31.878-11.596-49.563-12.044c-3.472-0.104-6.914-0.042-10.334,0.146  c-31.241,1.825-62.212-5.506-89.96-19.969c-23.607-12.287-49.791-20.27-77.529-22.97c0.006-0.001,0.012-0.001,0.02-0.002  c-0.154-0.015-0.31-0.026-0.464-0.041c-2.066-0.197-4.141-0.364-6.224-0.502c-0.459-0.031-0.917-0.066-1.376-0.093  c-0.891-0.053-1.783-0.101-2.677-0.143c-1.643-0.08-3.289-0.149-4.942-0.192c-0.146,0-0.302,0-0.459-0.01  c-1.606-0.042-3.222-0.063-4.838-0.063c-0.667,0-1.335,0-2.013,0.01c-115.445,1.043-209.962,95.007-211.63,210.452  c-0.375,25.704,3.796,50.397,11.762,73.307c23.108,31.825,53.39,58.114,88.469,76.487C173.006,501.51,213.278,512,256,512  c141.097,0,255.479-114.381,255.479-255.479C511.479,229.347,507.235,203.163,499.372,178.595z"/>
<path style="fill:#E6E2E0;" d="M79.376,333.175c-0.845,58.02,21.439,110.815,58.239,149.794  c-35.079-18.374-65.361-44.662-88.469-76.487c-7.967-22.91-12.138-47.602-11.762-73.307  c1.668-115.445,96.185-209.409,211.63-210.452c0.678-0.01,1.345-0.01,2.013-0.01c1.616,0,3.233,0.021,4.838,0.063  c0.156,0.01,0.313,0.01,0.459,0.01c5.276,0.136,10.501,0.469,15.683,0.97C165.362,134.267,80.94,224.133,79.376,333.175z"/>
<path style="fill:#F9EF4A;" d="M373.989,284.812c0,50.053-40.574,90.638-90.627,90.638c-3.89,0-7.716-0.24-11.47-0.72  c-44.641-5.641-79.157-43.755-79.157-89.918s34.516-84.266,79.157-89.908c3.754-0.48,7.581-0.72,11.47-0.72  C333.415,194.185,373.989,234.759,373.989,284.812z"/>
<path style="fill:#DBCF48;" d="M287.711,371.257c-5.099,1.606-10.386,2.784-15.819,3.472c-44.641-5.641-79.157-43.755-79.157-89.918  s34.516-84.266,79.157-89.908c5.433,0.688,10.72,1.856,15.819,3.462c-36.716,11.585-63.338,45.903-63.338,86.446  S250.995,359.683,287.711,371.257z"/>
<g>
	<circle style="fill:#E6E2E0;" cx="449.184" cy="320.454" r="10.501"/>
	<circle style="fill:#E6E2E0;" cx="415.085" cy="231.067" r="10.501"/>
	<path style="fill:#E6E2E0;" d="M292.153,448.576c0,5.797-4.7,9.454-10.497,9.454s-10.497-4.7-10.497-10.497   s4.7-10.497,10.497-10.497C287.454,437.036,292.153,442.779,292.153,448.576z"/>
	<path style="fill:#E6E2E0;" d="M135.112,381.738c0,5.797-4.7,11.539-10.497,11.539c-5.797,0-10.497-5.743-10.497-11.539   c0-5.797,4.7-10.497,10.497-10.497C130.412,371.241,135.112,375.94,135.112,381.738z"/>
	<path style="fill:#E6E2E0;" d="M143.572,236.461c0,5.797-4.7,10.497-10.497,10.497s-10.497-4.7-10.497-10.497   c0-5.797,4.7-10.497,10.497-10.497S143.572,233.444,143.572,236.461z"/>
</g>
<ellipse style="fill:#FFFCA6;" cx="335.251" cy="281.829" rx="13.556" ry="21.898"/>
<g>
</g>
<g>
</g>
<g>
</g>
<g>
</g>
<g>
</g>
<g>
</g>
<g>
</g>
<g>
</g>
<g>
</g>
<g>
</g>
<g>
</g>
<g>
</g>
<g>
</g>
<g>
</g>
<g>
</g>
</svg>
