<?xml version="1.0" encoding="iso-8859-1"?>
<!-- Generator: Adobe Illustrator 19.0.0, SVG Export Plug-In . SVG Version: 6.00 Build 0)  -->
<svg xmlns="http://www.w3.org/2000/svg" xmlns:xlink="http://www.w3.org/1999/xlink" version="1.1" id="Capa_1" x="0px" y="0px" viewBox="0 0 512 512" style="enable-background:new 0 0 512 512;" xml:space="preserve">
<path style="fill:#F9395E;" d="M511.983,257.723c-0.01,0.888-0.021,1.787-0.031,2.675c-1.045,62.192-24.639,124.07-70.771,172.355  c-1.358,1.432-2.748,2.853-4.159,4.263c-4.368,4.368-8.85,8.547-13.448,12.518c-68.545,59.486-161.185,76.486-243.502,51.001  c-22.423-6.949-44.074-17.042-64.261-30.291c-14.44-9.456-28.139-20.532-40.824-33.228c-99.975-99.975-99.975-262.059,0-362.034  s262.059-99.975,362.034,0c14.054,14.054,26.133,29.341,36.237,45.505c4.159,6.646,7.973,13.448,11.452,20.365  c4.389,8.725,8.265,17.638,11.588,26.718c0.01,0,0.01,0,0,0.01c2.539,6.875,4.754,13.834,6.666,20.866  c0.146,0.533,0.293,1.076,0.439,1.62c0.01,0.021,0.01,0.052,0.021,0.073c1.891,7.126,3.469,14.305,4.733,21.546  c1.4,7.941,2.414,15.945,3.03,23.97c0.031,0.355,0.052,0.721,0.084,1.076c0.303,3.918,0.512,7.837,0.616,11.776  C511.972,251.579,512.014,254.651,511.983,257.723z"/>
<path style="fill:#76B25D;" d="M511.983,257.723c-0.408,63.091-24.012,126.056-70.802,175.03c-1.358,1.432-2.748,2.853-4.159,4.263  c-4.368,4.368-8.85,8.547-13.448,12.518c-68.545,59.486-161.185,76.486-243.502,51.001c-22.423-6.949-44.074-17.042-64.261-30.291  c-16.969-25.234-29.382-54.146-35.819-85.796c-2.832-13.876-4.389-27.711-4.765-41.409c-0.721-25.548,2.696-50.562,9.728-74.271  c12.549-42.308,36.592-80.425,69.235-109.943c30.762-27.825,69.161-48.023,112.754-56.894  c56.644-11.525,112.681-2.038,160.046,23.113c29.288,15.558,55.254,37.115,75.974,63.404c0.146,0.533,0.293,1.076,0.439,1.62  c1.902,7.147,3.49,14.357,4.754,21.619c1.4,7.941,2.414,15.945,3.03,23.97c0.345,4.274,0.585,8.558,0.7,12.852  C511.972,251.579,512.014,254.651,511.983,257.723z"/>
<g>
	<path style="fill:#8CC371;" d="M511.983,257.723c-0.408,63.091-24.012,126.056-70.802,175.03c-1.358,1.432-2.748,2.853-4.159,4.263   c-4.368,4.368-8.85,8.547-13.448,12.518c-33.029,6.102-67.782,5.945-102.671-1.484c-88.92-18.944-157.737-80.707-189.449-159.106   c18.233-25.851,41.137-47.783,67.228-64.825c1.923-1.254,3.856-2.466,5.799-3.668c9.812-6.039,20.062-11.389,30.636-16.029   c39.664-17.356,133.203-72.129,191.873-79.38c9.185-1.139,17.523-1.108,24.659,0.418c12.058,2.57,23.061,7.931,33.06,15.391   c7.983,15.851,14.221,32.35,18.693,49.214c1.902,7.147,3.49,14.357,4.754,21.619c1.4,7.941,2.414,15.945,3.03,23.97   c0.345,4.274,0.585,8.558,0.7,12.852C511.972,251.579,512.014,254.651,511.983,257.723z"/>
	
		<rect x="68.685" y="98.252" transform="matrix(-0.7071 0.7071 -0.7071 -0.7071 351.6266 160.0671)" style="fill:#8CC371;" width="147.955" height="109.211"/>
</g>
<g>
	
		<rect x="84.987" y="137.632" transform="matrix(-0.7071 0.7071 -0.7071 -0.7071 312.213 255.1531)" style="fill:#76B25D;" width="36.552" height="109.211"/>
	<path style="fill:#76B25D;" d="M79.993,322.303c59.637,51.471,141.637,75.754,224.813,58.822   c51.587-10.501,96.562-35.416,131.565-69.686c30.469-29.823,53.391-66.751,66.577-107.413   c-56.436-69.069-148.3-105.304-241.774-86.276c-52.807,10.75-98.251,37.534-132.29,74.255   c-15.567,16.783-28.756,35.646-39.158,56.016C82.687,271.721,79.272,296.743,79.993,322.303z"/>
</g>
<path style="fill:#8CC371;" d="M503.425,190.139c-13.563,36.603-35.129,69.82-62.997,97.102  c-35.004,34.272-79.976,59.183-131.562,69.684c-89.098,18.139-176.848-11.013-237.211-70.227  c9.216-44.711,30.636-85.827,61.293-118.888c34.032-36.728,79.485-63.509,132.294-74.26c87.771-17.868,174.121,12.998,231.057,74.02  c0.01,0,0.01,0,0,0.01c2.539,6.875,4.754,13.834,6.666,20.866c0.146,0.533,0.293,1.076,0.439,1.62  C503.415,190.087,503.415,190.118,503.425,190.139z"/>
<g>
	<path style="fill:#76B25D;" d="M503.425,190.139c-13.563,36.603-35.129,69.82-62.997,97.102   c-8.704,2.748-17.638,5.057-26.791,6.917c-113.904,23.186-225.603-30.929-280.689-126.348   c34.032-36.728,79.485-63.509,132.294-74.26c87.771-17.868,174.131,12.998,231.057,74.031c2.539,6.875,4.754,13.834,6.666,20.866   c0.146,0.533,0.293,1.076,0.439,1.62C503.415,190.087,503.415,190.118,503.425,190.139z"/>
	<path style="fill:#76B25D;" d="M511.983,257.723c-0.01,0.888-0.021,1.787-0.031,2.675c-25.339,16.551-54.157,28.682-85.618,35.077   c-86.214,17.554-171.028-12.152-227.651-71.356c11.567-7.565,23.761-14.137,36.435-19.696   c45.881-20.083,163.829-90.195,216.533-78.962c12.058,2.57,23.061,7.931,33.06,15.391c7.722,15.339,13.824,31.295,18.254,47.595   c0.146,0.533,0.293,1.076,0.439,1.62c1.902,7.147,3.49,14.357,4.754,21.619c1.4,7.941,2.414,15.945,3.03,23.97   c0.031,0.355,0.052,0.721,0.084,1.076c0.303,3.918,0.512,7.837,0.616,11.776C511.972,251.579,512.014,254.651,511.983,257.723z"/>
</g>
<path style="fill:#8CC371;" d="M511.272,236.731c-27.282,19.498-59.016,33.708-93.988,40.824  c-78.973,16.081-156.776-7.523-212.803-57.103c-19.79-17.491-36.853-38.243-50.291-61.628c-2.435-4.211-4.744-8.516-6.917-12.894  c33.457-34.69,77.395-59.956,128.166-70.29c72.139-14.681,143.328,3.741,197.819,44.847c4.159,6.646,7.973,13.448,11.452,20.365  c7.722,15.339,13.824,31.295,18.254,47.595c0.146,0.533,0.293,1.076,0.439,1.62c1.902,7.147,3.49,14.357,4.754,21.619  c1.4,7.941,2.414,15.945,3.03,23.97C511.22,236.01,511.241,236.375,511.272,236.731z"/>
<g>
</g>
<g>
</g>
<g>
</g>
<g>
</g>
<g>
</g>
<g>
</g>
<g>
</g>
<g>
</g>
<g>
</g>
<g>
</g>
<g>
</g>
<g>
</g>
<g>
</g>
<g>
</g>
<g>
</g>
</svg>
