<?xml version="1.0" encoding="iso-8859-1"?>
<!-- Generator: Adobe Illustrator 19.0.0, SVG Export Plug-In . SVG Version: 6.00 Build 0)  -->
<svg xmlns="http://www.w3.org/2000/svg" xmlns:xlink="http://www.w3.org/1999/xlink" version="1.1" id="Capa_1" x="0px" y="0px" viewBox="0 0 512 512" style="enable-background:new 0 0 512 512;" xml:space="preserve">
<path style="fill:#B16E60;" d="M507.393,304.475c-1.672,8.704-3.803,17.345-6.384,25.882c-7.21,23.813-17.941,46.77-32.235,68.075  c-1.212,1.808-2.445,3.605-3.709,5.381c-7.199,10.167-15.235,19.926-24.095,29.184c-0.543,0.564-1.087,1.128-1.641,1.682  c-0.763,0.784-1.536,1.567-2.309,2.341c-0.773,0.773-1.557,1.546-2.341,2.309c-0.533,0.522-1.066,1.045-1.609,1.557  c-9.279,8.892-19.059,16.959-29.268,24.179c-8.861,6.28-18.025,11.933-27.439,16.948c-1.275,0.679-2.56,1.348-3.845,2.006  c-0.909,0.47-1.818,0.93-2.738,1.379c-0.042,0.021-0.084,0.042-0.125,0.073c-1.034,0.502-2.069,1.014-3.103,1.505  c-1.212,0.575-2.424,1.149-3.647,1.703c-1.149,0.533-2.299,1.055-3.448,1.557c-1.139,0.502-2.288,1.003-3.438,1.484  c-0.721,0.313-1.442,0.606-2.173,0.909c-1.055,0.439-2.111,0.867-3.166,1.285c-1.275,0.512-2.55,1.003-3.835,1.484  c-1.327,0.512-2.654,1.003-3.992,1.473c-1.63,0.596-3.271,1.16-4.911,1.714c-1.076,0.355-2.163,0.711-3.239,1.066  c-0.104,0.031-0.209,0.063-0.313,0.094c-1.348,0.439-2.696,0.857-4.054,1.264c-8.526,2.581-17.168,4.713-25.882,6.384  c-80.551,15.454-167.1-8.004-229.471-70.374c-99.976-99.976-99.976-262.061,0-362.037s262.061-99.976,362.037,0  C499.389,137.354,522.858,223.914,507.393,304.475z"/>
<path style="fill:#F2B54D;" d="M507.393,304.475c-1.672,8.704-3.803,17.345-6.384,25.882c-7.816,25.83-19.79,50.657-35.945,73.456  c-7.21,10.188-15.266,19.958-24.148,29.236c-1.285,1.337-2.581,2.654-3.897,3.971c-1.306,1.306-2.623,2.602-3.95,3.866  c-9.279,8.892-19.059,16.959-29.268,24.179c-8.861,6.28-18.025,11.933-27.439,16.948c-14.806,7.899-30.229,14.232-46.028,18.996  c-8.526,2.581-17.168,4.713-25.882,6.384L121.407,324.349c-21.682-21.682-21.682-56.843,0-78.524l124.406-124.406  c21.682-21.682,56.843-21.682,78.524,0L507.393,304.475z"/>
<path style="fill:#E59F32;" d="M363.009,488.639c-10.648,4.901-21.567,9.018-32.674,12.372c-8.526,2.581-17.168,4.713-25.882,6.384  L121.407,324.349c-21.682-21.682-21.682-56.843,0-78.524l38.651-38.651c-21.682,21.682-21.682,56.843,0,78.524L363.009,488.639z"/>
<path style="fill:#F2EEED;" d="M189.018,88.613L88.608,189.024c-6.447,6.447-6.447,16.901,0,23.348l33.129,33.129l123.759-123.759  l-33.129-33.129C205.918,82.166,195.465,82.166,189.018,88.613z"/>
<path style="fill:#CCC9C7;" d="M118.924,158.707l-28.11,28.111c-7.666,7.666-7.666,20.096,0,27.762l30.922,30.922l28.11-28.11  l-30.922-30.922C111.258,178.803,111.258,166.373,118.924,158.707z"/>
<polygon style="fill:#F2EEED;" points="58.926,34.223 34.216,58.932 105.21,172.421 172.415,105.216 "/>
<polygon style="fill:#CCC9C7;" points="34.216,58.932 105.21,172.421 127.394,150.237 42.373,50.776 "/>
<path style="fill:#E59F32;" d="M468.773,398.433c-1.212,1.808-2.445,3.605-3.709,5.381c-7.199,10.167-15.235,19.926-24.095,29.184  c-0.543,0.564-1.087,1.128-1.641,1.682c-0.763,0.784-1.536,1.567-2.309,2.341c-0.773,0.773-1.557,1.546-2.341,2.309  c-0.533,0.522-1.066,1.045-1.609,1.557c-9.279,8.892-19.059,16.959-29.268,24.179c-8.861,6.28-18.025,11.933-27.439,16.948  c-1.275,0.679-2.56,1.348-3.845,2.006c-0.909,0.47-1.818,0.93-2.738,1.379c-0.042,0.021-0.084,0.042-0.125,0.073  c-1.034,0.502-2.069,1.014-3.103,1.505c-1.212,0.575-2.424,1.149-3.647,1.703c-1.149,0.533-2.299,1.055-3.448,1.557  c-1.139,0.502-2.288,1.003-3.438,1.484c-0.721,0.313-1.442,0.606-2.173,0.909c-1.055,0.439-2.111,0.867-3.166,1.285  c-1.275,0.512-2.55,1.003-3.835,1.484c-1.327,0.512-2.654,1.003-3.992,1.473c-1.63,0.596-3.271,1.16-4.911,1.714  c-1.076,0.355-2.163,0.711-3.239,1.066c-0.104,0.031-0.209,0.063-0.313,0.094c-1.348,0.439-2.696,0.857-4.054,1.264  c-8.526,2.581-17.168,4.713-25.882,6.384l-41.692-41.691l-62.893-140.205C237.945,363.585,322.017,481.074,468.773,398.433z"/>
<g>
</g>
<g>
</g>
<g>
</g>
<g>
</g>
<g>
</g>
<g>
</g>
<g>
</g>
<g>
</g>
<g>
</g>
<g>
</g>
<g>
</g>
<g>
</g>
<g>
</g>
<g>
</g>
<g>
</g>
</svg>
